SplineFontDB: 3.2
FontName: Nunito-Black
FullName: Nunito Black
FamilyName: Nunito Black
Weight: Black
Copyright: Copyright 2014 The Nunito Project Authors (https://github.com/googlefonts/nunito)
Version: 3.602-ef
ItalicAngle: 0
UnderlinePosition: -94
UnderlineWidth: 28
Ascent: 800
Descent: 200
InvalidEm: 0
sfntRevision: 0x00039a1d
LayerCount: 2
Layer: 0 1 "Back" 1
Layer: 1 1 "Fore" 0
XUID: [1021 965 1680887925 232346]
StyleMap: 0x0040
FSType: 0
OS2Version: 4
OS2_WeightWidthSlopeOnly: 0
OS2_UseTypoMetrics: 1
CreationTime: 1592915285
ModificationTime: 1719075362
PfmFamily: 81
TTFWeight: 900
TTFWidth: 5
LineGap: 0
VLineGap: 0
Panose: 0 0 0 0 0 0 0 0 0 0
OS2TypoAscent: 1011
OS2TypoAOffset: 0
OS2TypoDescent: -353
OS2TypoDOffset: 0
OS2TypoLinegap: 0
OS2WinAscent: 1077
OS2WinAOffset: 0
OS2WinDescent: 300
OS2WinDOffset: 0
HheadAscent: 1011
HheadAOffset: 0
HheadDescent: -353
HheadDOffset: 0
OS2SubXSize: 650
OS2SubYSize: 600
OS2SubXOff: 0
OS2SubYOff: 75
OS2SupXSize: 650
OS2SupYSize: 600
OS2SupXOff: 0
OS2SupYOff: 350
OS2StrikeYSize: 28
OS2StrikeYPos: 290
OS2CapHeight: 705
OS2XHeight: 484
OS2Vendor: 'NONE'
OS2CodePages: 20000197.00000000
OS2UnicodeRanges: a00002ff.5000204b.00000000.00000000
Lookup: 1 0 0 "'aalt' Access All Alternates lookup 0" { "'aalt' Access All Alternates lookup 0 subtable"  } ['aalt' ('DFLT' <'dflt' > 'cyrl' <'BSH ' 'CHU ' 'dflt' > 'latn' <'AZE ' 'CAT ' 'CRT ' 'KAZ ' 'MOL ' 'NLD ' 'ROM ' 'TAT ' 'TRK ' 'dflt' > ) ]
Lookup: 3 0 0 "'aalt' Access All Alternates lookup 1" { "'aalt' Access All Alternates lookup 1 subtable"  } ['aalt' ('DFLT' <'dflt' > 'cyrl' <'BSH ' 'CHU ' 'dflt' > 'latn' <'AZE ' 'CAT ' 'CRT ' 'KAZ ' 'MOL ' 'NLD ' 'ROM ' 'TAT ' 'TRK ' 'dflt' > ) ]

StartChar: .notdef
Encoding: 65536 -1 0
Width: 500
GlyphClass: 1
Flags: W
LayerCount: 2
Fore
SplineSet
50 -180 m 1,0,-1
 50 705 l 1,1,-1
 450 705 l 1,2,-1
 450 -180 l 1,3,-1
 50 -180 l 1,0,-1
100 -130 m 1,4,-1
 400 -130 l 1,5,-1
 400 655 l 1,6,-1
 100 655 l 1,7,-1
 100 -130 l 1,4,-1
EndSplineSet
EndChar

StartChar: A
Encoding: 65 65 1
Width: 763
GlyphClass: 2
Flags: W
AnchorPoint: "Anchor-3" 718 0 basechar 0
AnchorPoint: "Anchor-2" 382 0 basechar 0
AnchorPoint: "Anchor-0" 381 705 basechar 0
LayerCount: 2
Fore
SplineSet
97 -9 m 0,0,1
 66 -9 66 -9 45 5.5 c 128,-1,2
 24 20 24 20 19 45.5 c 128,-1,3
 14 71 14 71 28 103 c 2,4,-1
 277 639 l 2,5,6
 295 678 295 678 321.5 696 c 128,-1,7
 348 714 348 714 382 714 c 256,8,9
 416 714 416 714 441.5 696 c 128,-1,10
 467 678 467 678 486 639 c 2,11,-1
 735 103 l 2,12,13
 751 71 751 71 746.5 45 c 128,-1,14
 742 19 742 19 721.5 5 c 128,-1,15
 701 -9 701 -9 671 -9 c 0,16,17
 631 -9 631 -9 609.5 9 c 128,-1,18
 588 27 588 27 571 67 c 2,19,-1
 517 194 l 1,20,-1
 587 143 l 1,21,-1
 175 143 l 1,22,-1
 246 194 l 1,23,-1
 192 67 l 2,24,25
 174 27 174 27 155 9 c 128,-1,26
 136 -9 136 -9 97 -9 c 0,0,1
380 513 m 1,27,-1
 264 236 l 1,28,-1
 236 284 l 1,29,-1
 527 284 l 1,30,-1
 499 236 l 1,31,-1
 382 513 l 1,32,-1
 380 513 l 1,27,-1
EndSplineSet
Substitution2: "Single Substitution lookup 29 subtable" ordfeminine
Substitution2: "'aalt' Access All Alternates lookup 0 subtable" ordfeminine
EndChar

StartChar: Aogonek
Encoding: 260 260 24
Width: 763
GlyphClass: 1
Flags: W
LayerCount: 2
Fore
SplineSet
694 -198 m 0,0,1
 630 -198 630 -198 595.5 -168 c 128,-1,2
 561 -138 561 -138 561 -87 c 0,3,4
 561 -55 561 -55 576 -27.5 c 128,-1,5
 591 0 591 0 617 20 c 1,6,-1
 621 2 l 1,7,8
 605 11 605 11 593.5 26.5 c 128,-1,9
 582 42 582 42 571 67 c 2,10,-1
 517 194 l 1,11,-1
 587 143 l 1,12,-1
 175 143 l 1,13,-1
 246 194 l 1,14,-1
 192 67 l 2,15,16
 174 27 174 27 155 9 c 128,-1,17
 136 -9 136 -9 97 -9 c 0,18,19
 66 -9 66 -9 45 5.5 c 128,-1,20
 24 20 24 20 18.5 45.5 c 128,-1,21
 13 71 13 71 28 103 c 2,22,-1
 277 639 l 2,23,24
 295 678 295 678 321.5 696 c 128,-1,25
 348 714 348 714 382 714 c 256,26,27
 416 714 416 714 441.5 696 c 128,-1,28
 467 678 467 678 486 639 c 2,29,-1
 735 103 l 2,30,31
 752 68 752 68 744.5 40 c 128,-1,32
 737 12 737 12 713 0 c 0,33,34
 698 -8 698 -8 687 -18.5 c 128,-1,35
 676 -29 676 -29 670.5 -41.5 c 128,-1,36
 665 -54 665 -54 665 -66 c 0,37,38
 665 -87 665 -87 680.5 -99 c 128,-1,39
 696 -111 696 -111 719 -111 c 0,40,41
 725 -111 725 -111 731.5 -110 c 128,-1,42
 738 -109 738 -109 745 -108 c 0,43,44
 768 -104 768 -104 781 -113.5 c 128,-1,45
 794 -123 794 -123 796 -138.5 c 128,-1,46
 798 -154 798 -154 789 -168.5 c 128,-1,47
 780 -183 780 -183 760 -190 c 0,48,49
 743 -195 743 -195 725.5 -196.5 c 128,-1,50
 708 -198 708 -198 694 -198 c 0,0,1
380 513 m 1,51,-1
 264 236 l 1,52,-1
 236 284 l 1,53,-1
 527 284 l 1,54,-1
 499 236 l 1,55,-1
 382 513 l 1,56,-1
 380 513 l 1,51,-1
EndSplineSet
EndChar

StartChar: AE
Encoding: 198 198 28
Width: 1006
GlyphClass: 2
Flags: W
AnchorPoint: "Anchor-2" 489 0 basechar 0
AnchorPoint: "Anchor-0" 489 705 basechar 0
LayerCount: 2
Fore
SplineSet
68 -9 m 0,0,1
 29 -9 29 -9 9 7 c 128,-1,2
 -11 23 -11 23 -11 49 c 128,-1,3
 -11 75 -11 75 6 103 c 2,4,-1
 359 658 l 2,5,6
 374 683 374 683 395 694 c 128,-1,7
 416 705 416 705 446 705 c 2,8,-1
 891 705 l 2,9,10
 926 705 926 705 944.5 687 c 128,-1,11
 963 669 963 669 963 635 c 0,12,13
 963 600 963 600 944.5 581.5 c 128,-1,14
 926 563 926 563 891 563 c 2,15,-1
 530 563 l 1,16,-1
 576 603 l 1,17,-1
 625 378 l 1,18,-1
 566 429 l 1,19,-1
 869 429 l 2,20,21
 904 429 904 429 922.5 411 c 128,-1,22
 941 393 941 393 941 358 c 256,23,24
 941 323 941 323 922.5 305 c 128,-1,25
 904 287 904 287 869 287 c 2,26,-1
 597 287 l 1,27,-1
 634 338 l 1,28,-1
 688 93 l 1,29,-1
 627 142 l 1,30,-1
 891 142 l 2,31,32
 926 142 926 142 944.5 123.5 c 128,-1,33
 963 105 963 105 963 71 c 0,34,35
 963 36 963 36 944.5 18 c 128,-1,36
 926 0 926 0 891 0 c 2,37,-1
 612 0 l 2,38,39
 547 0 547 0 533 64 c 2,40,-1
 503 197 l 1,41,-1
 559 143 l 1,42,-1
 179 143 l 1,43,-1
 245 190 l 1,44,-1
 159 46 l 2,45,46
 143 19 143 19 123 5 c 128,-1,47
 103 -9 103 -9 68 -9 c 0,0,1
433 507 m 1,48,-1
 274 240 l 1,49,-1
 265 284 l 1,50,-1
 531 284 l 1,51,-1
 496 233 l 1,52,-1
 435 507 l 1,53,-1
 433 507 l 1,48,-1
EndSplineSet
EndChar

StartChar: B
Encoding: 66 66 30
Width: 702
GlyphClass: 2
Flags: W
AnchorPoint: "Anchor-2" 350 0 basechar 0
AnchorPoint: "Anchor-0" 350 705 basechar 0
LayerCount: 2
Fore
SplineSet
160 0 m 2,0,1
 113 0 113 0 88.5 24.5 c 128,-1,2
 64 49 64 49 64 95 c 2,3,-1
 64 610 l 2,4,5
 64 656 64 656 88.5 680.5 c 128,-1,6
 113 705 113 705 160 705 c 2,7,-1
 404 705 l 2,8,9
 480 705 480 705 533.5 682.5 c 128,-1,10
 587 660 587 660 615 619 c 128,-1,11
 643 578 643 578 643 523 c 0,12,13
 643 461 643 461 607.5 417 c 128,-1,14
 572 373 572 373 511 357 c 1,15,-1
 511 373 l 1,16,17
 583 360 583 360 622.5 315 c 128,-1,18
 662 270 662 270 662 200 c 0,19,20
 662 107 662 107 595.5 53.5 c 128,-1,21
 529 0 529 0 414 0 c 2,22,-1
 160 0 l 2,0,1
240 135 m 1,23,-1
 389 135 l 2,24,25
 440 135 440 135 463.5 154.5 c 128,-1,26
 487 174 487 174 487 213 c 256,27,28
 487 252 487 252 463.5 271 c 128,-1,29
 440 290 440 290 389 290 c 2,30,-1
 240 290 l 1,31,-1
 240 135 l 1,23,-1
240 425 m 1,32,-1
 371 425 l 2,33,34
 421 425 421 425 444.5 443 c 128,-1,35
 468 461 468 461 468 498 c 256,36,37
 468 535 468 535 444.5 552.5 c 128,-1,38
 421 570 421 570 371 570 c 2,39,-1
 240 570 l 1,40,-1
 240 425 l 1,32,-1
EndSplineSet
EndChar

StartChar: uni0181
Encoding: 385 385 31
Width: 883
GlyphClass: 1
Flags: W
LayerCount: 2
Fore
SplineSet
341 0 m 2,0,1
 295 0 295 0 270.5 24.5 c 128,-1,2
 246 49 246 49 246 95 c 2,3,-1
 246 580 l 1,4,-1
 227 580 l 2,5,6
 187 580 187 580 167 561.5 c 128,-1,7
 147 543 147 543 147 505 c 2,8,-1
 147 493 l 2,9,10
 147 482 147 482 139.5 468 c 128,-1,11
 132 454 132 454 116 444 c 128,-1,12
 100 434 100 434 74 434 c 256,13,14
 48 434 48 434 32 444.5 c 128,-1,15
 16 455 16 455 8 470 c 128,-1,16
 0 485 0 485 0 498 c 2,17,-1
 0 511 l 2,18,19
 0 603 0 603 59.5 654 c 128,-1,20
 119 705 119 705 232 705 c 2,21,-1
 585 705 l 2,22,23
 661 705 661 705 714.5 682.5 c 128,-1,24
 768 660 768 660 796 619 c 128,-1,25
 824 578 824 578 824 523 c 0,26,27
 824 461 824 461 788.5 417 c 128,-1,28
 753 373 753 373 693 357 c 1,29,-1
 693 373 l 1,30,31
 765 360 765 360 804 315 c 128,-1,32
 843 270 843 270 843 200 c 0,33,34
 843 107 843 107 776.5 53.5 c 128,-1,35
 710 0 710 0 595 0 c 2,36,-1
 341 0 l 2,0,1
421 135 m 1,37,-1
 570 135 l 2,38,39
 622 135 622 135 645 154.5 c 128,-1,40
 668 174 668 174 668 213 c 256,41,42
 668 252 668 252 645 271 c 128,-1,43
 622 290 622 290 570 290 c 2,44,-1
 421 290 l 1,45,-1
 421 135 l 1,37,-1
421 425 m 1,46,-1
 552 425 l 2,47,48
 603 425 603 425 626 443 c 128,-1,49
 649 461 649 461 649 498 c 256,50,51
 649 535 649 535 626 552.5 c 128,-1,52
 603 570 603 570 552 570 c 2,53,-1
 421 570 l 1,54,-1
 421 425 l 1,46,-1
EndSplineSet
EndChar

StartChar: C
Encoding: 67 67 32
Width: 688
GlyphClass: 2
Flags: W
AnchorPoint: "Anchor-2" 398 0 basechar 0
AnchorPoint: "Anchor-0" 398 705 basechar 0
LayerCount: 2
Fore
SplineSet
420 -11 m 0,0,1
 303 -11 303 -11 219 34 c 128,-1,2
 135 79 135 79 90.5 161 c 128,-1,3
 46 243 46 243 46 353 c 0,4,5
 46 435 46 435 71.5 502 c 128,-1,6
 97 569 97 569 145.5 617 c 128,-1,7
 194 665 194 665 263.5 690.5 c 128,-1,8
 333 716 333 716 420 716 c 0,9,10
 466 716 466 716 515.5 705.5 c 128,-1,11
 565 695 565 695 603 674 c 0,12,13
 631 659 631 659 642 636 c 128,-1,14
 653 613 653 613 649.5 589 c 128,-1,15
 646 565 646 565 632 546 c 128,-1,16
 618 527 618 527 596 520.5 c 128,-1,17
 574 514 574 514 548 527 c 0,18,19
 518 541 518 541 488.5 548.5 c 128,-1,20
 459 556 459 556 427 556 c 0,21,22
 365 556 365 556 323.5 532.5 c 128,-1,23
 282 509 282 509 261 464 c 128,-1,24
 240 419 240 419 240 353 c 256,25,26
 240 287 240 287 261 241.5 c 128,-1,27
 282 196 282 196 323.5 172.5 c 128,-1,28
 365 149 365 149 427 149 c 0,29,30
 453 149 453 149 483 155.5 c 128,-1,31
 513 162 513 162 542 176 c 0,32,33
 572 189 572 189 595.5 183 c 128,-1,34
 619 177 619 177 633.5 159 c 128,-1,35
 648 141 648 141 652 117.5 c 128,-1,36
 656 94 656 94 645.5 71 c 128,-1,37
 635 48 635 48 609 34 c 0,38,39
 574 13 574 13 522.5 1 c 128,-1,40
 471 -11 471 -11 420 -11 c 0,0,1
EndSplineSet
EndChar

StartChar: D
Encoding: 68 68 39
Width: 786
GlyphClass: 2
Flags: W
AnchorPoint: "Anchor-5" 207 358 basechar 0
AnchorPoint: "Anchor-2" 389 0 basechar 0
AnchorPoint: "Anchor-0" 389 705 basechar 0
LayerCount: 2
Fore
SplineSet
160 0 m 2,0,1
 113 0 113 0 88.5 24.5 c 128,-1,2
 64 49 64 49 64 95 c 2,3,-1
 64 610 l 2,4,5
 64 656 64 656 88.5 680.5 c 128,-1,6
 113 705 113 705 160 705 c 2,7,-1
 356 705 l 2,8,9
 540 705 540 705 640.5 613 c 128,-1,10
 741 521 741 521 741 353 c 0,11,12
 741 269 741 269 715 203.5 c 128,-1,13
 689 138 689 138 640 92.5 c 128,-1,14
 591 47 591 47 519.5 23.5 c 128,-1,15
 448 0 448 0 356 0 c 2,16,-1
 160 0 l 2,0,1
248 149 m 1,17,-1
 344 149 l 2,18,19
 397 149 397 149 435.5 162 c 128,-1,20
 474 175 474 175 499.5 200 c 128,-1,21
 525 225 525 225 537.5 263 c 128,-1,22
 550 301 550 301 550 353 c 0,23,24
 550 457 550 457 499 506.5 c 128,-1,25
 448 556 448 556 344 556 c 2,26,-1
 248 556 l 1,27,-1
 248 149 l 1,17,-1
EndSplineSet
EndChar

StartChar: uni018A
Encoding: 394 394 45
Width: 968
GlyphClass: 1
Flags: W
LayerCount: 2
Fore
SplineSet
341 0 m 2,0,1
 295 0 295 0 270.5 24.5 c 128,-1,2
 246 49 246 49 246 95 c 2,3,-1
 246 580 l 1,4,-1
 227 580 l 2,5,6
 187 580 187 580 167 561.5 c 128,-1,7
 147 543 147 543 147 505 c 2,8,-1
 147 493 l 2,9,10
 147 482 147 482 139.5 468 c 128,-1,11
 132 454 132 454 116 444 c 128,-1,12
 100 434 100 434 74 434 c 256,13,14
 48 434 48 434 32 444.5 c 128,-1,15
 16 455 16 455 8 470 c 128,-1,16
 0 485 0 485 0 498 c 2,17,-1
 0 511 l 2,18,19
 0 603 0 603 59 654 c 128,-1,20
 118 705 118 705 230 705 c 2,21,-1
 537 705 l 2,22,23
 721 705 721 705 821.5 613 c 128,-1,24
 922 521 922 521 922 353 c 0,25,26
 922 269 922 269 896.5 203.5 c 128,-1,27
 871 138 871 138 821.5 92.5 c 128,-1,28
 772 47 772 47 700.5 23.5 c 128,-1,29
 629 0 629 0 537 0 c 2,30,-1
 341 0 l 2,0,1
429 149 m 1,31,-1
 526 149 l 2,32,33
 578 149 578 149 616.5 162 c 128,-1,34
 655 175 655 175 680.5 200 c 128,-1,35
 706 225 706 225 718.5 263 c 128,-1,36
 731 301 731 301 731 353 c 0,37,38
 731 457 731 457 680 506.5 c 128,-1,39
 629 556 629 556 526 556 c 2,40,-1
 429 556 l 1,41,-1
 429 149 l 1,31,-1
EndSplineSet
EndChar

StartChar: E
Encoding: 69 69 48
Width: 614
GlyphClass: 2
Flags: W
AnchorPoint: "Anchor-3" 503 0 basechar 0
AnchorPoint: "Anchor-2" 333 0 basechar 0
AnchorPoint: "Anchor-0" 333 705 basechar 0
LayerCount: 2
Fore
SplineSet
160 0 m 2,0,1
 113 0 113 0 88.5 24.5 c 128,-1,2
 64 49 64 49 64 95 c 2,3,-1
 64 610 l 2,4,5
 64 656 64 656 88.5 680.5 c 128,-1,6
 113 705 113 705 160 705 c 2,7,-1
 499 705 l 2,8,9
 535 705 535 705 553 687 c 128,-1,10
 571 669 571 669 571 635 c 0,11,12
 571 600 571 600 553 581.5 c 128,-1,13
 535 563 535 563 499 563 c 2,14,-1
 240 563 l 1,15,-1
 240 429 l 1,16,-1
 477 429 l 2,17,18
 512 429 512 429 530.5 411 c 128,-1,19
 549 393 549 393 549 358 c 256,20,21
 549 323 549 323 530.5 305 c 128,-1,22
 512 287 512 287 477 287 c 2,23,-1
 240 287 l 1,24,-1
 240 142 l 1,25,-1
 499 142 l 2,26,27
 535 142 535 142 553 123.5 c 128,-1,28
 571 105 571 105 571 71 c 0,29,30
 571 36 571 36 553 18 c 128,-1,31
 535 0 535 0 499 0 c 2,32,-1
 160 0 l 2,0,1
EndSplineSet
EndChar

StartChar: uni018F
Encoding: 399 399 72
Width: 807
GlyphClass: 2
Flags: W
AnchorPoint: "Anchor-2" 407 0 basechar 0
AnchorPoint: "Anchor-0" 407 705 basechar 0
LayerCount: 2
Fore
SplineSet
412 -11 m 0,0,1
 323 -11 323 -11 254.5 16.5 c 128,-1,2
 186 44 186 44 139.5 94.5 c 128,-1,3
 93 145 93 145 69.5 214 c 128,-1,4
 46 283 46 283 46 367 c 0,5,6
 46 394 46 394 60 408.5 c 128,-1,7
 74 423 74 423 99 423 c 2,8,-1
 620 423 l 1,9,-1
 620 282 l 1,10,-1
 184 282 l 1,11,-1
 232 354 l 1,12,13
 232 280 232 280 251.5 231.5 c 128,-1,14
 271 183 271 183 309 159.5 c 128,-1,15
 347 136 347 136 403 136 c 0,16,17
 458 136 458 136 495 159.5 c 128,-1,18
 532 183 532 183 551.5 231.5 c 128,-1,19
 571 280 571 280 571 353 c 0,20,21
 571 422 571 422 547 468.5 c 128,-1,22
 523 515 523 515 475 538.5 c 128,-1,23
 427 562 427 562 356 562 c 0,24,25
 316 562 316 562 275 554.5 c 128,-1,26
 234 547 234 547 198 532 c 0,27,28
 166 520 166 520 142 526.5 c 128,-1,29
 118 533 118 533 104 551.5 c 128,-1,30
 90 570 90 570 88 593 c 128,-1,31
 86 616 86 616 97.5 637 c 128,-1,32
 109 658 109 658 138 671 c 0,33,34
 185 692 185 692 249 704 c 128,-1,35
 313 716 313 716 380 716 c 0,36,37
 495 716 495 716 580.5 672 c 128,-1,38
 666 628 666 628 714 546 c 128,-1,39
 762 464 762 464 762 351 c 0,40,41
 762 269 762 269 736.5 202 c 128,-1,42
 711 135 711 135 664 87.5 c 128,-1,43
 617 40 617 40 553 14.5 c 128,-1,44
 489 -11 489 -11 412 -11 c 0,0,1
EndSplineSet
EndChar

StartChar: F
Encoding: 70 70 73
Width: 579
GlyphClass: 2
Flags: W
AnchorPoint: "Anchor-2" 304 0 basechar 0
AnchorPoint: "Anchor-0" 309 705 basechar 0
LayerCount: 2
Fore
SplineSet
157 -9 m 0,0,1
 113 -9 113 -9 88.5 15.5 c 128,-1,2
 64 40 64 40 64 86 c 2,3,-1
 64 610 l 2,4,5
 64 656 64 656 88.5 680.5 c 128,-1,6
 113 705 113 705 160 705 c 2,7,-1
 493 705 l 2,8,9
 529 705 529 705 547 687 c 128,-1,10
 565 669 565 669 565 635 c 0,11,12
 565 600 565 600 547 581.5 c 128,-1,13
 529 563 529 563 493 563 c 2,14,-1
 248 563 l 1,15,-1
 248 421 l 1,16,-1
 471 421 l 2,17,18
 506 421 506 421 524.5 403 c 128,-1,19
 543 385 543 385 543 351 c 0,20,21
 543 316 543 316 524.5 298 c 128,-1,22
 506 280 506 280 471 280 c 2,23,-1
 248 280 l 1,24,-1
 248 86 l 2,25,26
 248 -9 248 -9 157 -9 c 0,0,1
EndSplineSet
EndChar

StartChar: G
Encoding: 71 71 74
Width: 747
GlyphClass: 2
Flags: W
AnchorPoint: "Anchor-2" 419 0 basechar 0
AnchorPoint: "Anchor-0" 412 705 basechar 0
LayerCount: 2
Fore
SplineSet
424 -11 m 0,0,1
 303 -11 303 -11 218.5 34 c 128,-1,2
 134 79 134 79 90 160 c 128,-1,3
 46 241 46 241 46 349 c 0,4,5
 46 433 46 433 72.5 500.5 c 128,-1,6
 99 568 99 568 149 616.5 c 128,-1,7
 199 665 199 665 271.5 690.5 c 128,-1,8
 344 716 344 716 436 716 c 0,9,10
 486 716 486 716 538 706.5 c 128,-1,11
 590 697 590 697 640 671 c 0,12,13
 666 659 666 659 675.5 637.5 c 128,-1,14
 685 616 685 616 681.5 592.5 c 128,-1,15
 678 569 678 569 664.5 549.5 c 128,-1,16
 651 530 651 530 628 523.5 c 128,-1,17
 605 517 605 517 576 530 c 0,18,19
 546 544 546 544 511 551.5 c 128,-1,20
 476 559 476 559 437 559 c 0,21,22
 370 559 370 559 325.5 535 c 128,-1,23
 281 511 281 511 259 464 c 128,-1,24
 237 417 237 417 237 349 c 0,25,26
 237 247 237 247 287 195 c 128,-1,27
 337 143 337 143 435 143 c 0,28,29
 465 143 465 143 500.5 149 c 128,-1,30
 536 155 536 155 572 166 c 1,31,-1
 538 97 l 1,32,-1
 538 268 l 1,33,-1
 468 268 l 2,34,35
 434 268 434 268 415.5 285 c 128,-1,36
 397 302 397 302 397 333 c 256,37,38
 397 364 397 364 415.5 380.5 c 128,-1,39
 434 397 434 397 468 397 c 2,40,-1
 616 397 l 2,41,42
 651 397 651 397 669.5 378.5 c 128,-1,43
 688 360 688 360 688 325 c 2,44,-1
 688 104 l 2,45,46
 688 74 688 74 675.5 53 c 128,-1,47
 663 32 663 32 636 23 c 0,48,49
 589 7 589 7 534 -2 c 128,-1,50
 479 -11 479 -11 424 -11 c 0,0,1
EndSplineSet
EndChar

StartChar: H
Encoding: 72 72 81
Width: 786
GlyphClass: 2
Flags: W
AnchorPoint: "Anchor-5" 393 570 basechar 0
AnchorPoint: "Anchor-2" 393 0 basechar 0
AnchorPoint: "Anchor-0" 393 705 basechar 0
LayerCount: 2
Fore
SplineSet
156 -9 m 0,0,1
 112 -9 112 -9 88 15.5 c 128,-1,2
 64 40 64 40 64 85 c 2,3,-1
 64 620 l 2,4,5
 64 666 64 666 88 690 c 128,-1,6
 112 714 112 714 156 714 c 0,7,8
 201 714 201 714 224.5 690 c 128,-1,9
 248 666 248 666 248 620 c 2,10,-1
 248 433 l 1,11,-1
 539 433 l 1,12,-1
 539 620 l 2,13,14
 539 666 539 666 562.5 690 c 128,-1,15
 586 714 586 714 631 714 c 0,16,17
 675 714 675 714 698.5 690 c 128,-1,18
 722 666 722 666 722 620 c 2,19,-1
 722 85 l 2,20,21
 722 40 722 40 698.5 15.5 c 128,-1,22
 675 -9 675 -9 631 -9 c 0,23,24
 586 -9 586 -9 562.5 15.5 c 128,-1,25
 539 40 539 40 539 85 c 2,26,-1
 539 282 l 1,27,-1
 248 282 l 1,28,-1
 248 85 l 2,29,30
 248 40 248 40 225 15.5 c 128,-1,31
 202 -9 202 -9 156 -9 c 0,0,1
EndSplineSet
EndChar

StartChar: Hbar
Encoding: 294 294 82
Width: 841
GlyphClass: 1
Flags: W
LayerCount: 2
Fore
SplineSet
184 -9 m 256,0,1
 139 -9 139 -9 115 15.5 c 128,-1,2
 91 40 91 40 91 85 c 2,3,-1
 91 519 l 1,4,-1
 148 501 l 1,5,-1
 70 501 l 2,6,7
 4 501 4 501 4 566 c 0,8,9
 4 597 4 597 21 614 c 128,-1,10
 38 631 38 631 70 631 c 2,11,-1
 123 631 l 1,12,-1
 91 573 l 1,13,-1
 91 620 l 2,14,15
 91 666 91 666 115 690 c 128,-1,16
 139 714 139 714 184 714 c 0,17,18
 228 714 228 714 251.5 690 c 128,-1,19
 275 666 275 666 275 620 c 2,20,-1
 275 573 l 1,21,-1
 252 631 l 1,22,-1
 589 631 l 1,23,-1
 566 573 l 1,24,-1
 566 620 l 2,25,26
 566 666 566 666 590 690 c 128,-1,27
 614 714 614 714 658 714 c 0,28,29
 703 714 703 714 726.5 690 c 128,-1,30
 750 666 750 666 750 620 c 2,31,-1
 750 573 l 1,32,-1
 710 631 l 1,33,-1
 771 631 l 2,34,35
 837 631 837 631 837 566 c 0,36,37
 837 535 837 535 820 518 c 128,-1,38
 803 501 803 501 771 501 c 2,39,-1
 685 501 l 1,40,-1
 750 524 l 1,41,-1
 750 85 l 2,42,43
 750 40 750 40 726.5 15.5 c 128,-1,44
 703 -9 703 -9 658 -9 c 0,45,46
 614 -9 614 -9 590 15.5 c 128,-1,47
 566 40 566 40 566 85 c 2,48,-1
 566 265 l 1,49,-1
 275 265 l 1,50,-1
 275 85 l 2,51,52
 275 40 275 40 252 15.5 c 128,-1,53
 229 -9 229 -9 184 -9 c 256,0,1
275 416 m 1,54,-1
 566 416 l 1,55,-1
 566 501 l 1,56,-1
 275 501 l 1,57,-1
 275 416 l 1,54,-1
EndSplineSet
EndChar

StartChar: I
Encoding: 73 73 86
Width: 312
GlyphClass: 2
Flags: W
AnchorPoint: "Anchor-3" 203 0 basechar 0
AnchorPoint: "Anchor-2" 156 0 basechar 0
AnchorPoint: "Anchor-0" 156 705 basechar 0
LayerCount: 2
Fore
SplineSet
156 -9 m 0,0,1
 112 -9 112 -9 88 15.5 c 128,-1,2
 64 40 64 40 64 85 c 2,3,-1
 64 620 l 2,4,5
 64 666 64 666 88 690 c 128,-1,6
 112 714 112 714 156 714 c 0,7,8
 201 714 201 714 224.5 690 c 128,-1,9
 248 666 248 666 248 620 c 2,10,-1
 248 85 l 2,11,12
 248 40 248 40 225 15.5 c 128,-1,13
 202 -9 202 -9 156 -9 c 0,0,1
EndSplineSet
EndChar

StartChar: Iogonek
Encoding: 302 302 100
Width: 312
GlyphClass: 1
Flags: W
LayerCount: 2
Fore
SplineSet
179 -198 m 0,0,1
 115 -198 115 -198 80 -168 c 128,-1,2
 45 -138 45 -138 45 -87 c 0,3,4
 45 -57 45 -57 59 -30.5 c 128,-1,5
 73 -4 73 -4 98 16 c 1,6,-1
 97 8 l 1,7,8
 81 20 81 20 72.5 39.5 c 128,-1,9
 64 59 64 59 64 85 c 2,10,-1
 64 620 l 2,11,12
 64 666 64 666 88 690 c 128,-1,13
 112 714 112 714 156 714 c 0,14,15
 201 714 201 714 224.5 690 c 128,-1,16
 248 666 248 666 248 620 c 2,17,-1
 248 85 l 2,18,19
 248 51 248 51 235 29.5 c 128,-1,20
 222 8 222 8 199 -2 c 0,21,22
 174 -12 174 -12 162 -30 c 128,-1,23
 150 -48 150 -48 150 -66 c 0,24,25
 150 -87 150 -87 165.5 -99 c 128,-1,26
 181 -111 181 -111 203 -111 c 0,27,28
 210 -111 210 -111 216.5 -110 c 128,-1,29
 223 -109 223 -109 230 -108 c 0,30,31
 253 -104 253 -104 266 -113.5 c 128,-1,32
 279 -123 279 -123 281 -138.5 c 128,-1,33
 283 -154 283 -154 274 -168.5 c 128,-1,34
 265 -183 265 -183 245 -190 c 0,35,36
 228 -195 228 -195 210.5 -196.5 c 128,-1,37
 193 -198 193 -198 179 -198 c 0,0,1
EndSplineSet
EndChar

StartChar: J
Encoding: 74 74 102
Width: 390
GlyphClass: 2
Flags: W
AnchorPoint: "Anchor-2" 234 0 basechar 0
AnchorPoint: "Anchor-0" 234 705 basechar 0
LayerCount: 2
Fore
SplineSet
68 -8 m 2,0,1
 28 -10 28 -10 6.5 12.5 c 128,-1,2
 -15 35 -15 35 -15 70 c 0,3,4
 -15 97 -15 97 0 117 c 128,-1,5
 15 137 15 137 45 139 c 2,6,-1
 73 141 l 2,7,8
 109 143 109 143 126 158.5 c 128,-1,9
 143 174 143 174 143 210 c 2,10,-1
 143 621 l 2,11,12
 143 667 143 667 167 690.5 c 128,-1,13
 191 714 191 714 235 714 c 256,14,15
 279 714 279 714 303 690.5 c 128,-1,16
 327 667 327 667 327 621 c 2,17,-1
 327 213 l 2,18,19
 327 144 327 144 302 96.5 c 128,-1,20
 277 49 277 49 227.5 23.5 c 128,-1,21
 178 -2 178 -2 104 -6 c 2,22,-1
 68 -8 l 2,0,1
EndSplineSet
EndChar

StartChar: K
Encoding: 75 75 104
Width: 712
GlyphClass: 2
Flags: W
AnchorPoint: "Anchor-2" 351 0 basechar 0
AnchorPoint: "Anchor-0" 351 705 basechar 0
LayerCount: 2
Fore
SplineSet
156 -9 m 0,0,1
 112 -9 112 -9 88 15.5 c 128,-1,2
 64 40 64 40 64 84 c 2,3,-1
 64 621 l 2,4,5
 64 667 64 667 88 690.5 c 128,-1,6
 112 714 112 714 156 714 c 0,7,8
 201 714 201 714 224.5 690.5 c 128,-1,9
 248 667 248 667 248 621 c 2,10,-1
 248 403 l 1,11,-1
 250 403 l 1,12,-1
 493 671 l 2,13,14
 512 691 512 691 533.5 702.5 c 128,-1,15
 555 714 555 714 582 714 c 0,16,17
 624 714 624 714 642.5 692.5 c 128,-1,18
 661 671 661 671 659.5 642.5 c 128,-1,19
 658 614 658 614 636 590 c 2,20,-1
 394 333 l 1,21,-1
 394 408 l 1,22,-1
 648 121 l 2,23,24
 674 92 674 92 674 61.5 c 128,-1,25
 674 31 674 31 653.5 11 c 128,-1,26
 633 -9 633 -9 593 -9 c 0,27,28
 559 -9 559 -9 538.5 4.5 c 128,-1,29
 518 18 518 18 494 45 c 2,30,-1
 250 318 l 1,31,-1
 248 318 l 1,32,-1
 248 84 l 2,33,34
 248 40 248 40 225 15.5 c 128,-1,35
 202 -9 202 -9 156 -9 c 0,0,1
EndSplineSet
EndChar

StartChar: L
Encoding: 76 76 106
Width: 585
GlyphClass: 2
Flags: W
AnchorPoint: "Anchor-5" 203 387 basechar 0
AnchorPoint: "Anchor-2" 313 0 basechar 0
AnchorPoint: "Anchor-1" 344 705 basechar 0
AnchorPoint: "Anchor-0" 156 705 basechar 0
LayerCount: 2
Fore
SplineSet
157 0 m 2,0,1
 113 0 113 0 88.5 24.5 c 128,-1,2
 64 49 64 49 64 93 c 2,3,-1
 64 613 l 2,4,5
 64 658 64 658 88 682 c 128,-1,6
 112 706 112 706 156 706 c 0,7,8
 201 706 201 706 224.5 682 c 128,-1,9
 248 658 248 658 248 613 c 2,10,-1
 248 153 l 1,11,-1
 492 153 l 2,12,13
 530 153 530 153 550.5 133.5 c 128,-1,14
 571 114 571 114 571 77 c 256,15,16
 571 40 571 40 550.5 20 c 128,-1,17
 530 0 530 0 492 0 c 2,18,-1
 157 0 l 2,0,1
EndSplineSet
EndChar

StartChar: M
Encoding: 77 77 116
Width: 884
GlyphClass: 2
Flags: W
AnchorPoint: "Anchor-2" 443 0 basechar 0
AnchorPoint: "Anchor-0" 443 705 basechar 0
LayerCount: 2
Fore
SplineSet
149 -9 m 0,0,1
 109 -9 109 -9 87.5 13 c 128,-1,2
 66 35 66 35 66 75 c 2,3,-1
 66 630 l 2,4,5
 66 671 66 671 89 692.5 c 128,-1,6
 112 714 112 714 154 714 c 0,7,8
 189 714 189 714 209.5 700.5 c 128,-1,9
 230 687 230 687 247 656 c 2,10,-1
 462 270 l 1,11,-1
 427 270 l 1,12,-1
 641 656 l 2,13,14
 659 687 659 687 679.5 700.5 c 128,-1,15
 700 714 700 714 735 714 c 0,16,17
 775 714 775 714 796.5 692.5 c 128,-1,18
 818 671 818 671 818 630 c 2,19,-1
 818 75 l 2,20,21
 818 35 818 35 797 13 c 128,-1,22
 776 -9 776 -9 735 -9 c 0,23,24
 695 -9 695 -9 673.5 13 c 128,-1,25
 652 35 652 35 652 75 c 2,26,-1
 652 419 l 1,27,-1
 673 419 l 1,28,-1
 512 139 l 2,29,30
 498 117 498 117 482.5 106 c 128,-1,31
 467 95 467 95 441 95 c 0,32,33
 416 95 416 95 400 106 c 128,-1,34
 384 117 384 117 371 139 c 2,35,-1
 209 420 l 1,36,-1
 232 420 l 1,37,-1
 232 75 l 2,38,39
 232 35 232 35 211 13 c 128,-1,40
 190 -9 190 -9 149 -9 c 0,0,1
EndSplineSet
EndChar

StartChar: N
Encoding: 78 78 118
Width: 758
GlyphClass: 2
Flags: W
AnchorPoint: "Anchor-2" 379 0 basechar 0
AnchorPoint: "Anchor-0" 378 705 basechar 0
LayerCount: 2
Fore
SplineSet
150 -9 m 256,0,1
 108 -9 108 -9 86 13 c 128,-1,2
 64 35 64 35 64 78 c 2,3,-1
 64 623 l 2,4,5
 64 667 64 667 86 690.5 c 128,-1,6
 108 714 108 714 144 714 c 0,7,8
 176 714 176 714 194 702 c 128,-1,9
 212 690 212 690 234 662 c 2,10,-1
 551 266 l 1,11,-1
 523 266 l 1,12,-1
 523 628 l 2,13,14
 523 670 523 670 544.5 692 c 128,-1,15
 566 714 566 714 608 714 c 256,16,17
 650 714 650 714 671.5 692 c 128,-1,18
 693 670 693 670 693 628 c 2,19,-1
 693 74 l 2,20,21
 693 36 693 36 673 13.5 c 128,-1,22
 653 -9 653 -9 619 -9 c 256,23,24
 585 -9 585 -9 565.5 3.5 c 128,-1,25
 546 16 546 16 524 43 c 2,26,-1
 207 440 l 1,27,-1
 235 440 l 1,28,-1
 235 78 l 2,29,30
 235 35 235 35 213.5 13 c 128,-1,31
 192 -9 192 -9 150 -9 c 256,0,1
EndSplineSet
EndChar

StartChar: Eng
Encoding: 330 330 128
Width: 758
GlyphClass: 2
Flags: W
AnchorPoint: "Anchor-2" 379 0 basechar 0
AnchorPoint: "Anchor-0" 378 705 basechar 0
LayerCount: 2
Fore
SplineSet
481 -187 m 0,0,1
 450 -188 450 -188 431.5 -176 c 128,-1,2
 413 -164 413 -164 406.5 -146 c 128,-1,3
 400 -128 400 -128 403 -109.5 c 128,-1,4
 406 -91 406 -91 419.5 -77.5 c 128,-1,5
 433 -64 433 -64 453 -62 c 0,6,7
 486 -59 486 -59 504.5 -44 c 128,-1,8
 523 -29 523 -29 523 3 c 2,9,-1
 523 67 l 1,10,-1
 559 0 l 1,11,-1
 207 440 l 1,12,-1
 235 440 l 1,13,-1
 235 78 l 2,14,15
 235 35 235 35 213.5 13 c 128,-1,16
 192 -9 192 -9 150 -9 c 256,17,18
 108 -9 108 -9 86 13 c 128,-1,19
 64 35 64 35 64 78 c 2,20,-1
 64 623 l 2,21,22
 64 667 64 667 86 690.5 c 128,-1,23
 108 714 108 714 144 714 c 0,24,25
 176 714 176 714 194 702 c 128,-1,26
 212 690 212 690 234 662 c 2,27,-1
 551 266 l 1,28,-1
 523 266 l 1,29,-1
 523 628 l 2,30,31
 523 670 523 670 544.5 692 c 128,-1,32
 566 714 566 714 608 714 c 256,33,34
 650 714 650 714 671.5 692 c 128,-1,35
 693 670 693 670 693 628 c 2,36,-1
 693 28 l 2,37,38
 693 -85 693 -85 641 -135 c 128,-1,39
 589 -185 589 -185 481 -187 c 0,0,1
EndSplineSet
EndChar

StartChar: O
Encoding: 79 79 129
Width: 807
GlyphClass: 2
Flags: W
AnchorPoint: "Anchor-5" 403 353 basechar 0
AnchorPoint: "Anchor-3" 465 0 basechar 0
AnchorPoint: "Anchor-2" 403 0 basechar 0
AnchorPoint: "Anchor-1" 469 705 basechar 0
AnchorPoint: "Anchor-0" 402 705 basechar 0
LayerCount: 2
Fore
SplineSet
404 -11 m 0,0,1
 297 -11 297 -11 216 34.5 c 128,-1,2
 135 80 135 80 90.5 162 c 128,-1,3
 46 244 46 244 46 353 c 0,4,5
 46 435 46 435 71.5 502 c 128,-1,6
 97 569 97 569 144.5 617 c 128,-1,7
 192 665 192 665 258 690.5 c 128,-1,8
 324 716 324 716 404 716 c 0,9,10
 511 716 511 716 591.5 671 c 128,-1,11
 672 626 672 626 717 544.5 c 128,-1,12
 762 463 762 463 762 353 c 0,13,14
 762 271 762 271 736.5 204 c 128,-1,15
 711 137 711 137 663.5 88.5 c 128,-1,16
 616 40 616 40 550 14.5 c 128,-1,17
 484 -11 484 -11 404 -11 c 0,0,1
404 143 m 0,18,19
 457 143 457 143 494 168 c 128,-1,20
 531 193 531 193 551 240 c 128,-1,21
 571 287 571 287 571 353 c 0,22,23
 571 452 571 452 527 507 c 128,-1,24
 483 562 483 562 404 562 c 0,25,26
 352 562 352 562 314.5 537.5 c 128,-1,27
 277 513 277 513 257 466.5 c 128,-1,28
 237 420 237 420 237 353 c 0,29,30
 237 254 237 254 281 198.5 c 128,-1,31
 325 143 325 143 404 143 c 0,18,19
EndSplineSet
Substitution2: "Single Substitution lookup 29 subtable" ordmasculine
Substitution2: "'aalt' Access All Alternates lookup 0 subtable" ordmasculine
EndChar

StartChar: OE
Encoding: 338 338 163
Width: 1067
GlyphClass: 2
Flags: W
AnchorPoint: "Anchor-2" 606 0 basechar 0
AnchorPoint: "Anchor-0" 606 705 basechar 0
LayerCount: 2
Fore
SplineSet
431 0 m 2,0,1
 248 0 248 0 147 92.5 c 128,-1,2
 46 185 46 185 46 353 c 0,3,4
 46 437 46 437 71.5 502.5 c 128,-1,5
 97 568 97 568 146.5 613 c 128,-1,6
 196 658 196 658 267.5 681.5 c 128,-1,7
 339 705 339 705 431 705 c 2,8,-1
 953 705 l 2,9,10
 988 705 988 705 1006 687 c 128,-1,11
 1024 669 1024 669 1024 635 c 0,12,13
 1024 600 1024 600 1006 581.5 c 128,-1,14
 988 563 988 563 953 563 c 2,15,-1
 693 563 l 1,16,-1
 693 429 l 1,17,-1
 930 429 l 2,18,19
 966 429 966 429 984 411 c 128,-1,20
 1002 393 1002 393 1002 358 c 256,21,22
 1002 323 1002 323 984 305 c 128,-1,23
 966 287 966 287 930 287 c 2,24,-1
 693 287 l 1,25,-1
 693 142 l 1,26,-1
 953 142 l 2,27,28
 988 142 988 142 1006 123.5 c 128,-1,29
 1024 105 1024 105 1024 71 c 0,30,31
 1024 36 1024 36 1006 18 c 128,-1,32
 988 0 988 0 953 0 c 2,33,-1
 431 0 l 2,0,1
442 149 m 2,34,-1
 517 149 l 1,35,-1
 517 556 l 1,36,-1
 442 556 l 2,37,38
 390 556 390 556 351.5 543.5 c 128,-1,39
 313 531 313 531 287.5 506 c 128,-1,40
 262 481 262 481 249.5 443 c 128,-1,41
 237 405 237 405 237 353 c 0,42,43
 237 250 237 250 287.5 199.5 c 128,-1,44
 338 149 338 149 442 149 c 2,34,-1
EndSplineSet
EndChar

StartChar: P
Encoding: 80 80 164
Width: 676
GlyphClass: 2
Flags: W
AnchorPoint: "Anchor-2" 342 0 basechar 0
AnchorPoint: "Anchor-0" 342 705 basechar 0
LayerCount: 2
Fore
SplineSet
156 -9 m 0,0,1
 112 -9 112 -9 88 15.5 c 128,-1,2
 64 40 64 40 64 84 c 2,3,-1
 64 612 l 2,4,5
 64 657 64 657 88.5 681 c 128,-1,6
 113 705 113 705 157 705 c 2,7,-1
 403 705 l 2,8,9
 523 705 523 705 588.5 643.5 c 128,-1,10
 654 582 654 582 654 474 c 256,11,12
 654 366 654 366 588.5 304.5 c 128,-1,13
 523 243 523 243 403 243 c 2,14,-1
 248 243 l 1,15,-1
 248 84 l 2,16,17
 248 40 248 40 225 15.5 c 128,-1,18
 202 -9 202 -9 156 -9 c 0,0,1
248 384 m 1,19,-1
 371 384 l 2,20,21
 423 384 423 384 451 406.5 c 128,-1,22
 479 429 479 429 479 474 c 0,23,24
 479 520 479 520 451 542 c 128,-1,25
 423 564 423 564 371 564 c 2,26,-1
 248 564 l 1,27,-1
 248 384 l 1,19,-1
EndSplineSet
EndChar

StartChar: Thorn
Encoding: 222 222 165
Width: 679
GlyphClass: 2
Flags: W
AnchorPoint: "Anchor-2" 345 0 basechar 0
AnchorPoint: "Anchor-0" 345 705 basechar 0
LayerCount: 2
Fore
SplineSet
156 -1 m 0,0,1
 112 -1 112 -1 88 23.5 c 128,-1,2
 64 48 64 48 64 92 c 2,3,-1
 64 613 l 2,4,5
 64 658 64 658 89.5 682 c 128,-1,6
 115 706 115 706 159 706 c 0,7,8
 202 706 202 706 225 683.5 c 128,-1,9
 248 661 248 661 248 625 c 2,10,-1
 248 598 l 1,11,-1
 407 598 l 2,12,13
 527 598 527 598 592 536.5 c 128,-1,14
 657 475 657 475 657 368 c 0,15,16
 657 260 657 260 592 198 c 128,-1,17
 527 136 527 136 407 136 c 2,18,-1
 248 136 l 1,19,-1
 248 92 l 2,20,21
 248 48 248 48 225 23.5 c 128,-1,22
 202 -1 202 -1 156 -1 c 0,0,1
248 278 m 1,23,-1
 374 278 l 2,24,25
 427 278 427 278 454.5 300.5 c 128,-1,26
 482 323 482 323 482 368 c 256,27,28
 482 413 482 413 454.5 435 c 128,-1,29
 427 457 427 457 374 457 c 2,30,-1
 248 457 l 1,31,-1
 248 278 l 1,23,-1
EndSplineSet
EndChar

StartChar: Q
Encoding: 81 81 166
Width: 807
GlyphClass: 2
Flags: W
AnchorPoint: "Anchor-5" 403 353 basechar 0
AnchorPoint: "Anchor-3" 465 0 basechar 0
AnchorPoint: "Anchor-2" 377 0 basechar 0
AnchorPoint: "Anchor-1" 469 705 basechar 0
AnchorPoint: "Anchor-0" 377 705 basechar 0
LayerCount: 2
Fore
SplineSet
706 -89 m 2,0,1
 724 -119 724 -119 719 -143.5 c 128,-1,2
 714 -168 714 -168 694.5 -185 c 128,-1,3
 675 -202 675 -202 648.5 -207 c 128,-1,4
 622 -212 622 -212 596 -202 c 128,-1,5
 570 -192 570 -192 553 -164 c 2,6,-1
 479 -45 l 2,7,8
 468 -27 468 -27 450 -19 c 128,-1,9
 432 -11 432 -11 403 -11 c 1,10,-1
 540 40 l 1,11,12
 585 40 585 40 616 23.5 c 128,-1,13
 647 7 647 7 669 -30 c 2,14,-1
 706 -89 l 2,0,1
404 -11 m 0,15,16
 297 -11 297 -11 216 34.5 c 128,-1,17
 135 80 135 80 90.5 162 c 128,-1,18
 46 244 46 244 46 353 c 0,19,20
 46 435 46 435 71.5 502 c 128,-1,21
 97 569 97 569 144.5 617 c 128,-1,22
 192 665 192 665 258 690.5 c 128,-1,23
 324 716 324 716 404 716 c 0,24,25
 511 716 511 716 591.5 671 c 128,-1,26
 672 626 672 626 717 544.5 c 128,-1,27
 762 463 762 463 762 353 c 0,28,29
 762 271 762 271 736.5 204 c 128,-1,30
 711 137 711 137 663.5 88.5 c 128,-1,31
 616 40 616 40 550 14.5 c 128,-1,32
 484 -11 484 -11 404 -11 c 0,15,16
404 143 m 0,33,34
 457 143 457 143 494 168 c 128,-1,35
 531 193 531 193 551 240 c 128,-1,36
 571 287 571 287 571 353 c 0,37,38
 571 452 571 452 527 507 c 128,-1,39
 483 562 483 562 404 562 c 0,40,41
 352 562 352 562 314.5 537.5 c 128,-1,42
 277 513 277 513 257 466.5 c 128,-1,43
 237 420 237 420 237 353 c 0,44,45
 237 254 237 254 281 198.5 c 128,-1,46
 325 143 325 143 404 143 c 0,33,34
EndSplineSet
EndChar

StartChar: R
Encoding: 82 82 167
Width: 706
GlyphClass: 2
Flags: W
AnchorPoint: "Anchor-2" 358 0 basechar 0
AnchorPoint: "Anchor-0" 357 705 basechar 0
LayerCount: 2
Fore
SplineSet
156 -9 m 0,0,1
 112 -9 112 -9 88 15.5 c 128,-1,2
 64 40 64 40 64 84 c 2,3,-1
 64 612 l 2,4,5
 64 657 64 657 88.5 681 c 128,-1,6
 113 705 113 705 157 705 c 2,7,-1
 403 705 l 2,8,9
 523 705 523 705 588.5 646.5 c 128,-1,10
 654 588 654 588 654 484 c 0,11,12
 654 417 654 417 624.5 367.5 c 128,-1,13
 595 318 595 318 539.5 291.5 c 128,-1,14
 484 265 484 265 403 265 c 1,15,-1
 411 283 l 1,16,-1
 459 283 l 2,17,18
 502 283 502 283 535 262.5 c 128,-1,19
 568 242 568 242 590 200 c 2,20,-1
 640 110 l 2,21,22
 656 81 656 81 655 53.5 c 128,-1,23
 654 26 654 26 633.5 8.5 c 128,-1,24
 613 -9 613 -9 574 -9 c 256,25,26
 535 -9 535 -9 510.5 7 c 128,-1,27
 486 23 486 23 467 57 c 2,28,-1
 376 224 l 2,29,30
 364 246 364 246 345.5 254.5 c 128,-1,31
 327 263 327 263 303 263 c 2,32,-1
 248 263 l 1,33,-1
 248 84 l 2,34,35
 248 40 248 40 225 15.5 c 128,-1,36
 202 -9 202 -9 156 -9 c 0,0,1
248 393 m 1,37,-1
 370 393 l 2,38,39
 423 393 423 393 451 414 c 128,-1,40
 479 435 479 435 479 479 c 0,41,42
 479 521 479 521 451 542.5 c 128,-1,43
 423 564 423 564 370 564 c 2,44,-1
 248 564 l 1,45,-1
 248 393 l 1,37,-1
EndSplineSet
EndChar

StartChar: S
Encoding: 83 83 175
Width: 651
GlyphClass: 2
Flags: W
AnchorPoint: "Anchor-2" 331 0 basechar 0
AnchorPoint: "Anchor-0" 338 705 basechar 0
LayerCount: 2
Fore
SplineSet
326 -11 m 0,0,1
 286 -11 286 -11 242.5 -5.5 c 128,-1,2
 199 0 199 0 160 11 c 128,-1,3
 121 22 121 22 90 37 c 0,4,5
 63 50 63 50 52 71.5 c 128,-1,6
 41 93 41 93 44 117 c 128,-1,7
 47 141 47 141 61 159.5 c 128,-1,8
 75 178 75 178 98 184.5 c 128,-1,9
 121 191 121 191 150 178 c 0,10,11
 188 160 188 160 236 150 c 128,-1,12
 284 140 284 140 326 140 c 0,13,14
 392 140 392 140 418.5 157.5 c 128,-1,15
 445 175 445 175 445 201 c 0,16,17
 445 224 445 224 426.5 238 c 128,-1,18
 408 252 408 252 361 262 c 2,19,-1
 244 287 l 2,20,21
 148 307 148 307 101 357 c 128,-1,22
 54 407 54 407 54 486 c 0,23,24
 54 538 54 538 75.5 580.5 c 128,-1,25
 97 623 97 623 136.5 653 c 128,-1,26
 176 683 176 683 230.5 699.5 c 128,-1,27
 285 716 285 716 352 716 c 0,28,29
 404 716 404 716 457.5 704.5 c 128,-1,30
 511 693 511 693 550 670 c 0,31,32
 573 658 573 658 583 637 c 128,-1,33
 593 616 593 616 591 593.5 c 128,-1,34
 589 571 589 571 575.5 554 c 128,-1,35
 562 537 562 537 539.5 531.5 c 128,-1,36
 517 526 517 526 486 539 c 0,37,38
 457 552 457 552 420.5 558.5 c 128,-1,39
 384 565 384 565 350 565 c 0,40,41
 313 565 313 565 287 556.5 c 128,-1,42
 261 548 261 548 247.5 532 c 128,-1,43
 234 516 234 516 234 495 c 256,44,45
 234 474 234 474 251.5 459.5 c 128,-1,46
 269 445 269 445 316 435 c 2,47,-1
 432 410 l 2,48,49
 529 389 529 389 577 341 c 128,-1,50
 625 293 625 293 625 216 c 0,51,52
 625 164 625 164 604 122 c 128,-1,53
 583 80 583 80 544 50.5 c 128,-1,54
 505 21 505 21 450 5 c 128,-1,55
 395 -11 395 -11 326 -11 c 0,0,1
EndSplineSet
EndChar

StartChar: uni1E9E
Encoding: 7838 7838 186
Width: 752
GlyphClass: 1
Flags: W
LayerCount: 2
Fore
SplineSet
476 -11 m 0,0,1
 435 -11 435 -11 399.5 -4 c 128,-1,2
 364 3 364 3 338 15 c 0,3,4
 312 26 312 26 301 46 c 128,-1,5
 290 66 290 66 291.5 88 c 128,-1,6
 293 110 293 110 303.5 128 c 128,-1,7
 314 146 314 146 332 153 c 128,-1,8
 350 160 350 160 373 151 c 0,9,10
 394 140 394 140 414.5 136 c 128,-1,11
 435 132 435 132 455 132 c 0,12,13
 494 132 494 132 515.5 152.5 c 128,-1,14
 537 173 537 173 537 207 c 0,15,16
 537 246 537 246 510 264.5 c 128,-1,17
 483 283 483 283 427 283 c 2,18,-1
 392 283 l 2,19,20
 363 283 363 283 343 300.5 c 128,-1,21
 323 318 323 318 323 353 c 256,22,23
 323 388 323 388 340.5 405 c 128,-1,24
 358 422 358 422 383 422 c 2,25,-1
 412 422 l 2,26,27
 453 422 453 422 476.5 441 c 128,-1,28
 500 460 500 460 500 496 c 0,29,30
 500 533 500 533 472.5 552 c 128,-1,31
 445 571 445 571 389 571 c 0,32,33
 318 571 318 571 283 538 c 128,-1,34
 248 505 248 505 248 437 c 2,35,-1
 248 84 l 2,36,37
 248 40 248 40 224.5 15.5 c 128,-1,38
 201 -9 201 -9 156 -9 c 0,39,40
 112 -9 112 -9 88 15.5 c 128,-1,41
 64 40 64 40 64 84 c 2,42,-1
 64 437 l 2,43,44
 64 529 64 529 103 590.5 c 128,-1,45
 142 652 142 652 217 684 c 128,-1,46
 292 716 292 716 401 716 c 0,47,48
 485 716 485 716 546.5 692 c 128,-1,49
 608 668 608 668 641.5 625 c 128,-1,50
 675 582 675 582 675 522 c 0,51,52
 675 463 675 463 643 419 c 128,-1,53
 611 375 611 375 552 354 c 1,54,-1
 552 374 l 1,55,56
 600 369 600 369 636 345 c 128,-1,57
 672 321 672 321 691.5 282 c 128,-1,58
 711 243 711 243 711 194 c 0,59,60
 711 130 711 130 683 84 c 128,-1,61
 655 38 655 38 602.5 13.5 c 128,-1,62
 550 -11 550 -11 476 -11 c 0,0,1
EndSplineSet
EndChar

StartChar: T
Encoding: 84 84 187
Width: 644
GlyphClass: 2
Flags: W
AnchorPoint: "Anchor-5" 322 358 basechar 0
AnchorPoint: "Anchor-2" 322 0 basechar 0
AnchorPoint: "Anchor-0" 322 705 basechar 0
LayerCount: 2
Fore
SplineSet
322 -9 m 0,0,1
 278 -9 278 -9 254 15.5 c 128,-1,2
 230 40 230 40 230 84 c 2,3,-1
 230 555 l 1,4,-1
 73 555 l 2,5,6
 36 555 36 555 16.5 574.5 c 128,-1,7
 -3 594 -3 594 -3 630 c 0,8,9
 -3 667 -3 667 16.5 686 c 128,-1,10
 36 705 36 705 73 705 c 2,11,-1
 571 705 l 2,12,13
 608 705 608 705 627.5 686 c 128,-1,14
 647 667 647 667 647 630 c 0,15,16
 647 594 647 594 627.5 574.5 c 128,-1,17
 608 555 608 555 571 555 c 2,18,-1
 414 555 l 1,19,-1
 414 84 l 2,20,21
 414 40 414 40 391 15.5 c 128,-1,22
 368 -9 368 -9 322 -9 c 0,0,1
EndSplineSet
EndChar

StartChar: U
Encoding: 85 85 194
Width: 748
GlyphClass: 2
Flags: W
AnchorPoint: "Anchor-3" 433 0 basechar 0
AnchorPoint: "Anchor-2" 376 0 basechar 0
AnchorPoint: "Anchor-1" 563 705 basechar 0
AnchorPoint: "Anchor-0" 376 705 basechar 0
LayerCount: 2
Fore
SplineSet
376 -11 m 0,0,1
 299 -11 299 -11 240 8.5 c 128,-1,2
 181 28 181 28 140.5 67 c 128,-1,3
 100 106 100 106 79.5 164.5 c 128,-1,4
 59 223 59 223 59 300 c 2,5,-1
 59 621 l 2,6,7
 59 667 59 667 83 690.5 c 128,-1,8
 107 714 107 714 151 714 c 0,9,10
 196 714 196 714 219.5 690.5 c 128,-1,11
 243 667 243 667 243 621 c 2,12,-1
 243 298 l 2,13,14
 243 221 243 221 277 182 c 128,-1,15
 311 143 311 143 376 143 c 0,16,17
 440 143 440 143 474 182 c 128,-1,18
 508 221 508 221 508 298 c 2,19,-1
 508 621 l 2,20,21
 508 667 508 667 531.5 690.5 c 128,-1,22
 555 714 555 714 599 714 c 256,23,24
 643 714 643 714 666 690.5 c 128,-1,25
 689 667 689 667 689 621 c 2,26,-1
 689 300 l 2,27,28
 689 197 689 197 653.5 127.5 c 128,-1,29
 618 58 618 58 548 23.5 c 128,-1,30
 478 -11 478 -11 376 -11 c 0,0,1
EndSplineSet
EndChar

StartChar: V
Encoding: 86 86 217
Width: 742
GlyphClass: 2
Flags: W
AnchorPoint: "Anchor-2" 372 0 basechar 0
AnchorPoint: "Anchor-0" 371 705 basechar 0
LayerCount: 2
Fore
SplineSet
372 -9 m 256,0,1
 334 -9 334 -9 310.5 7 c 128,-1,2
 287 23 287 23 271 58 c 2,3,-1
 29 592 l 2,4,5
 13 627 13 627 19 655 c 128,-1,6
 25 683 25 683 47 698.5 c 128,-1,7
 69 714 69 714 102 714 c 0,8,9
 143 714 143 714 163.5 696 c 128,-1,10
 184 678 184 678 199 643 c 2,11,-1
 403 171 l 1,12,-1
 347 171 l 1,13,-1
 551 644 l 2,14,15
 566 679 566 679 587 696.5 c 128,-1,16
 608 714 608 714 646 714 c 0,17,18
 677 714 677 714 698 698.5 c 128,-1,19
 719 683 719 683 724.5 655 c 128,-1,20
 730 627 730 627 714 592 c 2,21,-1
 471 58 l 2,22,23
 456 23 456 23 433 7 c 128,-1,24
 410 -9 410 -9 372 -9 c 256,0,1
EndSplineSet
EndChar

StartChar: W
Encoding: 87 87 218
Width: 1128
GlyphClass: 2
Flags: W
AnchorPoint: "Anchor-2" 564 0 basechar 0
AnchorPoint: "Anchor-0" 565 705 basechar 0
LayerCount: 2
Fore
SplineSet
338 -9 m 0,0,1
 301 -9 301 -9 278 8.5 c 128,-1,2
 255 26 255 26 242 63 c 2,3,-1
 47 606 l 2,4,5
 31 651 31 651 52.5 682.5 c 128,-1,6
 74 714 74 714 129 714 c 0,7,8
 166 714 166 714 187 696.5 c 128,-1,9
 208 679 208 679 220 642 c 2,10,-1
 369 195 l 1,11,-1
 322 195 l 1,12,-1
 482 642 l 2,13,14
 496 679 496 679 517 696.5 c 128,-1,15
 538 714 538 714 571 714 c 256,16,17
 604 714 604 714 624 696.5 c 128,-1,18
 644 679 644 679 657 641 c 2,19,-1
 807 195 l 1,20,-1
 767 195 l 1,21,-1
 920 642 l 2,22,23
 932 679 932 679 952.5 696.5 c 128,-1,24
 973 714 973 714 1010 714 c 0,25,26
 1056 714 1056 714 1077.5 682.5 c 128,-1,27
 1099 651 1099 651 1082 606 c 2,28,-1
 885 62 l 2,29,30
 872 26 872 26 849.5 8.5 c 128,-1,31
 827 -9 827 -9 790 -9 c 0,32,33
 752 -9 752 -9 729.5 8.5 c 128,-1,34
 707 26 707 26 694 63 c 2,35,-1
 553 459 l 1,36,-1
 578 459 l 1,37,-1
 434 62 l 2,38,39
 420 26 420 26 398 8.5 c 128,-1,40
 376 -9 376 -9 338 -9 c 0,0,1
EndSplineSet
EndChar

StartChar: X
Encoding: 88 88 223
Width: 698
GlyphClass: 2
Flags: W
AnchorPoint: "Anchor-2" 350 0 basechar 0
AnchorPoint: "Anchor-0" 349 705 basechar 0
LayerCount: 2
Fore
SplineSet
129 -9 m 0,0,1
 94 -9 94 -9 71 10 c 128,-1,2
 48 29 48 29 44.5 58 c 128,-1,3
 41 87 41 87 64 117 c 2,4,-1
 276 397 l 1,5,-1
 276 314 l 1,6,-1
 70 587 l 2,7,8
 47 618 47 618 50.5 647 c 128,-1,9
 54 676 54 676 77 695 c 128,-1,10
 100 714 100 714 135 714 c 0,11,12
 164 714 164 714 186 700 c 128,-1,13
 208 686 208 686 230 655 c 2,14,-1
 379 448 l 1,15,-1
 319 448 l 1,16,-1
 469 655 l 2,17,18
 491 687 491 687 513 700.5 c 128,-1,19
 535 714 535 714 564 714 c 0,20,21
 600 714 600 714 623 695.5 c 128,-1,22
 646 677 646 677 649.5 648 c 128,-1,23
 653 619 653 619 629 587 c 2,24,-1
 422 314 l 1,25,-1
 422 397 l 1,26,-1
 634 117 l 2,27,28
 658 87 658 87 654.5 58 c 128,-1,29
 651 29 651 29 628 10 c 128,-1,30
 605 -9 605 -9 569 -9 c 0,31,32
 541 -9 541 -9 519 4.5 c 128,-1,33
 497 18 497 18 474 50 c 2,34,-1
 320 263 l 1,35,-1
 378 263 l 1,36,-1
 225 50 l 2,37,38
 202 18 202 18 180 4.5 c 128,-1,39
 158 -9 158 -9 129 -9 c 0,0,1
EndSplineSet
EndChar

StartChar: Y
Encoding: 89 89 224
Width: 645
GlyphClass: 2
Flags: W
AnchorPoint: "Anchor-2" 323 0 basechar 0
AnchorPoint: "Anchor-0" 322 705 basechar 0
LayerCount: 2
Fore
SplineSet
322 -9 m 0,0,1
 278 -9 278 -9 254 15.5 c 128,-1,2
 230 40 230 40 230 86 c 2,3,-1
 230 360 l 1,4,-1
 268 259 l 1,5,-1
 38 590 l 2,6,7
 21 614 21 614 23.5 643.5 c 128,-1,8
 26 673 26 673 47.5 693.5 c 128,-1,9
 69 714 69 714 109 714 c 0,10,11
 137 714 137 714 160 700.5 c 128,-1,12
 183 687 183 687 203 655 c 2,13,-1
 343 449 l 1,14,-1
 307 449 l 1,15,-1
 447 656 l 2,16,17
 468 688 468 688 490 701 c 128,-1,18
 512 714 512 714 542 714 c 0,19,20
 580 714 580 714 601 695 c 128,-1,21
 622 676 622 676 623.5 647 c 128,-1,22
 625 618 625 618 605 588 c 2,23,-1
 377 259 l 1,24,-1
 414 360 l 1,25,-1
 414 86 l 2,26,27
 414 -9 414 -9 322 -9 c 0,0,1
EndSplineSet
EndChar

StartChar: uni01B3
Encoding: 435 435 231
Width: 671
GlyphClass: 1
Flags: W
LayerCount: 2
Fore
SplineSet
322 -9 m 0,0,1
 278 -9 278 -9 254 15.5 c 128,-1,2
 230 40 230 40 230 86 c 2,3,-1
 230 360 l 1,4,-1
 268 259 l 1,5,-1
 38 590 l 2,6,7
 21 614 21 614 23.5 643.5 c 128,-1,8
 26 673 26 673 47.5 693.5 c 128,-1,9
 69 714 69 714 109 714 c 0,10,11
 135 714 135 714 150.5 707.5 c 128,-1,12
 166 701 166 701 179.5 686 c 128,-1,13
 193 671 193 671 210 645 c 2,14,-1
 343 449 l 1,15,-1
 307 449 l 1,16,-1
 412 607 l 2,17,18
 437 643 437 643 466.5 667 c 128,-1,19
 496 691 496 691 533 703 c 128,-1,20
 570 715 570 715 613 715 c 0,21,22
 663 715 663 715 690 701.5 c 128,-1,23
 717 688 717 688 717 642 c 0,24,25
 717 623 717 623 711 610 c 128,-1,26
 705 597 705 597 695 591 c 128,-1,27
 685 585 685 585 673 585 c 0,28,29
 667 585 667 585 660.5 586 c 128,-1,30
 654 587 654 587 647 587 c 0,31,32
 626 587 626 587 606 576 c 128,-1,33
 586 565 586 565 570 541 c 2,34,-1
 377 259 l 1,35,-1
 414 360 l 1,36,-1
 414 86 l 2,37,38
 414 -9 414 -9 322 -9 c 0,0,1
EndSplineSet
EndChar

StartChar: Z
Encoding: 90 90 235
Width: 625
GlyphClass: 2
Flags: W
AnchorPoint: "Anchor-2" 322 0 basechar 0
AnchorPoint: "Anchor-0" 321 705 basechar 0
LayerCount: 2
Fore
SplineSet
129 0 m 2,0,1
 94 0 94 0 71.5 15 c 128,-1,2
 49 30 49 30 41 55.5 c 128,-1,3
 33 81 33 81 41 111.5 c 128,-1,4
 49 142 49 142 74 173 c 2,5,-1
 419 606 l 1,6,-1
 419 554 l 1,7,-1
 115 554 l 2,8,9
 76 554 76 554 56 573.5 c 128,-1,10
 36 593 36 593 36 630 c 256,11,12
 36 667 36 667 56 686 c 128,-1,13
 76 705 76 705 115 705 c 2,14,-1
 505 705 l 2,15,16
 540 705 540 705 562.5 690 c 128,-1,17
 585 675 585 675 593 650 c 128,-1,18
 601 625 601 625 593 594 c 128,-1,19
 585 563 585 563 560 532 c 2,20,-1
 215 99 l 1,21,-1
 215 151 l 1,22,-1
 535 151 l 2,23,24
 573 151 573 151 593.5 132 c 128,-1,25
 614 113 614 113 614 76 c 256,26,27
 614 39 614 39 593.5 19.5 c 128,-1,28
 573 0 573 0 535 0 c 2,29,-1
 129 0 l 2,0,1
EndSplineSet
EndChar

StartChar: a
Encoding: 97 97 242
Width: 568
GlyphClass: 2
Flags: W
AnchorPoint: "Anchor-3" 461 0 basechar 0
AnchorPoint: "Anchor-2" 283 0 basechar 0
AnchorPoint: "Anchor-0" 288 484 basechar 0
LayerCount: 2
Fore
SplineSet
223 -11 m 0,0,1
 166 -11 166 -11 122.5 10 c 128,-1,2
 79 31 79 31 54.5 67.5 c 128,-1,3
 30 104 30 104 30 151 c 0,4,5
 30 205 30 205 58 236 c 128,-1,6
 86 267 86 267 148 280.5 c 128,-1,7
 210 294 210 294 313 294 c 2,8,-1
 368 294 l 1,9,-1
 368 210 l 1,10,-1
 313 210 l 2,11,12
 274 210 274 210 248.5 204.5 c 128,-1,13
 223 199 223 199 211 187.5 c 128,-1,14
 199 176 199 176 199 158 c 0,15,16
 199 135 199 135 215.5 120 c 128,-1,17
 232 105 232 105 263 105 c 0,18,19
 288 105 288 105 307.5 116 c 128,-1,20
 327 127 327 127 339 146.5 c 128,-1,21
 351 166 351 166 351 192 c 2,22,-1
 351 308 l 2,23,24
 351 344 351 344 332.5 359 c 128,-1,25
 314 374 314 374 269 374 c 0,26,27
 245 374 245 374 215 368.5 c 128,-1,28
 185 363 185 363 148 349 c 0,29,30
 121 339 121 339 102 346 c 128,-1,31
 83 353 83 353 72.5 370 c 128,-1,32
 62 387 62 387 62.5 407 c 128,-1,33
 63 427 63 427 75.5 445 c 128,-1,34
 88 463 88 463 114 473 c 0,35,36
 162 491 162 491 202.5 497 c 128,-1,37
 243 503 243 503 277 503 c 0,38,39
 359 503 359 503 412.5 479.5 c 128,-1,40
 466 456 466 456 492.5 407.5 c 128,-1,41
 519 359 519 359 519 283 c 2,42,-1
 519 81 l 2,43,44
 519 37 519 37 498 14 c 128,-1,45
 477 -9 477 -9 437 -9 c 0,46,47
 396 -9 396 -9 374.5 14 c 128,-1,48
 353 37 353 37 353 81 c 2,49,-1
 353 107 l 1,50,-1
 359 93 l 1,51,52
 354 61 354 61 336 38 c 128,-1,53
 318 15 318 15 289 2 c 128,-1,54
 260 -11 260 -11 223 -11 c 0,0,1
EndSplineSet
Substitution2: "'ss01' Style Set 1 lookup 35 subtable" a.ss01
Substitution2: "'salt' Stylistic Alternatives lookup 34 subtable" a.ss01
Substitution2: "Single Substitution lookup 29 subtable" ordfeminine
AlternateSubs2: "'aalt' Access All Alternates lookup 1 subtable" a.ss01 ordfeminine
EndChar

StartChar: aogonek
Encoding: 261 261 265
Width: 568
GlyphClass: 1
Flags: W
LayerCount: 2
Fore
SplineSet
437 -198 m 0,0,1
 373 -198 373 -198 338.5 -168 c 128,-1,2
 304 -138 304 -138 304 -87 c 0,3,4
 304 -50 304 -50 324 -19.5 c 128,-1,5
 344 11 344 11 377 31 c 1,6,-1
 374 15 l 1,7,8
 364 27 364 27 358.5 43.5 c 128,-1,9
 353 60 353 60 353 81 c 2,10,-1
 353 107 l 1,11,-1
 359 93 l 1,12,13
 354 61 354 61 336 38 c 128,-1,14
 318 15 318 15 289 2 c 128,-1,15
 260 -11 260 -11 223 -11 c 0,16,17
 166 -11 166 -11 122.5 10 c 128,-1,18
 79 31 79 31 54.5 67.5 c 128,-1,19
 30 104 30 104 30 151 c 0,20,21
 30 205 30 205 58 236 c 128,-1,22
 86 267 86 267 148 280.5 c 128,-1,23
 210 294 210 294 313 294 c 2,24,-1
 368 294 l 1,25,-1
 368 210 l 1,26,-1
 313 210 l 2,27,28
 274 210 274 210 248.5 204.5 c 128,-1,29
 223 199 223 199 211 187.5 c 128,-1,30
 199 176 199 176 199 158 c 0,31,32
 199 135 199 135 215.5 120 c 128,-1,33
 232 105 232 105 263 105 c 0,34,35
 288 105 288 105 307.5 116 c 128,-1,36
 327 127 327 127 339 146.5 c 128,-1,37
 351 166 351 166 351 192 c 2,38,-1
 351 308 l 2,39,40
 351 344 351 344 332.5 359 c 128,-1,41
 314 374 314 374 269 374 c 0,42,43
 245 374 245 374 215 368.5 c 128,-1,44
 185 363 185 363 148 349 c 0,45,46
 121 339 121 339 102 346 c 128,-1,47
 83 353 83 353 72.5 370 c 128,-1,48
 62 387 62 387 62.5 407 c 128,-1,49
 63 427 63 427 75.5 445 c 128,-1,50
 88 463 88 463 114 473 c 0,51,52
 162 491 162 491 202.5 497 c 128,-1,53
 243 503 243 503 277 503 c 0,54,55
 359 503 359 503 412.5 479.5 c 128,-1,56
 466 456 466 456 492.5 407.5 c 128,-1,57
 519 359 519 359 519 283 c 2,58,-1
 519 81 l 2,59,60
 519 42 519 42 502.5 20 c 128,-1,61
 486 -2 486 -2 454 -8 c 0,62,63
 433 -13 433 -13 421 -30.5 c 128,-1,64
 409 -48 409 -48 409 -66 c 0,65,66
 409 -87 409 -87 424 -99 c 128,-1,67
 439 -111 439 -111 462 -111 c 0,68,69
 468 -111 468 -111 474.5 -110 c 128,-1,70
 481 -109 481 -109 488 -108 c 0,71,72
 512 -104 512 -104 525 -113.5 c 128,-1,73
 538 -123 538 -123 539.5 -138.5 c 128,-1,74
 541 -154 541 -154 532.5 -168.5 c 128,-1,75
 524 -183 524 -183 503 -190 c 0,76,77
 486 -195 486 -195 468.5 -196.5 c 128,-1,78
 451 -198 451 -198 437 -198 c 0,0,1
EndSplineSet
Substitution2: "'ss01' Style Set 1 lookup 35 subtable" aogonek.ss01
Substitution2: "'salt' Stylistic Alternatives lookup 34 subtable" aogonek.ss01
Substitution2: "'aalt' Access All Alternates lookup 0 subtable" aogonek.ss01
EndChar

StartChar: ae
Encoding: 230 230 269
Width: 870
GlyphClass: 2
Flags: W
AnchorPoint: "Anchor-2" 414 0 basechar 0
AnchorPoint: "Anchor-0" 414 484 basechar 0
LayerCount: 2
Fore
SplineSet
237 -11 m 0,0,1
 173 -11 173 -11 126.5 10 c 128,-1,2
 80 31 80 31 55 67.5 c 128,-1,3
 30 104 30 104 30 151 c 0,4,5
 30 205 30 205 58 236 c 128,-1,6
 86 267 86 267 149.5 280.5 c 128,-1,7
 213 294 213 294 317 294 c 2,8,-1
 362 294 l 1,9,-1
 362 210 l 1,10,-1
 313 210 l 2,11,12
 274 210 274 210 248.5 204.5 c 128,-1,13
 223 199 223 199 211 187.5 c 128,-1,14
 199 176 199 176 199 158 c 0,15,16
 199 135 199 135 215.5 120 c 128,-1,17
 232 105 232 105 264 105 c 0,18,19
 289 105 289 105 307.5 116 c 128,-1,20
 326 127 326 127 336.5 147.5 c 128,-1,21
 347 168 347 168 347 195 c 2,22,-1
 347 310 l 2,23,24
 347 344 347 344 329.5 359 c 128,-1,25
 312 374 312 374 270 374 c 0,26,27
 245 374 245 374 215.5 368.5 c 128,-1,28
 186 363 186 363 148 349 c 0,29,30
 122 339 122 339 102.5 346 c 128,-1,31
 83 353 83 353 73 370 c 128,-1,32
 63 387 63 387 63 407 c 128,-1,33
 63 427 63 427 75.5 445 c 128,-1,34
 88 463 88 463 115 473 c 0,35,36
 162 491 162 491 203 497 c 128,-1,37
 244 503 244 503 278 503 c 0,38,39
 342 503 342 503 391.5 484.5 c 128,-1,40
 441 466 441 466 465 424 c 1,41,-1
 429 424 l 1,42,43
 459 464 459 464 505 483.5 c 128,-1,44
 551 503 551 503 604 503 c 256,45,46
 657 503 657 503 701.5 486 c 128,-1,47
 746 469 746 469 778 436.5 c 128,-1,48
 810 404 810 404 827.5 358 c 128,-1,49
 845 312 845 312 845 255 c 2,50,-1
 845 248 l 2,51,52
 845 231 845 231 835.5 220.5 c 128,-1,53
 826 210 826 210 799 210 c 2,54,-1
 508 210 l 1,55,-1
 508 294 l 1,56,-1
 714 294 l 1,57,-1
 699 282 l 1,58,59
 699 318 699 318 689 341.5 c 128,-1,60
 679 365 679 365 659.5 376.5 c 128,-1,61
 640 388 640 388 611 388 c 0,62,63
 581 388 581 388 559.5 374 c 128,-1,64
 538 360 538 360 527.5 332 c 128,-1,65
 517 304 517 304 517 261 c 2,66,-1
 517 254 l 2,67,68
 517 182 517 182 546 150.5 c 128,-1,69
 575 119 575 119 641 119 c 0,70,71
 665 119 665 119 693 124.5 c 128,-1,72
 721 130 721 130 747 141 c 256,73,74
 773 152 773 152 791.5 146 c 128,-1,75
 810 140 810 140 821 123.5 c 128,-1,76
 832 107 832 107 832.5 87.5 c 128,-1,77
 833 68 833 68 822.5 49.5 c 128,-1,78
 812 31 812 31 789 22 c 0,79,80
 755 6 755 6 715.5 -2.5 c 128,-1,81
 676 -11 676 -11 635 -11 c 0,82,83
 553 -11 553 -11 492 19 c 128,-1,84
 431 49 431 49 402 109 c 1,85,-1
 429 109 l 1,86,87
 409 51 409 51 360 20 c 128,-1,88
 311 -11 311 -11 237 -11 c 0,0,1
EndSplineSet
EndChar

StartChar: b
Encoding: 98 98 271
Width: 620
GlyphClass: 2
Flags: W
AnchorPoint: "Anchor-2" 304 0 basechar 0
AnchorPoint: "Anchor-0" 321 705 basechar 0
LayerCount: 2
Fore
SplineSet
376 -11 m 0,0,1
 319 -11 319 -11 274.5 16.5 c 128,-1,2
 230 44 230 44 216 89 c 1,3,-1
 227 130 l 1,4,-1
 227 81 l 2,5,6
 227 37 227 37 204.5 14 c 128,-1,7
 182 -9 182 -9 140 -9 c 0,8,9
 97 -9 97 -9 74.5 14 c 128,-1,10
 52 37 52 37 52 81 c 2,11,-1
 52 624 l 2,12,13
 52 668 52 668 75 691 c 128,-1,14
 98 714 98 714 140 714 c 0,15,16
 183 714 183 714 206.5 691 c 128,-1,17
 230 668 230 668 230 624 c 2,18,-1
 230 410 l 1,19,-1
 218 410 l 1,20,21
 233 451 233 451 277 477 c 128,-1,22
 321 503 321 503 376 503 c 0,23,24
 440 503 440 503 488.5 472 c 128,-1,25
 537 441 537 441 564 384 c 128,-1,26
 591 327 591 327 591 246 c 0,27,28
 591 167 591 167 564 109 c 128,-1,29
 537 51 537 51 488.5 20 c 128,-1,30
 440 -11 440 -11 376 -11 c 0,0,1
320 120 m 0,31,32
 347 120 347 120 367.5 133.5 c 128,-1,33
 388 147 388 147 400 174.5 c 128,-1,34
 412 202 412 202 412 246 c 0,35,36
 412 313 412 313 386 342.5 c 128,-1,37
 360 372 360 372 320 372 c 0,38,39
 293 372 293 372 272 359 c 128,-1,40
 251 346 251 346 239 318.5 c 128,-1,41
 227 291 227 291 227 246 c 0,42,43
 227 180 227 180 253 150 c 128,-1,44
 279 120 279 120 320 120 c 0,31,32
EndSplineSet
EndChar

StartChar: uni0253
Encoding: 595 595 272
Width: 620
GlyphClass: 1
Flags: W
LayerCount: 2
Fore
SplineSet
376 -11 m 0,0,1
 319 -11 319 -11 274.5 16.5 c 128,-1,2
 230 44 230 44 216 89 c 1,3,-1
 227 130 l 1,4,-1
 227 81 l 2,5,6
 227 37 227 37 204.5 14 c 128,-1,7
 182 -9 182 -9 140 -9 c 0,8,9
 97 -9 97 -9 74.5 14 c 128,-1,10
 52 37 52 37 52 81 c 2,11,-1
 52 494 l 2,12,13
 52 594 52 594 109 654.5 c 128,-1,14
 166 715 166 715 276 715 c 0,15,16
 328 715 328 715 348 696 c 128,-1,17
 368 677 368 677 368 647 c 0,18,19
 368 613 368 613 357.5 594 c 128,-1,20
 347 575 347 575 325 576 c 0,21,22
 320 576 320 576 313 577 c 128,-1,23
 306 578 306 578 297 578 c 0,24,25
 266 578 266 578 248 558 c 128,-1,26
 230 538 230 538 230 495 c 2,27,-1
 230 410 l 1,28,-1
 218 410 l 1,29,30
 233 451 233 451 277 477 c 128,-1,31
 321 503 321 503 376 503 c 0,32,33
 440 503 440 503 488.5 472 c 128,-1,34
 537 441 537 441 564 384 c 128,-1,35
 591 327 591 327 591 246 c 0,36,37
 591 167 591 167 564 109 c 128,-1,38
 537 51 537 51 488.5 20 c 128,-1,39
 440 -11 440 -11 376 -11 c 0,0,1
320 120 m 0,40,41
 347 120 347 120 367.5 133.5 c 128,-1,42
 388 147 388 147 400 174.5 c 128,-1,43
 412 202 412 202 412 246 c 0,44,45
 412 313 412 313 386 342.5 c 128,-1,46
 360 372 360 372 320 372 c 0,47,48
 293 372 293 372 272 359 c 128,-1,49
 251 346 251 346 239 318.5 c 128,-1,50
 227 291 227 291 227 246 c 0,51,52
 227 180 227 180 253 150 c 128,-1,53
 279 120 279 120 320 120 c 0,40,41
EndSplineSet
EndChar

StartChar: c
Encoding: 99 99 273
Width: 484
GlyphClass: 2
Flags: W
AnchorPoint: "Anchor-2" 290 0 basechar 0
AnchorPoint: "Anchor-0" 290 484 basechar 0
LayerCount: 2
Fore
SplineSet
303 -11 m 0,0,1
 220 -11 220 -11 158.5 20 c 128,-1,2
 97 51 97 51 63 109.5 c 128,-1,3
 29 168 29 168 29 247 c 0,4,5
 29 307 29 307 48 354.5 c 128,-1,6
 67 402 67 402 103.5 435 c 128,-1,7
 140 468 140 468 190.5 485.5 c 128,-1,8
 241 503 241 503 303 503 c 0,9,10
 332 503 332 503 364 497.5 c 128,-1,11
 396 492 396 492 430 477 c 0,12,13
 454 468 454 468 463.5 449.5 c 128,-1,14
 473 431 473 431 471.5 410 c 128,-1,15
 470 389 470 389 459.5 372 c 128,-1,16
 449 355 449 355 430.5 349 c 128,-1,17
 412 343 412 343 389 354 c 0,18,19
 373 362 373 362 355.5 365.5 c 128,-1,20
 338 369 338 369 322 369 c 0,21,22
 295 369 295 369 274.5 361 c 128,-1,23
 254 353 254 353 240 337.5 c 128,-1,24
 226 322 226 322 218.5 299 c 128,-1,25
 211 276 211 276 211 247 c 0,26,27
 211 189 211 189 240 156 c 128,-1,28
 269 123 269 123 322 123 c 0,29,30
 338 123 338 123 355 126.5 c 128,-1,31
 372 130 372 130 389 138 c 0,32,33
 412 149 412 149 430 142.5 c 128,-1,34
 448 136 448 136 459 119 c 128,-1,35
 470 102 470 102 471 81.5 c 128,-1,36
 472 61 472 61 462 42.5 c 128,-1,37
 452 24 452 24 428 15 c 0,38,39
 395 0 395 0 363.5 -5.5 c 128,-1,40
 332 -11 332 -11 303 -11 c 0,0,1
EndSplineSet
EndChar

StartChar: d
Encoding: 100 100 280
Width: 620
GlyphClass: 2
Flags: W
AnchorPoint: "Anchor-5" 302 247 basechar 0
AnchorPoint: "Anchor-4" 430 592 basechar 0
AnchorPoint: "Anchor-2" 312 0 basechar 0
AnchorPoint: "Anchor-1" 603 705 basechar 0
AnchorPoint: "Anchor-0" 312 705 basechar 0
LayerCount: 2
Fore
SplineSet
244 -11 m 0,0,1
 181 -11 181 -11 132.5 20 c 128,-1,2
 84 51 84 51 56.5 109 c 128,-1,3
 29 167 29 167 29 246 c 0,4,5
 29 327 29 327 56.5 384 c 128,-1,6
 84 441 84 441 132.5 472 c 128,-1,7
 181 503 181 503 244 503 c 0,8,9
 299 503 299 503 343 477 c 128,-1,10
 387 451 387 451 402 410 c 1,11,-1
 391 410 l 1,12,-1
 391 624 l 2,13,14
 391 668 391 668 414 691 c 128,-1,15
 437 714 437 714 480 714 c 0,16,17
 522 714 522 714 545.5 691 c 128,-1,18
 569 668 569 668 569 624 c 2,19,-1
 569 81 l 2,20,21
 569 37 569 37 546.5 14 c 128,-1,22
 524 -9 524 -9 481 -9 c 0,23,24
 439 -9 439 -9 416 14 c 128,-1,25
 393 37 393 37 393 81 c 2,26,-1
 393 138 l 1,27,-1
 404 89 l 1,28,29
 390 44 390 44 345.5 16.5 c 128,-1,30
 301 -11 301 -11 244 -11 c 0,0,1
301 120 m 0,31,32
 328 120 328 120 349 133.5 c 128,-1,33
 370 147 370 147 381.5 174.5 c 128,-1,34
 393 202 393 202 393 246 c 0,35,36
 393 313 393 313 367 342.5 c 128,-1,37
 341 372 341 372 301 372 c 0,38,39
 274 372 274 372 253 359 c 128,-1,40
 232 346 232 346 220 318.5 c 128,-1,41
 208 291 208 291 208 246 c 0,42,43
 208 180 208 180 234 150 c 128,-1,44
 260 120 260 120 301 120 c 0,31,32
EndSplineSet
EndChar

StartChar: eth
Encoding: 240 240 281
Width: 606
GlyphClass: 1
Flags: W
LayerCount: 2
Fore
SplineSet
293 -11 m 0,0,1
 215 -11 215 -11 155.5 18.5 c 128,-1,2
 96 48 96 48 62.5 100.5 c 128,-1,3
 29 153 29 153 29 221 c 0,4,5
 29 287 29 287 60.5 338 c 128,-1,6
 92 389 92 389 147.5 418 c 128,-1,7
 203 447 203 447 275 447 c 0,8,9
 317 447 317 447 350 436 c 128,-1,10
 383 425 383 425 407 400 c 128,-1,11
 431 375 431 375 444 334 c 1,12,-1
 413 334 l 1,13,14
 413 401 413 401 378.5 453.5 c 128,-1,15
 344 506 344 506 291 541 c 1,16,-1
 316 540 l 1,17,-1
 170 472 l 2,18,19
 147 461 147 461 129.5 467 c 128,-1,20
 112 473 112 473 104.5 488.5 c 128,-1,21
 97 504 97 504 103.5 521.5 c 128,-1,22
 110 539 110 539 135 550 c 2,23,-1
 222 591 l 1,24,-1
 225 575 l 1,25,26
 211 582 211 582 195.5 587.5 c 128,-1,27
 180 593 180 593 163 598 c 0,28,29
 131 607 131 607 120 628 c 128,-1,30
 109 649 109 649 116.5 670.5 c 128,-1,31
 124 692 124 692 146.5 704 c 128,-1,32
 169 716 169 716 204 708 c 0,33,34
 249 697 249 697 288.5 681 c 128,-1,35
 328 665 328 665 362 645 c 1,36,-1
 330 642 l 1,37,-1
 460 703 l 2,38,39
 484 714 484 714 501.5 708 c 128,-1,40
 519 702 519 702 527 686.5 c 128,-1,41
 535 671 535 671 529 654 c 128,-1,42
 523 637 523 637 499 626 c 2,43,-1
 415 586 l 1,44,-1
 422 604 l 1,45,46
 475 562 475 562 509.5 509.5 c 128,-1,47
 544 457 544 457 561.5 401.5 c 128,-1,48
 579 346 579 346 579 292 c 0,49,50
 579 222 579 222 560 166 c 128,-1,51
 541 110 541 110 504.5 70.5 c 128,-1,52
 468 31 468 31 414.5 10 c 128,-1,53
 361 -11 361 -11 293 -11 c 0,0,1
300 122 m 0,54,55
 330 122 330 122 350.5 134 c 128,-1,56
 371 146 371 146 381.5 168.5 c 128,-1,57
 392 191 392 191 392 221 c 0,58,59
 392 265 392 265 368.5 291.5 c 128,-1,60
 345 318 345 318 300 318 c 0,61,62
 271 318 271 318 250.5 306 c 128,-1,63
 230 294 230 294 219 272 c 128,-1,64
 208 250 208 250 208 221 c 0,65,66
 208 175 208 175 233 148.5 c 128,-1,67
 258 122 258 122 300 122 c 0,54,55
EndSplineSet
EndChar

StartChar: dcroat
Encoding: 273 273 283
Width: 620
GlyphClass: 1
Flags: W
LayerCount: 2
Fore
SplineSet
244 -11 m 0,0,1
 182 -11 182 -11 133 19 c 128,-1,2
 84 49 84 49 56.5 106 c 128,-1,3
 29 163 29 163 29 240 c 0,4,5
 29 318 29 318 56.5 374 c 128,-1,6
 84 430 84 430 132.5 460.5 c 128,-1,7
 181 491 181 491 244 491 c 0,8,9
 300 491 300 491 343 465 c 128,-1,10
 386 439 386 439 402 399 c 1,11,-1
 391 399 l 1,12,-1
 391 532 l 1,13,-1
 265 532 l 2,14,15
 235 532 235 532 218.5 547.5 c 128,-1,16
 202 563 202 563 202 592 c 0,17,18
 202 622 202 622 218.5 637.5 c 128,-1,19
 235 653 235 653 265 653 c 2,20,-1
 473 653 l 1,21,-1
 391 571 l 1,22,-1
 391 641 l 2,23,24
 391 672 391 672 414 693 c 128,-1,25
 437 714 437 714 480 714 c 256,26,27
 523 714 523 714 546 693 c 128,-1,28
 569 672 569 672 569 641 c 2,29,-1
 569 571 l 1,30,-1
 487 653 l 1,31,-1
 595 653 l 2,32,33
 626 653 626 653 641.5 637.5 c 128,-1,34
 657 622 657 622 657 592 c 0,35,36
 657 563 657 563 641.5 547.5 c 128,-1,37
 626 532 626 532 595 532 c 2,38,-1
 569 532 l 1,39,-1
 569 81 l 2,40,41
 569 37 569 37 546.5 14 c 128,-1,42
 524 -9 524 -9 482 -9 c 0,43,44
 439 -9 439 -9 416 14 c 128,-1,45
 393 37 393 37 393 81 c 2,46,-1
 393 135 l 1,47,-1
 403 86 l 1,48,49
 389 43 389 43 345 16 c 128,-1,50
 301 -11 301 -11 244 -11 c 0,0,1
301 120 m 0,51,52
 329 120 329 120 349.5 133 c 128,-1,53
 370 146 370 146 382 172.5 c 128,-1,54
 394 199 394 199 394 240 c 0,55,56
 394 302 394 302 368 330.5 c 128,-1,57
 342 359 342 359 301 359 c 0,58,59
 274 359 274 359 253 346.5 c 128,-1,60
 232 334 232 334 220 307.5 c 128,-1,61
 208 281 208 281 208 240 c 0,62,63
 208 178 208 178 234 149 c 128,-1,64
 260 120 260 120 301 120 c 0,51,52
EndSplineSet
EndChar

StartChar: uni0257
Encoding: 599 599 285
Width: 620
GlyphClass: 1
Flags: W
LayerCount: 2
Fore
SplineSet
244 -11 m 0,0,1
 181 -11 181 -11 132.5 20 c 128,-1,2
 84 51 84 51 56.5 109 c 128,-1,3
 29 167 29 167 29 246 c 0,4,5
 29 327 29 327 56.5 384 c 128,-1,6
 84 441 84 441 132.5 472 c 128,-1,7
 181 503 181 503 244 503 c 0,8,9
 299 503 299 503 343 477 c 128,-1,10
 387 451 387 451 402 410 c 1,11,-1
 391 410 l 1,12,-1
 391 494 l 2,13,14
 391 594 391 594 447.5 654.5 c 128,-1,15
 504 715 504 715 609 715 c 0,16,17
 666 715 666 715 686.5 696 c 128,-1,18
 707 677 707 677 707 647 c 0,19,20
 707 613 707 613 696.5 594 c 128,-1,21
 686 575 686 575 664 576 c 0,22,23
 660 576 660 576 652.5 577 c 128,-1,24
 645 578 645 578 636 578 c 0,25,26
 605 578 605 578 587 558 c 128,-1,27
 569 538 569 538 569 495 c 2,28,-1
 569 81 l 2,29,30
 569 37 569 37 546.5 14 c 128,-1,31
 524 -9 524 -9 481 -9 c 0,32,33
 439 -9 439 -9 416 14 c 128,-1,34
 393 37 393 37 393 81 c 2,35,-1
 393 138 l 1,36,-1
 404 89 l 1,37,38
 390 44 390 44 345.5 16.5 c 128,-1,39
 301 -11 301 -11 244 -11 c 0,0,1
301 120 m 0,40,41
 328 120 328 120 349 133.5 c 128,-1,42
 370 147 370 147 381.5 174.5 c 128,-1,43
 393 202 393 202 393 246 c 0,44,45
 393 313 393 313 367 342.5 c 128,-1,46
 341 372 341 372 301 372 c 0,47,48
 274 372 274 372 253 359 c 128,-1,49
 232 346 232 346 220 318.5 c 128,-1,50
 208 291 208 291 208 246 c 0,51,52
 208 180 208 180 234 150 c 128,-1,53
 260 120 260 120 301 120 c 0,40,41
EndSplineSet
EndChar

StartChar: e
Encoding: 101 101 288
Width: 555
GlyphClass: 2
Flags: W
AnchorPoint: "Anchor-3" 390 0 basechar 0
AnchorPoint: "Anchor-2" 290 0 basechar 0
AnchorPoint: "Anchor-0" 290 484 basechar 0
LayerCount: 2
Fore
SplineSet
320 -11 m 0,0,1
 230 -11 230 -11 164.5 20.5 c 128,-1,2
 99 52 99 52 64 110 c 128,-1,3
 29 168 29 168 29 247 c 0,4,5
 29 323 29 323 62.5 380.5 c 128,-1,6
 96 438 96 438 154.5 470.5 c 128,-1,7
 213 503 213 503 288 503 c 0,8,9
 343 503 343 503 388 485.5 c 128,-1,10
 433 468 433 468 465 434.5 c 128,-1,11
 497 401 497 401 513.5 354 c 128,-1,12
 530 307 530 307 530 249 c 0,13,14
 530 229 530 229 519 219.5 c 128,-1,15
 508 210 508 210 484 210 c 2,16,-1
 178 210 l 1,17,-1
 178 294 l 1,18,-1
 400 294 l 1,19,-1
 384 281 l 1,20,21
 384 318 384 318 374 341 c 128,-1,22
 364 364 364 364 344.5 376 c 128,-1,23
 325 388 325 388 296 388 c 0,24,25
 265 388 265 388 242.5 373.5 c 128,-1,26
 220 359 220 359 208 331 c 128,-1,27
 196 303 196 303 196 261 c 2,28,-1
 196 252 l 2,29,30
 196 181 196 181 227.5 150.5 c 128,-1,31
 259 120 259 120 325 120 c 0,32,33
 347 120 347 120 375.5 125.5 c 128,-1,34
 404 131 404 131 430 141 c 256,35,36
 456 151 456 151 475 144.5 c 128,-1,37
 494 138 494 138 504.5 122.5 c 128,-1,38
 515 107 515 107 516 87.5 c 128,-1,39
 517 68 517 68 507 49.5 c 128,-1,40
 497 31 497 31 474 21 c 0,41,42
 439 5 439 5 399.5 -3 c 128,-1,43
 360 -11 360 -11 320 -11 c 0,0,1
EndSplineSet
EndChar

StartChar: uni0259
Encoding: 601 601 311
Width: 556
GlyphClass: 1
Flags: W
LayerCount: 2
Fore
SplineSet
271 -11 m 0,0,1
 194 -11 194 -11 139.5 19 c 128,-1,2
 85 49 85 49 55 104.5 c 128,-1,3
 25 160 25 160 25 237 c 0,4,5
 25 261 25 261 37.5 272 c 128,-1,6
 50 283 50 283 72 283 c 2,7,-1
 378 283 l 1,8,-1
 378 198 l 1,9,-1
 156 198 l 1,10,-1
 177 211 l 1,11,12
 177 175 177 175 187 151.5 c 128,-1,13
 197 128 197 128 216 116 c 128,-1,14
 235 104 235 104 261 104 c 0,15,16
 293 104 293 104 315.5 118.5 c 128,-1,17
 338 133 338 133 349.5 161.5 c 128,-1,18
 361 190 361 190 361 232 c 2,19,-1
 361 240 l 2,20,21
 361 311 361 311 330 342 c 128,-1,22
 299 373 299 373 236 373 c 0,23,24
 214 373 214 373 185 367.5 c 128,-1,25
 156 362 156 362 130 351 c 0,26,27
 104 341 104 341 84 346.5 c 128,-1,28
 64 352 64 352 52.5 367.5 c 128,-1,29
 41 383 41 383 39.5 403 c 128,-1,30
 38 423 38 423 48 441 c 128,-1,31
 58 459 58 459 82 469 c 0,32,33
 118 486 118 486 161 494.5 c 128,-1,34
 204 503 204 503 242 503 c 0,35,36
 330 503 330 503 393.5 471.5 c 128,-1,37
 457 440 457 440 492 382 c 128,-1,38
 527 324 527 324 527 246 c 0,39,40
 527 170 527 170 493.5 112 c 128,-1,41
 460 54 460 54 402.5 21.5 c 128,-1,42
 345 -11 345 -11 271 -11 c 0,0,1
EndSplineSet
EndChar

StartChar: f
Encoding: 102 102 314
Width: 402
GlyphClass: 2
Flags: W
AnchorPoint: "Anchor-2" 183 0 basechar 0
AnchorPoint: "Anchor-0" 183 705 basechar 0
LayerCount: 2
Fore
SplineSet
183 -9 m 0,0,1
 140 -9 140 -9 117 14 c 128,-1,2
 94 37 94 37 94 81 c 2,3,-1
 94 361 l 1,4,-1
 68 361 l 2,5,6
 36 361 36 361 18.5 378 c 128,-1,7
 1 395 1 395 1 427 c 256,8,9
 1 459 1 459 18.5 475.5 c 128,-1,10
 36 492 36 492 68 492 c 2,11,-1
 145 492 l 1,12,-1
 94 445 l 1,13,-1
 94 473 l 2,14,15
 94 584 94 584 149.5 639.5 c 128,-1,16
 205 695 205 695 315 706 c 2,17,-1
 344 709 l 2,18,19
 376 713 376 713 395 701.5 c 128,-1,20
 414 690 414 690 421 671.5 c 128,-1,21
 428 653 428 653 424.5 633 c 128,-1,22
 421 613 421 613 409 599 c 128,-1,23
 397 585 397 585 377 583 c 2,24,-1
 363 582 l 2,25,26
 312 578 312 578 292 560 c 128,-1,27
 272 542 272 542 272 507 c 2,28,-1
 272 474 l 1,29,-1
 250 492 l 1,30,-1
 329 492 l 2,31,32
 362 492 362 492 379 475.5 c 128,-1,33
 396 459 396 459 396 427 c 256,34,35
 396 395 396 395 379 378 c 128,-1,36
 362 361 362 361 329 361 c 2,37,-1
 272 361 l 1,38,-1
 272 81 l 2,39,40
 272 -9 272 -9 183 -9 c 0,0,1
EndSplineSet
EndChar

StartChar: g
Encoding: 103 103 315
Width: 626
GlyphClass: 2
Flags: W
AnchorPoint: "Anchor-0" 312 484 basechar 0
LayerCount: 2
Fore
SplineSet
296 -191 m 0,0,1
 241 -191 241 -191 193 -183.5 c 128,-1,2
 145 -176 145 -176 110 -162 c 0,3,4
 81 -152 81 -152 69 -133 c 128,-1,5
 57 -114 57 -114 58 -93 c 128,-1,6
 59 -72 59 -72 69.5 -55 c 128,-1,7
 80 -38 80 -38 98 -30.5 c 128,-1,8
 116 -23 116 -23 138 -31 c 0,9,10
 182 -49 182 -49 218 -54.5 c 128,-1,11
 254 -60 254 -60 279 -60 c 0,12,13
 340 -60 340 -60 370.5 -34.5 c 128,-1,14
 401 -9 401 -9 401 45 c 2,15,-1
 401 108 l 1,16,-1
 409 108 l 1,17,18
 394 66 394 66 348 39.5 c 128,-1,19
 302 13 302 13 248 13 c 0,20,21
 182 13 182 13 133 43.5 c 128,-1,22
 84 74 84 74 56.5 129 c 128,-1,23
 29 184 29 184 29 258 c 0,24,25
 29 314 29 314 45 359 c 128,-1,26
 61 404 61 404 89.5 436 c 128,-1,27
 118 468 118 468 158.5 485.5 c 128,-1,28
 199 503 199 503 248 503 c 0,29,30
 304 503 304 503 348.5 477 c 128,-1,31
 393 451 393 451 408 409 c 1,32,-1
 398 368 l 1,33,-1
 398 412 l 2,34,35
 398 455 398 455 421.5 478 c 128,-1,36
 445 501 445 501 487 501 c 256,37,38
 529 501 529 501 551.5 478 c 128,-1,39
 574 455 574 455 574 412 c 2,40,-1
 574 66 l 2,41,42
 574 -62 574 -62 502 -126.5 c 128,-1,43
 430 -191 430 -191 296 -191 c 0,0,1
303 144 m 0,44,45
 333 144 333 144 354 157.5 c 128,-1,46
 375 171 375 171 387 196.5 c 128,-1,47
 399 222 399 222 399 258 c 0,48,49
 399 312 399 312 373 342 c 128,-1,50
 347 372 347 372 303 372 c 0,51,52
 275 372 275 372 253 358.5 c 128,-1,53
 231 345 231 345 219.5 319.5 c 128,-1,54
 208 294 208 294 208 258 c 0,55,56
 208 204 208 204 234 174 c 128,-1,57
 260 144 260 144 303 144 c 0,44,45
EndSplineSet
EndChar

StartChar: uni01E5
Encoding: 485 485 322
Width: 626
GlyphClass: 1
Flags: W
LayerCount: 2
Fore
SplineSet
296 -191 m 0,0,1
 228 -191 228 -191 169 -179 c 128,-1,2
 110 -167 110 -167 73 -146 c 0,3,4
 52 -135 52 -135 45 -117 c 128,-1,5
 38 -99 38 -99 42 -80 c 128,-1,6
 46 -61 46 -61 58.5 -47 c 128,-1,7
 71 -33 71 -33 89 -29 c 128,-1,8
 107 -25 107 -25 129 -36 c 0,9,10
 163 -53 163 -53 207 -62.5 c 128,-1,11
 251 -72 251 -72 279 -72 c 0,12,13
 317 -72 317 -72 343 -62.5 c 128,-1,14
 369 -53 369 -53 383 -33 c 1,15,-1
 396 -42 l 1,16,-1
 310 -42 l 2,17,18
 292 -42 292 -42 281 -31 c 128,-1,19
 270 -20 270 -20 270 -2 c 256,20,21
 270 16 270 16 281 26.5 c 128,-1,22
 292 37 292 37 310 37 c 2,23,-1
 413 37 l 1,24,-1
 398 5 l 1,25,26
 400 12 400 12 400.5 19 c 128,-1,27
 401 26 401 26 401 34 c 2,28,-1
 401 145 l 1,29,-1
 409 145 l 1,30,31
 394 105 394 105 348.5 80 c 128,-1,32
 303 55 303 55 249 55 c 0,33,34
 184 55 184 55 134.5 83 c 128,-1,35
 85 111 85 111 57 161.5 c 128,-1,36
 29 212 29 212 29 279 c 0,37,38
 29 329 29 329 45 370 c 128,-1,39
 61 411 61 411 90 441 c 128,-1,40
 119 471 119 471 159.5 487 c 128,-1,41
 200 503 200 503 249 503 c 0,42,43
 303 503 303 503 348.5 478 c 128,-1,44
 394 453 394 453 409 412 c 1,45,-1
 398 377 l 1,46,-1
 398 412 l 2,47,48
 398 455 398 455 421.5 478 c 128,-1,49
 445 501 445 501 487 501 c 256,50,51
 529 501 529 501 551.5 478 c 128,-1,52
 574 455 574 455 574 412 c 2,53,-1
 574 66 l 2,54,55
 574 55 574 55 573.5 43.5 c 128,-1,56
 573 32 573 32 571 18 c 1,57,-1
 564 37 l 1,58,-1
 590 37 l 2,59,60
 609 37 609 37 620 26.5 c 128,-1,61
 631 16 631 16 631 -2 c 256,62,63
 631 -20 631 -20 620 -31 c 128,-1,64
 609 -42 609 -42 590 -42 c 2,65,-1
 547 -42 l 1,66,-1
 561 -31 l 1,67,68
 537 -111 537 -111 469 -151 c 128,-1,69
 401 -191 401 -191 296 -191 c 0,0,1
303 184 m 0,70,71
 331 184 331 184 352.5 195.5 c 128,-1,72
 374 207 374 207 386 228 c 128,-1,73
 398 249 398 249 398 277 c 0,74,75
 398 321 398 321 372 346.5 c 128,-1,76
 346 372 346 372 303 372 c 0,77,78
 275 372 275 372 253.5 360.5 c 128,-1,79
 232 349 232 349 220 328 c 128,-1,80
 208 307 208 307 208 277 c 0,81,82
 208 233 208 233 235 208.5 c 128,-1,83
 262 184 262 184 303 184 c 0,70,71
EndSplineSet
EndChar

StartChar: h
Encoding: 104 104 323
Width: 606
GlyphClass: 2
Flags: W
AnchorPoint: "Anchor-5" 305 249 basechar 0
AnchorPoint: "Anchor-4" 191 592 basechar 0
AnchorPoint: "Anchor-2" 305 0 basechar 0
AnchorPoint: "Anchor-1" 252 705 basechar 0
AnchorPoint: "Anchor-0" 304 705 basechar 0
LayerCount: 2
Fore
SplineSet
140 -9 m 0,0,1
 98 -9 98 -9 75 14 c 128,-1,2
 52 37 52 37 52 81 c 2,3,-1
 52 624 l 2,4,5
 52 668 52 668 75 691 c 128,-1,6
 98 714 98 714 140 714 c 0,7,8
 183 714 183 714 206.5 691 c 128,-1,9
 230 668 230 668 230 624 c 2,10,-1
 230 406 l 1,11,-1
 214 406 l 1,12,13
 238 453 238 453 282.5 478 c 128,-1,14
 327 503 327 503 384 503 c 0,15,16
 443 503 443 503 481 480.5 c 128,-1,17
 519 458 519 458 538 410.5 c 128,-1,18
 557 363 557 363 557 291 c 2,19,-1
 557 81 l 2,20,21
 557 37 557 37 534 14 c 128,-1,22
 511 -9 511 -9 468 -9 c 256,23,24
 425 -9 425 -9 402 14 c 128,-1,25
 379 37 379 37 379 81 c 2,26,-1
 379 284 l 2,27,28
 379 329 379 329 363.5 348 c 128,-1,29
 348 367 348 367 318 367 c 0,30,31
 278 367 278 367 254 341.5 c 128,-1,32
 230 316 230 316 230 273 c 2,33,-1
 230 81 l 2,34,35
 230 -9 230 -9 140 -9 c 0,0,1
EndSplineSet
EndChar

StartChar: hbar
Encoding: 295 295 324
Width: 606
GlyphClass: 1
Flags: W
LayerCount: 2
Fore
SplineSet
140 -9 m 0,0,1
 98 -9 98 -9 75 14 c 128,-1,2
 52 37 52 37 52 81 c 2,3,-1
 52 532 l 1,4,-1
 26 532 l 2,5,6
 -4 532 -4 532 -20 547.5 c 128,-1,7
 -36 563 -36 563 -36 592 c 0,8,9
 -36 653 -36 653 26 653 c 2,10,-1
 92 653 l 1,11,-1
 52 580 l 1,12,-1
 52 633 l 2,13,14
 52 671 52 671 75 692.5 c 128,-1,15
 98 714 98 714 140 714 c 0,16,17
 183 714 183 714 206.5 692.5 c 128,-1,18
 230 671 230 671 230 633 c 2,19,-1
 230 580 l 1,20,-1
 189 653 l 1,21,-1
 355 653 l 2,22,23
 386 653 386 653 401.5 637.5 c 128,-1,24
 417 622 417 622 417 592 c 0,25,26
 417 532 417 532 355 532 c 2,27,-1
 230 532 l 1,28,-1
 230 394 l 1,29,-1
 214 394 l 1,30,31
 238 440 238 440 282.5 465.5 c 128,-1,32
 327 491 327 491 384 491 c 0,33,34
 443 491 443 491 481 468 c 128,-1,35
 519 445 519 445 538 398 c 128,-1,36
 557 351 557 351 557 278 c 2,37,-1
 557 81 l 2,38,39
 557 37 557 37 534 14 c 128,-1,40
 511 -9 511 -9 468 -9 c 256,41,42
 425 -9 425 -9 402 14 c 128,-1,43
 379 37 379 37 379 81 c 2,44,-1
 379 271 l 2,45,46
 379 316 379 316 363.5 335 c 128,-1,47
 348 354 348 354 318 354 c 0,48,49
 278 354 278 354 254 328.5 c 128,-1,50
 230 303 230 303 230 260 c 2,51,-1
 230 81 l 2,52,53
 230 -9 230 -9 140 -9 c 0,0,1
EndSplineSet
EndChar

StartChar: i
Encoding: 105 105 329
Width: 281
GlyphClass: 2
Flags: W
AnchorPoint: "Anchor-3" 187 0 basechar 0
AnchorPoint: "Anchor-2" 140 0 basechar 0
LayerCount: 2
Fore
SplineSet
140 -9 m 0,0,1
 98 -9 98 -9 75 16 c 128,-1,2
 52 41 52 41 52 88 c 2,3,-1
 52 404 l 2,4,5
 52 451 52 451 75 476 c 128,-1,6
 98 501 98 501 140 501 c 0,7,8
 183 501 183 501 206.5 476 c 128,-1,9
 230 451 230 451 230 404 c 2,10,-1
 230 88 l 2,11,12
 230 41 230 41 207 16 c 128,-1,13
 184 -9 184 -9 140 -9 c 0,0,1
140 572 m 0,14,15
 93 572 93 572 67.5 594 c 128,-1,16
 42 616 42 616 42 658 c 0,17,18
 42 699 42 699 67.5 721 c 128,-1,19
 93 743 93 743 140 743 c 0,20,21
 189 743 189 743 214 721 c 128,-1,22
 239 699 239 699 239 658 c 0,23,24
 239 616 239 616 214 594 c 128,-1,25
 189 572 189 572 140 572 c 0,14,15
EndSplineSet
Substitution2: "'locl' Localized Forms in Latin lookup 10 subtable" i.loclTRK
Substitution2: "Single Substitution lookup 4 subtable" dotlessi
Substitution2: "Single Substitution lookup 3 subtable" dotlessi
Substitution2: "'aalt' Access All Alternates lookup 0 subtable" i.loclTRK
EndChar

StartChar: dotlessi
Encoding: 305 305 330
Width: 281
GlyphClass: 2
Flags: W
AnchorPoint: "Anchor-3" 187 0 basechar 0
AnchorPoint: "Anchor-2" 140 0 basechar 0
AnchorPoint: "Anchor-0" 140 484 basechar 0
LayerCount: 2
Fore
SplineSet
140 -9 m 0,0,1
 98 -9 98 -9 75 16 c 128,-1,2
 52 41 52 41 52 88 c 2,3,-1
 52 404 l 2,4,5
 52 451 52 451 75 476 c 128,-1,6
 98 501 98 501 140 501 c 0,7,8
 183 501 183 501 206.5 476 c 128,-1,9
 230 451 230 451 230 404 c 2,10,-1
 230 88 l 2,11,12
 230 41 230 41 207 16 c 128,-1,13
 184 -9 184 -9 140 -9 c 0,0,1
EndSplineSet
EndChar

StartChar: iogonek
Encoding: 303 303 343
Width: 281
GlyphClass: 1
Flags: W
LayerCount: 2
Fore
SplineSet
163 -198 m 0,0,1
 99 -198 99 -198 64 -168 c 128,-1,2
 29 -138 29 -138 29 -87 c 0,3,4
 29 -55 29 -55 44.5 -27.5 c 128,-1,5
 60 0 60 0 86 20 c 1,6,-1
 87 5 l 1,7,8
 70 18 70 18 61 38.5 c 128,-1,9
 52 59 52 59 52 88 c 2,10,-1
 52 404 l 2,11,12
 52 451 52 451 75 476 c 128,-1,13
 98 501 98 501 140 501 c 0,14,15
 183 501 183 501 206.5 476 c 128,-1,16
 230 451 230 451 230 404 c 2,17,-1
 230 88 l 2,18,19
 230 55 230 55 218 31.5 c 128,-1,20
 206 8 206 8 182 -3 c 0,21,22
 158 -13 158 -13 146 -30 c 128,-1,23
 134 -47 134 -47 134 -66 c 0,24,25
 134 -87 134 -87 149.5 -99 c 128,-1,26
 165 -111 165 -111 187 -111 c 0,27,28
 194 -111 194 -111 200.5 -110 c 128,-1,29
 207 -109 207 -109 214 -108 c 0,30,31
 237 -104 237 -104 250 -113.5 c 128,-1,32
 263 -123 263 -123 265 -138.5 c 128,-1,33
 267 -154 267 -154 258 -168.5 c 128,-1,34
 249 -183 249 -183 229 -190 c 0,35,36
 212 -195 212 -195 194.5 -196.5 c 128,-1,37
 177 -198 177 -198 163 -198 c 0,0,1
140 572 m 0,38,39
 93 572 93 572 67.5 594 c 128,-1,40
 42 616 42 616 42 658 c 0,41,42
 42 699 42 699 67.5 721 c 128,-1,43
 93 743 93 743 140 743 c 0,44,45
 189 743 189 743 214 721 c 128,-1,46
 239 699 239 699 239 658 c 0,47,48
 239 616 239 616 214 594 c 128,-1,49
 189 572 189 572 140 572 c 0,38,39
EndSplineSet
EndChar

StartChar: j
Encoding: 106 106 345
Width: 287
GlyphClass: 1
Flags: W
LayerCount: 2
Fore
SplineSet
23 -187 m 0,0,1
 -8 -188 -8 -188 -26.5 -176 c 128,-1,2
 -45 -164 -45 -164 -52 -146 c 128,-1,3
 -59 -128 -59 -128 -55.5 -109.5 c 128,-1,4
 -52 -91 -52 -91 -39 -77.5 c 128,-1,5
 -26 -64 -26 -64 -6 -62 c 0,6,7
 27 -60 27 -60 42 -44.5 c 128,-1,8
 57 -29 57 -29 57 3 c 2,9,-1
 57 412 l 2,10,11
 57 455 57 455 80 478 c 128,-1,12
 103 501 103 501 146 501 c 256,13,14
 189 501 189 501 212 478 c 128,-1,15
 235 455 235 455 235 412 c 2,16,-1
 235 20 l 2,17,18
 235 -47 235 -47 212 -92.5 c 128,-1,19
 189 -138 189 -138 142.5 -161.5 c 128,-1,20
 96 -185 96 -185 23 -187 c 0,0,1
145 572 m 256,21,22
 97 572 97 572 71.5 594 c 128,-1,23
 46 616 46 616 46 658 c 0,24,25
 46 699 46 699 71.5 721 c 128,-1,26
 97 743 97 743 145 743 c 256,27,28
 193 743 193 743 218.5 721 c 128,-1,29
 244 699 244 699 244 658 c 0,30,31
 244 616 244 616 218.5 594 c 128,-1,32
 193 572 193 572 145 572 c 256,21,22
EndSplineSet
Substitution2: "Single Substitution lookup 4 subtable" uni0237
Substitution2: "Single Substitution lookup 3 subtable" uni0237
EndChar

StartChar: uni0237
Encoding: 567 567 346
Width: 287
GlyphClass: 2
Flags: W
AnchorPoint: "Anchor-2" 145 0 basechar 0
AnchorPoint: "Anchor-0" 145 484 basechar 0
LayerCount: 2
Fore
SplineSet
23 -187 m 0,0,1
 -8 -188 -8 -188 -26.5 -176 c 128,-1,2
 -45 -164 -45 -164 -52 -146 c 128,-1,3
 -59 -128 -59 -128 -55.5 -109.5 c 128,-1,4
 -52 -91 -52 -91 -39 -77.5 c 128,-1,5
 -26 -64 -26 -64 -6 -62 c 0,6,7
 27 -60 27 -60 42 -44.5 c 128,-1,8
 57 -29 57 -29 57 3 c 2,9,-1
 57 412 l 2,10,11
 57 455 57 455 80 478 c 128,-1,12
 103 501 103 501 146 501 c 256,13,14
 189 501 189 501 212 478 c 128,-1,15
 235 455 235 455 235 412 c 2,16,-1
 235 20 l 2,17,18
 235 -47 235 -47 212 -92.5 c 128,-1,19
 189 -138 189 -138 142.5 -161.5 c 128,-1,20
 96 -185 96 -185 23 -187 c 0,0,1
EndSplineSet
EndChar

StartChar: k
Encoding: 107 107 348
Width: 580
GlyphClass: 2
Flags: W
AnchorPoint: "Anchor-2" 290 0 basechar 0
AnchorPoint: "Anchor-0" 304 705 basechar 0
LayerCount: 2
Fore
SplineSet
140 -9 m 0,0,1
 98 -9 98 -9 75 14 c 128,-1,2
 52 37 52 37 52 81 c 2,3,-1
 52 624 l 2,4,5
 52 668 52 668 75 691 c 128,-1,6
 98 714 98 714 140 714 c 0,7,8
 183 714 183 714 206.5 691 c 128,-1,9
 230 668 230 668 230 624 c 2,10,-1
 230 294 l 1,11,-1
 232 294 l 1,12,-1
 354 442 l 2,13,14
 379 472 379 472 400.5 486.5 c 128,-1,15
 422 501 422 501 459 501 c 256,16,17
 496 501 496 501 516 483 c 128,-1,18
 536 465 536 465 537 438 c 128,-1,19
 538 411 538 411 515 384 c 2,20,-1
 383 228 l 1,21,-1
 383 290 l 1,22,-1
 531 104 l 2,23,24
 553 76 553 76 549 49.5 c 128,-1,25
 545 23 545 23 523.5 7 c 128,-1,26
 502 -9 502 -9 469 -9 c 0,27,28
 429 -9 429 -9 405 5.5 c 128,-1,29
 381 20 381 20 357 51 c 2,30,-1
 232 205 l 1,31,-1
 230 205 l 1,32,-1
 230 81 l 2,33,34
 230 -9 230 -9 140 -9 c 0,0,1
EndSplineSet
EndChar

StartChar: kgreenlandic
Encoding: 312 312 351
Width: 580
GlyphClass: 2
Flags: W
AnchorPoint: "Anchor-2" 290 0 basechar 0
AnchorPoint: "Anchor-0" 290 484 basechar 0
LayerCount: 2
Fore
SplineSet
140 -9 m 0,0,1
 98 -9 98 -9 75 14 c 128,-1,2
 52 37 52 37 52 81 c 2,3,-1
 52 412 l 2,4,5
 52 455 52 455 75 478 c 128,-1,6
 98 501 98 501 140 501 c 0,7,8
 183 501 183 501 206.5 478 c 128,-1,9
 230 455 230 455 230 412 c 2,10,-1
 230 294 l 1,11,-1
 232 294 l 1,12,-1
 354 442 l 2,13,14
 379 472 379 472 400.5 486.5 c 128,-1,15
 422 501 422 501 459 501 c 256,16,17
 496 501 496 501 516 483 c 128,-1,18
 536 465 536 465 537 438 c 128,-1,19
 538 411 538 411 515 384 c 2,20,-1
 383 228 l 1,21,-1
 383 290 l 1,22,-1
 531 104 l 2,23,24
 553 76 553 76 549 49.5 c 128,-1,25
 545 23 545 23 523.5 7 c 128,-1,26
 502 -9 502 -9 469 -9 c 0,27,28
 429 -9 429 -9 405 5.5 c 128,-1,29
 381 20 381 20 357 51 c 2,30,-1
 232 205 l 1,31,-1
 230 205 l 1,32,-1
 230 81 l 2,33,34
 230 37 230 37 207 14 c 128,-1,35
 184 -9 184 -9 140 -9 c 0,0,1
EndSplineSet
EndChar

StartChar: l
Encoding: 108 108 352
Width: 348
GlyphClass: 2
Flags: W
AnchorPoint: "Anchor-5" 150 357 basechar 0
AnchorPoint: "Anchor-2" 199 0 basechar 0
AnchorPoint: "Anchor-1" 263 705 basechar 0
AnchorPoint: "Anchor-0" 140 705 basechar 0
LayerCount: 2
Fore
SplineSet
239 -11 m 0,0,1
 143 -11 143 -11 97.5 40.5 c 128,-1,2
 52 92 52 92 52 196 c 2,3,-1
 52 624 l 2,4,5
 52 668 52 668 75 691 c 128,-1,6
 98 714 98 714 140 714 c 0,7,8
 183 714 183 714 206.5 691 c 128,-1,9
 230 668 230 668 230 624 c 2,10,-1
 230 202 l 2,11,12
 230 165 230 165 244.5 148 c 128,-1,13
 259 131 259 131 282 131 c 0,14,15
 289 131 289 131 296.5 132.5 c 128,-1,16
 304 134 304 134 313 135 c 0,17,18
 330 135 330 135 338.5 122 c 128,-1,19
 347 109 347 109 347 69 c 0,20,21
 347 34 347 34 333 16.5 c 128,-1,22
 319 -1 319 -1 290 -6 c 0,23,24
 282 -7 282 -7 267 -9 c 128,-1,25
 252 -11 252 -11 239 -11 c 0,0,1
EndSplineSet
Substitution2: "'ss02' Style Set 2 lookup 36 subtable" l.ss02
Substitution2: "'aalt' Access All Alternates lookup 0 subtable" l.ss02
EndChar

StartChar: m
Encoding: 109 109 361
Width: 902
GlyphClass: 2
Flags: W
AnchorPoint: "Anchor-2" 452 0 basechar 0
AnchorPoint: "Anchor-0" 452 484 basechar 0
LayerCount: 2
Fore
SplineSet
142 -9 m 0,0,1
 100 -9 100 -9 77 14 c 128,-1,2
 54 37 54 37 54 81 c 2,3,-1
 54 412 l 2,4,5
 54 455 54 455 76.5 478 c 128,-1,6
 99 501 99 501 141 501 c 256,7,8
 183 501 183 501 205 478 c 128,-1,9
 227 455 227 455 227 412 c 2,10,-1
 227 357 l 1,11,-1
 216 406 l 1,12,13
 237 450 237 450 278.5 476.5 c 128,-1,14
 320 503 320 503 377 503 c 0,15,16
 431 503 431 503 469.5 477 c 128,-1,17
 508 451 508 451 525 398 c 1,18,-1
 511 398 l 1,19,20
 534 447 534 447 580 475 c 128,-1,21
 626 503 626 503 682 503 c 0,22,23
 740 503 740 503 777 480.5 c 128,-1,24
 814 458 814 458 832.5 410.5 c 128,-1,25
 851 363 851 363 851 291 c 2,26,-1
 851 81 l 2,27,28
 851 37 851 37 827.5 14 c 128,-1,29
 804 -9 804 -9 761 -9 c 0,30,31
 719 -9 719 -9 696 14 c 128,-1,32
 673 37 673 37 673 81 c 2,33,-1
 673 286 l 2,34,35
 673 329 673 329 660 348 c 128,-1,36
 647 367 647 367 617 367 c 0,37,38
 580 367 580 367 560.5 341 c 128,-1,39
 541 315 541 315 541 267 c 2,40,-1
 541 81 l 2,41,42
 541 37 541 37 518 14 c 128,-1,43
 495 -9 495 -9 452 -9 c 256,44,45
 409 -9 409 -9 386 14 c 128,-1,46
 363 37 363 37 363 81 c 2,47,-1
 363 286 l 2,48,49
 363 329 363 329 350 348 c 128,-1,50
 337 367 337 367 307 367 c 0,51,52
 271 367 271 367 251.5 341 c 128,-1,53
 232 315 232 315 232 267 c 2,54,-1
 232 81 l 2,55,56
 232 -9 232 -9 142 -9 c 0,0,1
EndSplineSet
EndChar

StartChar: n
Encoding: 110 110 363
Width: 606
GlyphClass: 2
Flags: W
AnchorPoint: "Anchor-2" 305 0 basechar 0
AnchorPoint: "Anchor-0" 305 484 basechar 0
LayerCount: 2
Fore
SplineSet
140 -9 m 0,0,1
 98 -9 98 -9 75 14 c 128,-1,2
 52 37 52 37 52 81 c 2,3,-1
 52 412 l 2,4,5
 52 455 52 455 74.5 478 c 128,-1,6
 97 501 97 501 139 501 c 256,7,8
 181 501 181 501 203 478 c 128,-1,9
 225 455 225 455 225 412 c 2,10,-1
 225 365 l 1,11,-1
 214 406 l 1,12,13
 238 453 238 453 282.5 478 c 128,-1,14
 327 503 327 503 384 503 c 0,15,16
 443 503 443 503 481 480.5 c 128,-1,17
 519 458 519 458 538 410.5 c 128,-1,18
 557 363 557 363 557 291 c 2,19,-1
 557 81 l 2,20,21
 557 37 557 37 534 14 c 128,-1,22
 511 -9 511 -9 468 -9 c 256,23,24
 425 -9 425 -9 402 14 c 128,-1,25
 379 37 379 37 379 81 c 2,26,-1
 379 284 l 2,27,28
 379 329 379 329 363.5 348 c 128,-1,29
 348 367 348 367 318 367 c 0,30,31
 278 367 278 367 254 341.5 c 128,-1,32
 230 316 230 316 230 273 c 2,33,-1
 230 81 l 2,34,35
 230 -9 230 -9 140 -9 c 0,0,1
EndSplineSet
EndChar

StartChar: eng
Encoding: 331 331 373
Width: 606
GlyphClass: 1
Flags: W
LayerCount: 2
Fore
SplineSet
342 -188 m 0,0,1
 311 -189 311 -189 292.5 -177 c 128,-1,2
 274 -165 274 -165 267.5 -147 c 128,-1,3
 261 -129 261 -129 264.5 -110 c 128,-1,4
 268 -91 268 -91 281 -78 c 128,-1,5
 294 -65 294 -65 315 -63 c 0,6,7
 349 -59 349 -59 364 -44 c 128,-1,8
 379 -29 379 -29 379 3 c 2,9,-1
 379 284 l 2,10,11
 379 329 379 329 363.5 348 c 128,-1,12
 348 367 348 367 318 367 c 0,13,14
 278 367 278 367 254 341.5 c 128,-1,15
 230 316 230 316 230 273 c 2,16,-1
 230 81 l 2,17,18
 230 -9 230 -9 140 -9 c 0,19,20
 98 -9 98 -9 75 14 c 128,-1,21
 52 37 52 37 52 81 c 2,22,-1
 52 412 l 2,23,24
 52 455 52 455 74.5 478 c 128,-1,25
 97 501 97 501 139 501 c 256,26,27
 181 501 181 501 203 478 c 128,-1,28
 225 455 225 455 225 412 c 2,29,-1
 225 365 l 1,30,-1
 214 406 l 1,31,32
 238 453 238 453 282.5 478 c 128,-1,33
 327 503 327 503 384 503 c 0,34,35
 443 503 443 503 481 480.5 c 128,-1,36
 519 458 519 458 538 410.5 c 128,-1,37
 557 363 557 363 557 291 c 2,38,-1
 557 20 l 2,39,40
 557 -47 557 -47 534 -92.5 c 128,-1,41
 511 -138 511 -138 464 -162 c 128,-1,42
 417 -186 417 -186 342 -188 c 0,0,1
EndSplineSet
EndChar

StartChar: o
Encoding: 111 111 374
Width: 602
GlyphClass: 2
Flags: W
AnchorPoint: "Anchor-5" 301 246 basechar 0
AnchorPoint: "Anchor-3" 360 0 basechar 0
AnchorPoint: "Anchor-2" 301 0 basechar 0
AnchorPoint: "Anchor-1" 368 484 basechar 0
AnchorPoint: "Anchor-0" 301 484 basechar 0
LayerCount: 2
Fore
SplineSet
301 -11 m 0,0,1
 219 -11 219 -11 158 20 c 128,-1,2
 97 51 97 51 63 109 c 128,-1,3
 29 167 29 167 29 246 c 0,4,5
 29 306 29 306 48 353.5 c 128,-1,6
 67 401 67 401 103 434.5 c 128,-1,7
 139 468 139 468 189 485.5 c 128,-1,8
 239 503 239 503 301 503 c 0,9,10
 383 503 383 503 444 472 c 128,-1,11
 505 441 505 441 538.5 383.5 c 128,-1,12
 572 326 572 326 572 246 c 0,13,14
 572 187 572 187 553 139 c 128,-1,15
 534 91 534 91 498.5 57.5 c 128,-1,16
 463 24 463 24 412.5 6.5 c 128,-1,17
 362 -11 362 -11 301 -11 c 0,0,1
301 120 m 0,18,19
 328 120 328 120 349 133.5 c 128,-1,20
 370 147 370 147 381.5 174.5 c 128,-1,21
 393 202 393 202 393 246 c 0,22,23
 393 313 393 313 367 342.5 c 128,-1,24
 341 372 341 372 301 372 c 0,25,26
 274 372 274 372 253 359 c 128,-1,27
 232 346 232 346 220 318.5 c 128,-1,28
 208 291 208 291 208 246 c 0,29,30
 208 180 208 180 234 150 c 128,-1,31
 260 120 260 120 301 120 c 0,18,19
EndSplineSet
Substitution2: "Single Substitution lookup 29 subtable" ordmasculine
Substitution2: "'aalt' Access All Alternates lookup 0 subtable" ordmasculine
EndChar

StartChar: oslash
Encoding: 248 248 402
Width: 602
GlyphClass: 2
Flags: W
AnchorPoint: "Anchor-5" 302 246 basechar 0
AnchorPoint: "Anchor-0" 300 484 basechar 0
LayerCount: 2
Fore
SplineSet
301 -11 m 0,0,1
 219 -11 219 -11 158 20 c 128,-1,2
 97 51 97 51 63 109 c 128,-1,3
 29 167 29 167 29 246 c 0,4,5
 29 306 29 306 48 353.5 c 128,-1,6
 67 401 67 401 103 434.5 c 128,-1,7
 139 468 139 468 189 485.5 c 128,-1,8
 239 503 239 503 301 503 c 0,9,10
 383 503 383 503 444 472 c 128,-1,11
 505 441 505 441 538.5 383.5 c 128,-1,12
 572 326 572 326 572 246 c 0,13,14
 572 187 572 187 553 139 c 128,-1,15
 534 91 534 91 498.5 57.5 c 128,-1,16
 463 24 463 24 412.5 6.5 c 128,-1,17
 362 -11 362 -11 301 -11 c 0,0,1
301 111 m 0,18,19
 333 111 333 111 357 125.5 c 128,-1,20
 381 140 381 140 394.5 170.5 c 128,-1,21
 408 201 408 201 408 247 c 0,22,23
 408 316 408 316 378.5 349 c 128,-1,24
 349 382 349 382 301 382 c 0,25,26
 269 382 269 382 245 367.5 c 128,-1,27
 221 353 221 353 207 323 c 128,-1,28
 193 293 193 293 193 247 c 0,29,30
 193 177 193 177 223.5 144 c 128,-1,31
 254 111 254 111 301 111 c 0,18,19
188 -38 m 2,32,33
 176 -58 176 -58 158 -61 c 128,-1,34
 140 -64 140 -64 123.5 -55 c 128,-1,35
 107 -46 107 -46 101.5 -28.5 c 128,-1,36
 96 -11 96 -11 108 11 c 2,37,-1
 414 530 l 2,38,39
 426 551 426 551 444 553.5 c 128,-1,40
 462 556 462 556 478 546.5 c 128,-1,41
 494 537 494 537 500.5 519 c 128,-1,42
 507 501 507 501 494 480 c 2,43,-1
 188 -38 l 2,32,33
EndSplineSet
EndChar

StartChar: oe
Encoding: 339 339 408
Width: 921
GlyphClass: 2
Flags: W
AnchorPoint: "Anchor-2" 480 0 basechar 0
AnchorPoint: "Anchor-0" 480 484 basechar 0
LayerCount: 2
Fore
SplineSet
295 -11 m 0,0,1
 214 -11 214 -11 154.5 20.5 c 128,-1,2
 95 52 95 52 62 110.5 c 128,-1,3
 29 169 29 169 29 248 c 0,4,5
 29 307 29 307 48 354 c 128,-1,6
 67 401 67 401 101.5 434.5 c 128,-1,7
 136 468 136 468 185 485.5 c 128,-1,8
 234 503 234 503 295 503 c 0,9,10
 363 503 363 503 414 480 c 128,-1,11
 465 457 465 457 498 414 c 1,12,-1
 464 414 l 1,13,14
 495 456 495 456 544 479.5 c 128,-1,15
 593 503 593 503 654 503 c 0,16,17
 730 503 730 503 783.5 472 c 128,-1,18
 837 441 837 441 866 383.5 c 128,-1,19
 895 326 895 326 895 249 c 0,20,21
 895 229 895 229 884 219.5 c 128,-1,22
 873 210 873 210 849 210 c 2,23,-1
 549 210 l 1,24,-1
 549 294 l 1,25,-1
 766 294 l 1,26,-1
 750 281 l 1,27,28
 750 318 750 318 740 341 c 128,-1,29
 730 364 730 364 710.5 376 c 128,-1,30
 691 388 691 388 663 388 c 0,31,32
 631 388 631 388 610 373.5 c 128,-1,33
 589 359 589 359 578.5 331 c 128,-1,34
 568 303 568 303 568 261 c 2,35,-1
 568 252 l 2,36,37
 568 181 568 181 597.5 150 c 128,-1,38
 627 119 627 119 692 119 c 0,39,40
 709 119 709 119 739 124 c 128,-1,41
 769 129 769 129 795 141 c 0,42,43
 820 152 820 152 839.5 146 c 128,-1,44
 859 140 859 140 869.5 124 c 128,-1,45
 880 108 880 108 881 88 c 128,-1,46
 882 68 882 68 871 49.5 c 128,-1,47
 860 31 860 31 835 20 c 0,48,49
 804 6 804 6 765 -2.5 c 128,-1,50
 726 -11 726 -11 686 -11 c 0,51,52
 610 -11 610 -11 553.5 14.5 c 128,-1,53
 497 40 497 40 465 88 c 1,54,-1
 499 88 l 1,55,56
 466 41 466 41 415 15 c 128,-1,57
 364 -11 364 -11 295 -11 c 0,0,1
301 120 m 0,58,59
 329 120 329 120 349.5 133.5 c 128,-1,60
 370 147 370 147 381.5 175 c 128,-1,61
 393 203 393 203 393 247 c 0,62,63
 393 313 393 313 367 342.5 c 128,-1,64
 341 372 341 372 301 372 c 0,65,66
 274 372 274 372 253 359 c 128,-1,67
 232 346 232 346 220 318.5 c 128,-1,68
 208 291 208 291 208 247 c 0,69,70
 208 181 208 181 234.5 150.5 c 128,-1,71
 261 120 261 120 301 120 c 0,58,59
EndSplineSet
EndChar

StartChar: p
Encoding: 112 112 409
Width: 620
GlyphClass: 2
Flags: W
AnchorPoint: "Anchor-2" 309 0 basechar 0
AnchorPoint: "Anchor-0" 309 484 basechar 0
LayerCount: 2
Fore
SplineSet
140 -189 m 0,0,1
 98 -189 98 -189 75 -166 c 128,-1,2
 52 -143 52 -143 52 -99 c 2,3,-1
 52 412 l 2,4,5
 52 455 52 455 74.5 478 c 128,-1,6
 97 501 97 501 139 501 c 0,7,8
 182 501 182 501 204.5 478 c 128,-1,9
 227 455 227 455 227 412 c 2,10,-1
 227 354 l 1,11,-1
 216 403 l 1,12,13
 230 448 230 448 274.5 475.5 c 128,-1,14
 319 503 319 503 376 503 c 0,15,16
 440 503 440 503 488.5 472 c 128,-1,17
 537 441 537 441 564 384 c 128,-1,18
 591 327 591 327 591 246 c 0,19,20
 591 167 591 167 564 109 c 128,-1,21
 537 51 537 51 488.5 20 c 128,-1,22
 440 -11 440 -11 376 -11 c 0,23,24
 321 -11 321 -11 277 15 c 128,-1,25
 233 41 233 41 218 83 c 1,26,-1
 230 83 l 1,27,-1
 230 -99 l 2,28,29
 230 -143 230 -143 206.5 -166 c 128,-1,30
 183 -189 183 -189 140 -189 c 0,0,1
320 120 m 0,31,32
 347 120 347 120 367.5 133.5 c 128,-1,33
 388 147 388 147 400 174.5 c 128,-1,34
 412 202 412 202 412 246 c 0,35,36
 412 313 412 313 386 342.5 c 128,-1,37
 360 372 360 372 320 372 c 0,38,39
 293 372 293 372 272 359 c 128,-1,40
 251 346 251 346 239 318.5 c 128,-1,41
 227 291 227 291 227 246 c 0,42,43
 227 180 227 180 253 150 c 128,-1,44
 279 120 279 120 320 120 c 0,31,32
EndSplineSet
EndChar

StartChar: thorn
Encoding: 254 254 410
Width: 620
GlyphClass: 2
Flags: W
AnchorPoint: "Anchor-2" 313 0 basechar 0
AnchorPoint: "Anchor-0" 313 484 basechar 0
LayerCount: 2
Fore
SplineSet
140 -189 m 0,0,1
 98 -189 98 -189 75 -166 c 128,-1,2
 52 -143 52 -143 52 -99 c 2,3,-1
 52 624 l 2,4,5
 52 668 52 668 75.5 691 c 128,-1,6
 99 714 99 714 140 714 c 0,7,8
 183 714 183 714 206.5 691 c 128,-1,9
 230 668 230 668 230 624 c 2,10,-1
 230 403 l 1,11,-1
 216 403 l 1,12,13
 230 448 230 448 274.5 475.5 c 128,-1,14
 319 503 319 503 376 503 c 0,15,16
 440 503 440 503 488.5 472 c 128,-1,17
 537 441 537 441 564 384 c 128,-1,18
 591 327 591 327 591 246 c 0,19,20
 591 167 591 167 564 109 c 128,-1,21
 537 51 537 51 488.5 20 c 128,-1,22
 440 -11 440 -11 376 -11 c 0,23,24
 321 -11 321 -11 277 15 c 128,-1,25
 233 41 233 41 218 83 c 1,26,-1
 230 83 l 1,27,-1
 230 -99 l 2,28,29
 230 -143 230 -143 206.5 -166 c 128,-1,30
 183 -189 183 -189 140 -189 c 0,0,1
320 120 m 0,31,32
 347 120 347 120 367.5 133.5 c 128,-1,33
 388 147 388 147 400 174.5 c 128,-1,34
 412 202 412 202 412 246 c 0,35,36
 412 313 412 313 386 342.5 c 128,-1,37
 360 372 360 372 320 372 c 0,38,39
 293 372 293 372 272 359 c 128,-1,40
 251 346 251 346 239 318.5 c 128,-1,41
 227 291 227 291 227 246 c 0,42,43
 227 180 227 180 253 150 c 128,-1,44
 279 120 279 120 320 120 c 0,31,32
EndSplineSet
EndChar

StartChar: q
Encoding: 113 113 411
Width: 620
GlyphClass: 2
Flags: W
AnchorPoint: "Anchor-2" 313 0 basechar 0
AnchorPoint: "Anchor-0" 313 484 basechar 0
LayerCount: 2
Fore
SplineSet
480 -189 m 0,0,1
 437 -189 437 -189 414 -166 c 128,-1,2
 391 -143 391 -143 391 -99 c 2,3,-1
 391 83 l 1,4,-1
 402 83 l 1,5,6
 387 41 387 41 343 15 c 128,-1,7
 299 -11 299 -11 244 -11 c 0,8,9
 181 -11 181 -11 132.5 20 c 128,-1,10
 84 51 84 51 56.5 109 c 128,-1,11
 29 167 29 167 29 246 c 0,12,13
 29 327 29 327 56.5 384 c 128,-1,14
 84 441 84 441 132.5 472 c 128,-1,15
 181 503 181 503 244 503 c 0,16,17
 301 503 301 503 345.5 475.5 c 128,-1,18
 390 448 390 448 404 403 c 1,19,-1
 393 354 l 1,20,-1
 393 412 l 2,21,22
 393 455 393 455 416 478 c 128,-1,23
 439 501 439 501 481 501 c 0,24,25
 524 501 524 501 546.5 478 c 128,-1,26
 569 455 569 455 569 412 c 2,27,-1
 569 -99 l 2,28,29
 569 -143 569 -143 545.5 -166 c 128,-1,30
 522 -189 522 -189 480 -189 c 0,0,1
301 120 m 0,31,32
 328 120 328 120 349 133.5 c 128,-1,33
 370 147 370 147 381.5 174.5 c 128,-1,34
 393 202 393 202 393 246 c 0,35,36
 393 313 393 313 367 342.5 c 128,-1,37
 341 372 341 372 301 372 c 0,38,39
 274 372 274 372 253 359 c 128,-1,40
 232 346 232 346 220 318.5 c 128,-1,41
 208 291 208 291 208 246 c 0,42,43
 208 180 208 180 234 150 c 128,-1,44
 260 120 260 120 301 120 c 0,31,32
EndSplineSet
EndChar

StartChar: r
Encoding: 114 114 412
Width: 434
GlyphClass: 2
Flags: W
AnchorPoint: "Anchor-2" 142 0 basechar 0
AnchorPoint: "Anchor-0" 241 484 basechar 0
LayerCount: 2
Fore
SplineSet
143 -9 m 256,0,1
 99 -9 99 -9 75.5 14 c 128,-1,2
 52 37 52 37 52 81 c 2,3,-1
 52 412 l 2,4,5
 52 455 52 455 74.5 478 c 128,-1,6
 97 501 97 501 139 501 c 256,7,8
 181 501 181 501 203 478 c 128,-1,9
 225 455 225 455 225 412 c 2,10,-1
 225 371 l 1,11,-1
 215 371 l 1,12,13
 225 431 225 431 266.5 466 c 128,-1,14
 308 501 308 501 370 503 c 0,15,16
 399 504 399 504 413.5 488.5 c 128,-1,17
 428 473 428 473 429 431 c 0,18,19
 429 395 429 395 414 374 c 128,-1,20
 399 353 399 353 357 349 c 2,21,-1
 334 347 l 2,22,23
 281 342 281 342 257 317.5 c 128,-1,24
 233 293 233 293 233 245 c 2,25,-1
 233 81 l 2,26,27
 233 37 233 37 210 14 c 128,-1,28
 187 -9 187 -9 143 -9 c 256,0,1
EndSplineSet
EndChar

StartChar: s
Encoding: 115 115 420
Width: 496
GlyphClass: 2
Flags: W
AnchorPoint: "Anchor-2" 249 0 basechar 0
AnchorPoint: "Anchor-0" 257 484 basechar 0
LayerCount: 2
Fore
SplineSet
248 -11 m 0,0,1
 204 -11 204 -11 158.5 -4.5 c 128,-1,2
 113 2 113 2 76 19 c 0,3,4
 51 29 51 29 40.5 46 c 128,-1,5
 30 63 30 63 30.5 82 c 128,-1,6
 31 101 31 101 41.5 116.5 c 128,-1,7
 52 132 52 132 69.5 138.5 c 128,-1,8
 87 145 87 145 109 137 c 0,9,10
 151 122 151 122 184.5 115.5 c 128,-1,11
 218 109 218 109 249 109 c 0,12,13
 286 109 286 109 302 119.5 c 128,-1,14
 318 130 318 130 318 147 c 0,15,16
 318 162 318 162 307.5 170 c 128,-1,17
 297 178 297 178 278 181 c 2,18,-1
 167 199 l 2,19,20
 105 210 105 210 71 244.5 c 128,-1,21
 37 279 37 279 37 335 c 0,22,23
 37 387 37 387 66.5 424.5 c 128,-1,24
 96 462 96 462 147.5 482.5 c 128,-1,25
 199 503 199 503 266 503 c 0,26,27
 311 503 311 503 348 496.5 c 128,-1,28
 385 490 385 490 420 473 c 0,29,30
 442 464 442 464 451 447 c 128,-1,31
 460 430 460 430 458 411.5 c 128,-1,32
 456 393 456 393 445.5 377.5 c 128,-1,33
 435 362 435 362 417 356.5 c 128,-1,34
 399 351 399 351 375 359 c 0,35,36
 342 372 342 372 316.5 378 c 128,-1,37
 291 384 291 384 269 384 c 0,38,39
 228 384 228 384 211 373 c 128,-1,40
 194 362 194 362 194 345 c 0,41,42
 194 332 194 332 203 323.5 c 128,-1,43
 212 315 212 315 231 312 c 2,44,-1
 342 293 l 2,45,46
 406 283 406 283 440.5 249.5 c 128,-1,47
 475 216 475 216 475 159 c 0,48,49
 475 78 475 78 413 33.5 c 128,-1,50
 351 -11 351 -11 248 -11 c 0,0,1
EndSplineSet
EndChar

StartChar: germandbls
Encoding: 223 223 431
Width: 700
GlyphClass: 1
Flags: W
LayerCount: 2
Fore
SplineSet
476 -11 m 0,0,1
 435 -11 435 -11 391.5 -1.5 c 128,-1,2
 348 8 348 8 313 24 c 0,3,4
 289 34 289 34 279.5 52.5 c 128,-1,5
 270 71 270 71 272.5 91 c 128,-1,6
 275 111 275 111 287 126.5 c 128,-1,7
 299 142 299 142 317.5 148 c 128,-1,8
 336 154 336 154 358 145 c 0,9,10
 392 130 392 130 423.5 123.5 c 128,-1,11
 455 117 455 117 478 117 c 0,12,13
 502 117 502 117 514.5 125.5 c 128,-1,14
 527 134 527 134 527 152 c 0,15,16
 527 168 527 168 510.5 178.5 c 128,-1,17
 494 189 494 189 446 202 c 0,18,19
 368 225 368 225 336 259.5 c 128,-1,20
 304 294 304 294 304 345 c 0,21,22
 304 366 304 366 309.5 386 c 128,-1,23
 315 406 315 406 329.5 428.5 c 128,-1,24
 344 451 344 451 370 479 c 0,25,26
 389 501 389 501 397 516.5 c 128,-1,27
 405 532 405 532 405 548 c 0,28,29
 405 567 405 567 390.5 579.5 c 128,-1,30
 376 592 376 592 344 592 c 0,31,32
 288 592 288 592 259 558 c 128,-1,33
 230 524 230 524 230 463 c 2,34,-1
 230 81 l 2,35,36
 230 37 230 37 206.5 14 c 128,-1,37
 183 -9 183 -9 140 -9 c 0,38,39
 98 -9 98 -9 75 14 c 128,-1,40
 52 37 52 37 52 81 c 2,41,-1
 52 433 l 2,42,43
 52 571 52 571 127.5 643.5 c 128,-1,44
 203 716 203 716 346 716 c 0,45,46
 417 716 417 716 467 697.5 c 128,-1,47
 517 679 517 679 543.5 645 c 128,-1,48
 570 611 570 611 570 565 c 0,49,50
 570 532 570 532 557.5 502.5 c 128,-1,51
 545 473 545 473 512 440 c 0,52,53
 493 420 493 420 482.5 407.5 c 128,-1,54
 472 395 472 395 468 386 c 128,-1,55
 464 377 464 377 464 369 c 0,56,57
 464 354 464 354 481.5 342.5 c 128,-1,58
 499 331 499 331 552 316 c 0,59,60
 623 295 623 295 654.5 257.5 c 128,-1,61
 686 220 686 220 686 164 c 0,62,63
 686 111 686 111 660 71.5 c 128,-1,64
 634 32 634 32 587 10.5 c 128,-1,65
 540 -11 540 -11 476 -11 c 0,0,1
EndSplineSet
Substitution2: "Single Substitution lookup 39 subtable" germandbls.calt
Substitution2: "Single Substitution lookup 38 subtable" germandbls.calt
Substitution2: "'aalt' Access All Alternates lookup 0 subtable" germandbls.calt
EndChar

StartChar: t
Encoding: 116 116 432
Width: 426
GlyphClass: 2
Flags: W
AnchorPoint: "Anchor-5" 198 253 basechar 0
AnchorPoint: "Anchor-2" 247 0 basechar 0
AnchorPoint: "Anchor-1" 307 705 basechar 0
AnchorPoint: "Anchor-0" 179 635 basechar 0
LayerCount: 2
Fore
SplineSet
310 -11 m 0,0,1
 235 -11 235 -11 186.5 12 c 128,-1,2
 138 35 138 35 114 81.5 c 128,-1,3
 90 128 90 128 90 198 c 2,4,-1
 90 361 l 1,5,-1
 56 361 l 2,6,7
 24 361 24 361 6.5 378 c 128,-1,8
 -11 395 -11 395 -11 427 c 256,9,10
 -11 459 -11 459 6.5 475.5 c 128,-1,11
 24 492 24 492 56 492 c 2,12,-1
 90 492 l 1,13,-1
 90 554 l 2,14,15
 90 598 90 598 113 621 c 128,-1,16
 136 644 136 644 179 644 c 256,17,18
 222 644 222 644 245 621 c 128,-1,19
 268 598 268 598 268 554 c 2,20,-1
 268 492 l 1,21,-1
 350 492 l 2,22,23
 383 492 383 492 400.5 475.5 c 128,-1,24
 418 459 418 459 418 427 c 256,25,26
 418 395 418 395 400.5 378 c 128,-1,27
 383 361 383 361 350 361 c 2,28,-1
 268 361 l 1,29,-1
 268 204 l 2,30,31
 268 167 268 167 285.5 149.5 c 128,-1,32
 303 132 303 132 341 132 c 0,33,34
 355 132 355 132 368 135 c 128,-1,35
 381 138 381 138 392 138 c 0,36,37
 408 139 408 139 418 128.5 c 128,-1,38
 428 118 428 118 428 81 c 0,39,40
 428 51 428 51 419 30.5 c 128,-1,41
 410 10 410 10 387 1 c 0,42,43
 373 -4 373 -4 349 -7.5 c 128,-1,44
 325 -11 325 -11 310 -11 c 0,0,1
EndSplineSet
EndChar

StartChar: u
Encoding: 117 117 440
Width: 601
GlyphClass: 2
Flags: W
AnchorPoint: "Anchor-3" 492 0 basechar 0
AnchorPoint: "Anchor-2" 300 0 basechar 0
AnchorPoint: "Anchor-1" 423 484 basechar 0
AnchorPoint: "Anchor-0" 300 484 basechar 0
LayerCount: 2
Fore
SplineSet
236 -11 m 0,0,1
 172 -11 172 -11 131 12.5 c 128,-1,2
 90 36 90 36 69.5 83 c 128,-1,3
 49 130 49 130 49 202 c 2,4,-1
 49 412 l 2,5,6
 49 456 49 456 72 478.5 c 128,-1,7
 95 501 95 501 138 501 c 256,8,9
 181 501 181 501 204 478.5 c 128,-1,10
 227 456 227 456 227 412 c 2,11,-1
 227 197 l 2,12,13
 227 161 227 161 242 143 c 128,-1,14
 257 125 257 125 289 125 c 0,15,16
 325 125 325 125 348 151 c 128,-1,17
 371 177 371 177 371 220 c 2,18,-1
 371 412 l 2,19,20
 371 456 371 456 394 478.5 c 128,-1,21
 417 501 417 501 460 501 c 256,22,23
 503 501 503 501 526 478.5 c 128,-1,24
 549 456 549 456 549 412 c 2,25,-1
 549 81 l 2,26,27
 549 -9 549 -9 463 -9 c 0,28,29
 421 -9 421 -9 398 14 c 128,-1,30
 375 37 375 37 375 81 c 2,31,-1
 375 139 l 1,32,-1
 391 90 l 1,33,34
 369 41 369 41 329.5 15 c 128,-1,35
 290 -11 290 -11 236 -11 c 0,0,1
EndSplineSet
EndChar

StartChar: uhorn
Encoding: 432 432 450
Width: 601
GlyphClass: 2
Flags: W
AnchorPoint: "Anchor-2" 300 0 basechar 0
AnchorPoint: "Anchor-0" 299 484 basechar 0
LayerCount: 2
Fore
SplineSet
236 -11 m 0,0,1
 172 -11 172 -11 131 12.5 c 128,-1,2
 90 36 90 36 69.5 83 c 128,-1,3
 49 130 49 130 49 202 c 2,4,-1
 49 412 l 2,5,6
 49 455 49 455 72 478 c 128,-1,7
 95 501 95 501 138 501 c 256,8,9
 181 501 181 501 204 478 c 128,-1,10
 227 455 227 455 227 412 c 2,11,-1
 227 197 l 2,12,13
 227 161 227 161 242 143 c 128,-1,14
 257 125 257 125 289 125 c 0,15,16
 325 125 325 125 348 151 c 128,-1,17
 371 177 371 177 371 220 c 2,18,-1
 371 404 l 2,19,20
 371 448 371 448 393 470 c 128,-1,21
 415 492 415 492 454 496 c 0,22,23
 469 498 469 498 480.5 505 c 128,-1,24
 492 512 492 512 498.5 526.5 c 128,-1,25
 505 541 505 541 505 565 c 0,26,27
 505 617 505 617 583 617 c 0,28,29
 619 617 619 617 639 604 c 128,-1,30
 659 591 659 591 659 566 c 0,31,32
 659 510 659 510 628.5 469.5 c 128,-1,33
 598 429 598 429 549 415 c 1,34,-1
 549 81 l 2,35,36
 549 -9 549 -9 463 -9 c 0,37,38
 421 -9 421 -9 398 14 c 128,-1,39
 375 37 375 37 375 81 c 2,40,-1
 375 139 l 1,41,-1
 391 90 l 1,42,43
 369 41 369 41 329.5 15 c 128,-1,44
 290 -11 290 -11 236 -11 c 0,0,1
EndSplineSet
EndChar

StartChar: uogonek
Encoding: 371 371 460
Width: 601
GlyphClass: 1
Flags: W
LayerCount: 2
Fore
SplineSet
375 139 m 1,0,-1
 391 90 l 1,1,2
 369 41 369 41 329.5 15 c 128,-1,3
 290 -11 290 -11 236 -11 c 0,4,5
 172 -11 172 -11 131 12.5 c 128,-1,6
 90 36 90 36 69.5 83 c 128,-1,7
 49 130 49 130 49 202 c 2,8,-1
 49 412 l 2,9,10
 49 455 49 455 72 478 c 128,-1,11
 95 501 95 501 138 501 c 256,12,13
 181 501 181 501 204 478 c 128,-1,14
 227 455 227 455 227 412 c 2,15,-1
 227 197 l 2,16,17
 227 161 227 161 242 143 c 128,-1,18
 257 125 257 125 289 125 c 0,19,20
 325 125 325 125 348 151 c 128,-1,21
 371 177 371 177 371 220 c 2,22,-1
 371 412 l 2,23,24
 371 455 371 455 394 478 c 128,-1,25
 417 501 417 501 460 501 c 256,26,27
 503 501 503 501 526 478 c 128,-1,28
 549 455 549 455 549 412 c 2,29,-1
 549 81 l 2,30,31
 549 42 549 42 532 20 c 128,-1,32
 515 -2 515 -2 482 -8 c 0,33,34
 462 -13 462 -13 450.5 -30.5 c 128,-1,35
 439 -48 439 -48 439 -66 c 0,36,37
 439 -87 439 -87 454.5 -99 c 128,-1,38
 470 -111 470 -111 492 -111 c 0,39,40
 499 -111 499 -111 505.5 -110 c 128,-1,41
 512 -109 512 -109 518 -108 c 0,42,43
 542 -104 542 -104 555 -113.5 c 128,-1,44
 568 -123 568 -123 570 -138.5 c 128,-1,45
 572 -154 572 -154 563 -168.5 c 128,-1,46
 554 -183 554 -183 534 -190 c 0,47,48
 516 -195 516 -195 499 -196.5 c 128,-1,49
 482 -198 482 -198 468 -198 c 0,50,51
 404 -198 404 -198 369 -168 c 128,-1,52
 334 -138 334 -138 334 -87 c 0,53,54
 334 -50 334 -50 354 -19.5 c 128,-1,55
 374 11 374 11 408 31 c 1,56,-1
 397 15 l 1,57,58
 386 27 386 27 380.5 43.5 c 128,-1,59
 375 60 375 60 375 81 c 2,60,-1
 375 139 l 1,0,-1
EndSplineSet
EndChar

StartChar: v
Encoding: 118 118 464
Width: 542
GlyphClass: 2
Flags: W
AnchorPoint: "Anchor-2" 273 0 basechar 0
AnchorPoint: "Anchor-0" 273 484 basechar 0
LayerCount: 2
Fore
SplineSet
270 -9 m 0,0,1
 235 -9 235 -9 210.5 8.5 c 128,-1,2
 186 26 186 26 170 61 c 2,3,-1
 27 388 l 2,4,5
 15 418 15 418 19 444 c 128,-1,6
 23 470 23 470 44.5 485.5 c 128,-1,7
 66 501 66 501 104 501 c 0,8,9
 136 501 136 501 155.5 486.5 c 128,-1,10
 175 472 175 472 191 430 c 2,11,-1
 292 170 l 1,12,-1
 258 170 l 1,13,-1
 364 431 l 2,14,15
 380 472 380 472 400 486.5 c 128,-1,16
 420 501 420 501 455 501 c 0,17,18
 485 501 485 501 503.5 485.5 c 128,-1,19
 522 470 522 470 526 444 c 128,-1,20
 530 418 530 418 516 388 c 2,21,-1
 370 60 l 2,22,23
 355 25 355 25 330.5 8 c 128,-1,24
 306 -9 306 -9 270 -9 c 0,0,1
EndSplineSet
EndChar

StartChar: w
Encoding: 119 119 465
Width: 868
GlyphClass: 2
Flags: W
AnchorPoint: "Anchor-2" 435 0 basechar 0
AnchorPoint: "Anchor-0" 435 484 basechar 0
LayerCount: 2
Fore
SplineSet
266 -9 m 0,0,1
 232 -9 232 -9 207 7.5 c 128,-1,2
 182 24 182 24 167 59 c 2,3,-1
 31 388 l 2,4,5
 18 419 18 419 22 444.5 c 128,-1,6
 26 470 26 470 46.5 485.5 c 128,-1,7
 67 501 67 501 103 501 c 0,8,9
 134 501 134 501 154 486.5 c 128,-1,10
 174 472 174 472 190 430 c 2,11,-1
 286 178 l 1,12,-1
 265 178 l 1,13,-1
 366 449 l 2,14,15
 376 476 376 476 393.5 488.5 c 128,-1,16
 411 501 411 501 438 501 c 0,17,18
 467 501 467 501 484 488 c 128,-1,19
 501 475 501 475 511 449 c 2,20,-1
 612 178 l 1,21,-1
 594 178 l 1,22,-1
 691 436 l 2,23,24
 705 474 705 474 727 487.5 c 128,-1,25
 749 501 749 501 774 501 c 0,26,27
 808 501 808 501 826 485 c 128,-1,28
 844 469 844 469 846.5 443 c 128,-1,29
 849 417 849 417 836 387 c 2,30,-1
 701 60 l 2,31,32
 687 25 687 25 662 8 c 128,-1,33
 637 -9 637 -9 603 -9 c 0,34,35
 568 -9 568 -9 543.5 8 c 128,-1,36
 519 25 519 25 504 60 c 2,37,-1
 394 335 l 1,38,-1
 467 335 l 1,39,-1
 363 62 l 2,40,41
 349 26 349 26 325 8.5 c 128,-1,42
 301 -9 301 -9 266 -9 c 0,0,1
EndSplineSet
EndChar

StartChar: x
Encoding: 120 120 470
Width: 572
GlyphClass: 2
Flags: W
AnchorPoint: "Anchor-2" 287 0 basechar 0
AnchorPoint: "Anchor-0" 287 484 basechar 0
LayerCount: 2
Fore
SplineSet
121 -8 m 0,0,1
 88 -8 88 -8 68 10 c 128,-1,2
 48 28 48 28 47.5 56 c 128,-1,3
 47 84 47 84 70 113 c 2,4,-1
 218 293 l 1,5,-1
 218 214 l 1,6,-1
 82 380 l 2,7,8
 59 410 59 410 59.5 437.5 c 128,-1,9
 60 465 60 465 80 483 c 128,-1,10
 100 501 100 501 133 501 c 0,11,12
 165 501 165 501 185.5 490.5 c 128,-1,13
 206 480 206 480 225 456 c 2,14,-1
 318 336 l 1,15,-1
 256 336 l 1,16,-1
 349 456 l 2,17,18
 368 480 368 480 389 490.5 c 128,-1,19
 410 501 410 501 441 501 c 0,20,21
 475 501 475 501 494.5 483 c 128,-1,22
 514 465 514 465 514.5 437 c 128,-1,23
 515 409 515 409 491 380 c 2,24,-1
 355 214 l 1,25,-1
 355 293 l 1,26,-1
 504 113 l 2,27,28
 528 85 528 85 527 57 c 128,-1,29
 526 29 526 29 506 10.5 c 128,-1,30
 486 -8 486 -8 452 -8 c 0,31,32
 421 -8 421 -8 400 2.5 c 128,-1,33
 379 13 379 13 360 37 c 2,34,-1
 256 170 l 1,35,-1
 317 170 l 1,36,-1
 212 37 l 2,37,38
 194 14 194 14 173.5 3 c 128,-1,39
 153 -8 153 -8 121 -8 c 0,0,1
EndSplineSet
EndChar

StartChar: y
Encoding: 121 121 471
Width: 541
GlyphClass: 2
Flags: W
AnchorPoint: "Anchor-2" 435 0 basechar 0
AnchorPoint: "Anchor-0" 271 484 basechar 0
LayerCount: 2
Fore
SplineSet
195 -189 m 0,0,1
 164 -189 164 -189 145 -173 c 128,-1,2
 126 -157 126 -157 121.5 -131 c 128,-1,3
 117 -105 117 -105 130 -76 c 2,4,-1
 197 69 l 1,5,-1
 197 -3 l 1,6,-1
 26 388 l 2,7,8
 13 418 13 418 17.5 444 c 128,-1,9
 22 470 22 470 44 485.5 c 128,-1,10
 66 501 66 501 104 501 c 0,11,12
 136 501 136 501 155.5 486.5 c 128,-1,13
 175 472 175 472 191 430 c 2,14,-1
 291 170 l 1,15,-1
 257 170 l 1,16,-1
 363 431 l 2,17,18
 379 472 379 472 399.5 486.5 c 128,-1,19
 420 501 420 501 455 501 c 0,20,21
 485 501 485 501 503 485.5 c 128,-1,22
 521 470 521 470 525 444 c 128,-1,23
 529 418 529 418 516 388 c 2,24,-1
 289 -122 l 2,25,26
 271 -162 271 -162 249.5 -175.5 c 128,-1,27
 228 -189 228 -189 195 -189 c 0,0,1
EndSplineSet
EndChar

StartChar: uni01B4
Encoding: 436 436 478
Width: 595
GlyphClass: 1
Flags: W
LayerCount: 2
Fore
SplineSet
195 -189 m 0,0,1
 164 -189 164 -189 145 -173 c 128,-1,2
 126 -157 126 -157 121.5 -131 c 128,-1,3
 117 -105 117 -105 131 -75 c 2,4,-1
 197 69 l 1,5,-1
 197 -3 l 1,6,-1
 26 388 l 2,7,8
 13 418 13 418 17.5 444 c 128,-1,9
 22 470 22 470 44 485.5 c 128,-1,10
 66 501 66 501 104 501 c 0,11,12
 136 501 136 501 155.5 486.5 c 128,-1,13
 175 472 175 472 191 430 c 2,14,-1
 291 170 l 1,15,-1
 257 170 l 1,16,-1
 340 372 l 2,17,18
 355 410 355 410 379.5 440 c 128,-1,19
 404 470 404 470 442.5 486.5 c 128,-1,20
 481 503 481 503 536 503 c 0,21,22
 595 503 595 503 615.5 484.5 c 128,-1,23
 636 466 636 466 636 436 c 0,24,25
 636 402 636 402 626 383.5 c 128,-1,26
 616 365 616 365 594 365 c 0,27,28
 589 365 589 365 581 366 c 128,-1,29
 573 367 573 367 560 367 c 0,30,31
 535 367 535 367 514 351.5 c 128,-1,32
 493 336 493 336 478 303 c 2,33,-1
 289 -122 l 2,34,35
 271 -162 271 -162 249.5 -175.5 c 128,-1,36
 228 -189 228 -189 195 -189 c 0,0,1
EndSplineSet
EndChar

StartChar: z
Encoding: 122 122 482
Width: 487
GlyphClass: 2
Flags: W
AnchorPoint: "Anchor-2" 248 0 basechar 0
AnchorPoint: "Anchor-0" 248 484 basechar 0
LayerCount: 2
Fore
SplineSet
106 0 m 2,0,1
 79 0 79 0 62 13.5 c 128,-1,2
 45 27 45 27 39 48 c 128,-1,3
 33 69 33 69 39.5 93.5 c 128,-1,4
 46 118 46 118 65 139 c 2,5,-1
 297 401 l 1,6,-1
 297 361 l 1,7,-1
 99 361 l 2,8,9
 67 361 67 361 50 378 c 128,-1,10
 33 395 33 395 33 427 c 256,11,12
 33 459 33 459 50 475.5 c 128,-1,13
 67 492 67 492 99 492 c 2,14,-1
 382 492 l 2,15,16
 412 492 412 492 431 478.5 c 128,-1,17
 450 465 450 465 456.5 444 c 128,-1,18
 463 423 463 423 457 399 c 128,-1,19
 451 375 451 375 432 354 c 2,20,-1
 194 85 l 1,21,-1
 194 131 l 1,22,-1
 407 131 l 2,23,24
 474 131 474 131 474 66 c 0,25,26
 474 34 474 34 457 17 c 128,-1,27
 440 0 440 0 407 0 c 2,28,-1
 106 0 l 2,0,1
EndSplineSet
EndChar

StartChar: germandbls.calt
Encoding: 65540 -1 487
Width: 752
GlyphClass: 1
Flags: W
LayerCount: 2
Fore
SplineSet
476 -11 m 0,0,1
 435 -11 435 -11 399.5 -4 c 128,-1,2
 364 3 364 3 338 15 c 0,3,4
 312 26 312 26 301 46 c 128,-1,5
 290 66 290 66 291.5 88 c 128,-1,6
 293 110 293 110 303.5 128 c 128,-1,7
 314 146 314 146 332 153 c 128,-1,8
 350 160 350 160 373 151 c 0,9,10
 394 140 394 140 414.5 136 c 128,-1,11
 435 132 435 132 455 132 c 0,12,13
 494 132 494 132 515.5 152.5 c 128,-1,14
 537 173 537 173 537 207 c 0,15,16
 537 246 537 246 510 264.5 c 128,-1,17
 483 283 483 283 427 283 c 2,18,-1
 392 283 l 2,19,20
 363 283 363 283 343 300.5 c 128,-1,21
 323 318 323 318 323 353 c 256,22,23
 323 388 323 388 340.5 405 c 128,-1,24
 358 422 358 422 383 422 c 2,25,-1
 412 422 l 2,26,27
 453 422 453 422 476.5 441 c 128,-1,28
 500 460 500 460 500 496 c 0,29,30
 500 533 500 533 472.5 552 c 128,-1,31
 445 571 445 571 389 571 c 0,32,33
 318 571 318 571 283 538 c 128,-1,34
 248 505 248 505 248 437 c 2,35,-1
 248 84 l 2,36,37
 248 40 248 40 224.5 15.5 c 128,-1,38
 201 -9 201 -9 156 -9 c 0,39,40
 112 -9 112 -9 88 15.5 c 128,-1,41
 64 40 64 40 64 84 c 2,42,-1
 64 437 l 2,43,44
 64 529 64 529 103 590.5 c 128,-1,45
 142 652 142 652 217 684 c 128,-1,46
 292 716 292 716 401 716 c 0,47,48
 485 716 485 716 546.5 692 c 128,-1,49
 608 668 608 668 641.5 625 c 128,-1,50
 675 582 675 582 675 522 c 0,51,52
 675 463 675 463 643 419 c 128,-1,53
 611 375 611 375 552 354 c 1,54,-1
 552 374 l 1,55,56
 600 369 600 369 636 345 c 128,-1,57
 672 321 672 321 691.5 282 c 128,-1,58
 711 243 711 243 711 194 c 0,59,60
 711 130 711 130 683 84 c 128,-1,61
 655 38 655 38 602.5 13.5 c 128,-1,62
 550 -11 550 -11 476 -11 c 0,0,1
EndSplineSet
EndChar

StartChar: a.ss01
Encoding: 65542 -1 489
Width: 620
GlyphClass: 2
Flags: W
AnchorPoint: "Anchor-3" 512 0 basechar 0
AnchorPoint: "Anchor-2" 309 0 basechar 0
AnchorPoint: "Anchor-0" 309 484 basechar 0
LayerCount: 2
Fore
SplineSet
244 -11 m 0,0,1
 181 -11 181 -11 132.5 20 c 128,-1,2
 84 51 84 51 56.5 109 c 128,-1,3
 29 167 29 167 29 246 c 0,4,5
 29 327 29 327 56.5 384 c 128,-1,6
 84 441 84 441 132.5 472 c 128,-1,7
 181 503 181 503 244 503 c 0,8,9
 299 503 299 503 343 477 c 128,-1,10
 387 451 387 451 402 410 c 1,11,-1
 393 369 l 1,12,-1
 393 412 l 2,13,14
 393 455 393 455 416.5 478 c 128,-1,15
 440 501 440 501 481 501 c 0,16,17
 524 501 524 501 546.5 478 c 128,-1,18
 569 455 569 455 569 412 c 2,19,-1
 569 81 l 2,20,21
 569 37 569 37 546.5 14 c 128,-1,22
 524 -9 524 -9 481 -9 c 0,23,24
 439 -9 439 -9 416 14 c 128,-1,25
 393 37 393 37 393 81 c 2,26,-1
 393 122 l 1,27,-1
 404 89 l 1,28,29
 390 44 390 44 345.5 16.5 c 128,-1,30
 301 -11 301 -11 244 -11 c 0,0,1
301 120 m 0,31,32
 328 120 328 120 349 133.5 c 128,-1,33
 370 147 370 147 381.5 174.5 c 128,-1,34
 393 202 393 202 393 246 c 0,35,36
 393 313 393 313 367 342.5 c 128,-1,37
 341 372 341 372 301 372 c 0,38,39
 274 372 274 372 253 359 c 128,-1,40
 232 346 232 346 220 318.5 c 128,-1,41
 208 291 208 291 208 246 c 0,42,43
 208 180 208 180 234 150 c 128,-1,44
 260 120 260 120 301 120 c 0,31,32
EndSplineSet
EndChar

StartChar: l.ss02
Encoding: 65569 -1 516
Width: 281
GlyphClass: 2
Flags: W
AnchorPoint: "Anchor-5" 140 357 basechar 0
AnchorPoint: "Anchor-2" 140 0 basechar 0
AnchorPoint: "Anchor-1" 263 705 basechar 0
AnchorPoint: "Anchor-0" 140 705 basechar 0
LayerCount: 2
Fore
SplineSet
140 -9 m 0,0,1
 98 -9 98 -9 75 14 c 128,-1,2
 52 37 52 37 52 81 c 2,3,-1
 52 624 l 2,4,5
 52 669 52 669 75 691.5 c 128,-1,6
 98 714 98 714 140 714 c 0,7,8
 183 714 183 714 206.5 691.5 c 128,-1,9
 230 669 230 669 230 624 c 2,10,-1
 230 81 l 2,11,12
 230 -9 230 -9 140 -9 c 0,0,1
EndSplineSet
EndChar

StartChar: fi
Encoding: 64257 64257 525
Width: 674
GlyphClass: 3
LigCaretCntFixed: 1
Flags: W
LayerCount: 2
Fore
SplineSet
183 -9 m 0,0,1
 140 -9 140 -9 117 14 c 128,-1,2
 94 37 94 37 94 81 c 2,3,-1
 94 361 l 1,4,-1
 68 361 l 2,5,6
 36 361 36 361 18.5 378 c 128,-1,7
 1 395 1 395 1 427 c 256,8,9
 1 459 1 459 18.5 475.5 c 128,-1,10
 36 492 36 492 68 492 c 2,11,-1
 145 492 l 1,12,-1
 94 445 l 1,13,-1
 94 473 l 2,14,15
 94 583 94 583 147.5 639 c 128,-1,16
 201 695 201 695 307 706 c 2,17,-1
 335 709 l 2,18,19
 368 713 368 713 387.5 701.5 c 128,-1,20
 407 690 407 690 414 671.5 c 128,-1,21
 421 653 421 653 417.5 633 c 128,-1,22
 414 613 414 613 402.5 599 c 128,-1,23
 391 585 391 585 372 583 c 2,24,-1
 354 582 l 2,25,26
 308 579 308 579 290 560.5 c 128,-1,27
 272 542 272 542 272 507 c 2,28,-1
 272 474 l 1,29,-1
 250 492 l 1,30,-1
 533 492 l 2,31,32
 576 492 576 492 599 467.5 c 128,-1,33
 622 443 622 443 622 396 c 2,34,-1
 622 88 l 2,35,36
 622 41 622 41 599.5 16 c 128,-1,37
 577 -9 577 -9 533 -9 c 0,38,39
 490 -9 490 -9 467 16 c 128,-1,40
 444 41 444 41 444 88 c 2,41,-1
 444 361 l 1,42,-1
 272 361 l 1,43,-1
 272 81 l 2,44,45
 272 -9 272 -9 183 -9 c 0,0,1
537 572 m 256,46,47
 491 572 491 572 466.5 594 c 128,-1,48
 442 616 442 616 442 658 c 0,49,50
 442 699 442 699 466.5 721 c 128,-1,51
 491 743 491 743 537 743 c 256,52,53
 583 743 583 743 607.5 721 c 128,-1,54
 632 699 632 699 632 658 c 0,55,56
 632 616 632 616 607.5 594 c 128,-1,57
 583 572 583 572 537 572 c 256,46,47
EndSplineSet
Ligature2: "'liga' Standard Ligatures lookup 33 subtable" f i
LCarets2: 1 337
EndChar

StartChar: ordfeminine
Encoding: 170 170 529
Width: 354
GlyphClass: 1
Flags: W
LayerCount: 2
Fore
SplineSet
133 404 m 0,0,1
 80 404 80 404 47.5 432.5 c 128,-1,2
 15 461 15 461 15 503 c 0,3,4
 15 551 15 551 56.5 571.5 c 128,-1,5
 98 592 98 592 189 592 c 2,6,-1
 231 592 l 1,7,-1
 231 537 l 1,8,-1
 192 537 l 2,9,10
 154 537 154 537 139.5 529.5 c 128,-1,11
 125 522 125 522 125 505 c 0,12,13
 125 493 125 493 134.5 484 c 128,-1,14
 144 475 144 475 164 475 c 0,15,16
 180 475 180 475 192.5 482.5 c 128,-1,17
 205 490 205 490 212.5 504.5 c 128,-1,18
 220 519 220 519 220 538 c 2,19,-1
 220 596 l 2,20,21
 220 617 220 617 206.5 626.5 c 128,-1,22
 193 636 193 636 162 636 c 0,23,24
 150 636 150 636 133.5 633.5 c 128,-1,25
 117 631 117 631 91 624 c 0,26,27
 69 619 69 619 55.5 627.5 c 128,-1,28
 42 636 42 636 38.5 651 c 128,-1,29
 35 666 35 666 43 680.5 c 128,-1,30
 51 695 51 695 73 701 c 0,31,32
 101 711 101 711 125.5 713.5 c 128,-1,33
 150 716 150 716 172 716 c 0,34,35
 225 716 225 716 260 702 c 128,-1,36
 295 688 295 688 312 660 c 128,-1,37
 329 632 329 632 329 590 c 2,38,-1
 329 457 l 2,39,40
 329 404 329 404 278 404 c 0,41,42
 252 404 252 404 238.5 420 c 128,-1,43
 225 436 225 436 225 458 c 2,44,-1
 225 467 l 1,45,-1
 223 467 l 1,46,47
 209 437 209 437 187.5 420.5 c 128,-1,48
 166 404 166 404 133 404 c 0,0,1
EndSplineSet
EndChar

StartChar: ordmasculine
Encoding: 186 186 530
Width: 370
GlyphClass: 1
Flags: W
LayerCount: 2
Fore
SplineSet
185 406 m 256,0,1
 136 406 136 406 97.5 425.5 c 128,-1,2
 59 445 59 445 37 480 c 128,-1,3
 15 515 15 515 15 562 c 0,4,5
 15 610 15 610 37 644.5 c 128,-1,6
 59 679 59 679 97.5 697.5 c 128,-1,7
 136 716 136 716 185 716 c 256,8,9
 234 716 234 716 273 697.5 c 128,-1,10
 312 679 312 679 334 644.5 c 128,-1,11
 356 610 356 610 356 562 c 0,12,13
 356 515 356 515 334 480 c 128,-1,14
 312 445 312 445 273 425.5 c 128,-1,15
 234 406 234 406 185 406 c 256,0,1
185 490 m 0,16,17
 212 490 212 490 227.5 508.5 c 128,-1,18
 243 527 243 527 243 562 c 0,19,20
 243 598 243 598 227.5 616 c 128,-1,21
 212 634 212 634 185 634 c 0,22,23
 159 634 159 634 143.5 616.5 c 128,-1,24
 128 599 128 599 128 562 c 0,25,26
 128 526 128 526 143.5 508 c 128,-1,27
 159 490 159 490 185 490 c 0,16,17
EndSplineSet
EndChar

StartChar: uni0411
Encoding: 1041 1041 532
Width: 688
GlyphClass: 1
Flags: W
LayerCount: 2
Fore
SplineSet
160 0 m 2,0,1
 113 0 113 0 88.5 24.5 c 128,-1,2
 64 49 64 49 64 95 c 2,3,-1
 64 610 l 2,4,5
 64 656 64 656 88.5 680.5 c 128,-1,6
 113 705 113 705 160 705 c 2,7,-1
 527 705 l 2,8,9
 562 705 562 705 580.5 687 c 128,-1,10
 599 669 599 669 599 635 c 0,11,12
 599 600 599 600 580.5 581.5 c 128,-1,13
 562 563 562 563 527 563 c 2,14,-1
 240 563 l 1,15,-1
 240 431 l 1,16,-1
 414 431 l 2,17,18
 529 431 529 431 595.5 375.5 c 128,-1,19
 662 320 662 320 662 216 c 256,20,21
 662 112 662 112 595.5 56 c 128,-1,22
 529 0 529 0 414 0 c 2,23,-1
 160 0 l 2,0,1
240 139 m 1,24,-1
 389 139 l 2,25,26
 440 139 440 139 463.5 158 c 128,-1,27
 487 177 487 177 487 216 c 256,28,29
 487 255 487 255 463.5 273.5 c 128,-1,30
 440 292 440 292 389 292 c 2,31,-1
 240 292 l 1,32,-1
 240 139 l 1,24,-1
EndSplineSet
EndChar

StartChar: uni0413
Encoding: 1043 1043 534
Width: 579
GlyphClass: 2
Flags: W
AnchorPoint: "Anchor-4" 171 358 basechar 0
AnchorPoint: "Anchor-0" 283 705 basechar 0
LayerCount: 2
Fore
SplineSet
156 -9 m 0,0,1
 112 -9 112 -9 88 15.5 c 128,-1,2
 64 40 64 40 64 84 c 2,3,-1
 64 610 l 2,4,5
 64 656 64 656 88.5 680.5 c 128,-1,6
 113 705 113 705 159 705 c 2,7,-1
 495 705 l 2,8,9
 532 705 532 705 551.5 686 c 128,-1,10
 571 667 571 667 571 630 c 0,11,12
 571 594 571 594 551.5 574.5 c 128,-1,13
 532 555 532 555 495 555 c 2,14,-1
 248 555 l 1,15,-1
 248 84 l 2,16,17
 248 40 248 40 225 15.5 c 128,-1,18
 202 -9 202 -9 156 -9 c 0,0,1
EndSplineSet
EndChar

StartChar: uni0490
Encoding: 1168 1168 536
Width: 579
GlyphClass: 1
Flags: W
LayerCount: 2
Fore
SplineSet
156 -9 m 0,0,1
 112 -9 112 -9 88 15.5 c 128,-1,2
 64 40 64 40 64 84 c 2,3,-1
 64 610 l 2,4,5
 64 656 64 656 88.5 680.5 c 128,-1,6
 113 705 113 705 159 705 c 2,7,-1
 402 705 l 1,8,-1
 402 799 l 2,9,10
 402 880 402 880 482 880 c 0,11,12
 520 880 520 880 541 859.5 c 128,-1,13
 562 839 562 839 562 799 c 2,14,-1
 562 650 l 2,15,16
 562 604 562 604 537.5 579.5 c 128,-1,17
 513 555 513 555 467 555 c 2,18,-1
 248 555 l 1,19,-1
 248 84 l 2,20,21
 248 40 248 40 225 15.5 c 128,-1,22
 202 -9 202 -9 156 -9 c 0,0,1
EndSplineSet
EndChar

StartChar: uni04F6
Encoding: 1270 1270 537
Width: 579
GlyphClass: 1
Flags: W
LayerCount: 2
Fore
SplineSet
269 -184 m 0,0,1
 230 -184 230 -184 209 -163 c 128,-1,2
 188 -142 188 -142 188 -102 c 2,3,-1
 188 0 l 1,4,-1
 156 0 l 2,5,6
 112 0 112 0 88 24.5 c 128,-1,7
 64 49 64 49 64 94 c 2,8,-1
 64 610 l 2,9,10
 64 656 64 656 88.5 680.5 c 128,-1,11
 113 705 113 705 159 705 c 2,12,-1
 495 705 l 2,13,14
 532 705 532 705 551.5 686 c 128,-1,15
 571 667 571 667 571 630 c 0,16,17
 571 594 571 594 551.5 574.5 c 128,-1,18
 532 555 532 555 495 555 c 2,19,-1
 248 555 l 1,20,-1
 248 74 l 1,21,-1
 193 144 l 1,22,-1
 267 144 l 2,23,24
 305 144 305 144 326.5 122.5 c 128,-1,25
 348 101 348 101 348 68 c 2,26,-1
 348 -102 l 2,27,28
 348 -142 348 -142 327.5 -163 c 128,-1,29
 307 -184 307 -184 269 -184 c 0,0,1
EndSplineSet
EndChar

StartChar: uni0492
Encoding: 1170 1170 538
Width: 628
GlyphClass: 1
Flags: W
LayerCount: 2
Fore
SplineSet
205 -9 m 0,0,1
 161 -9 161 -9 137 15.5 c 128,-1,2
 113 40 113 40 113 84 c 2,3,-1
 113 277 l 1,4,-1
 89 277 l 2,5,6
 57 277 57 277 39 294 c 128,-1,7
 21 311 21 311 21 342 c 256,8,9
 21 373 21 373 39 389 c 128,-1,10
 57 405 57 405 89 405 c 2,11,-1
 113 405 l 1,12,-1
 113 610 l 2,13,14
 113 656 113 656 137.5 680.5 c 128,-1,15
 162 705 162 705 208 705 c 2,16,-1
 544 705 l 2,17,18
 581 705 581 705 600.5 686 c 128,-1,19
 620 667 620 667 620 630 c 0,20,21
 620 594 620 594 600.5 574.5 c 128,-1,22
 581 555 581 555 544 555 c 2,23,-1
 297 555 l 1,24,-1
 297 405 l 1,25,-1
 403 405 l 2,26,27
 435 405 435 405 452.5 389 c 128,-1,28
 470 373 470 373 470 342 c 256,29,30
 470 311 470 311 452.5 294 c 128,-1,31
 435 277 435 277 403 277 c 2,32,-1
 297 277 l 1,33,-1
 297 84 l 2,34,35
 297 40 297 40 274 15.5 c 128,-1,36
 251 -9 251 -9 205 -9 c 0,0,1
EndSplineSet
Substitution2: "'locl' Localized Forms in Cyrillic lookup 16 subtable" uni0492.loclBSH
Substitution2: "'aalt' Access All Alternates lookup 0 subtable" uni0492.loclBSH
EndChar

StartChar: uni0494
Encoding: 1172 1172 539
Width: 738
GlyphClass: 1
Flags: W
LayerCount: 2
Fore
SplineSet
439 -191 m 0,0,1
 425 -191 425 -191 400 -189.5 c 128,-1,2
 375 -188 375 -188 358 -184 c 0,3,4
 329 -178 329 -178 315 -161 c 128,-1,5
 301 -144 301 -144 299.5 -123 c 128,-1,6
 298 -102 298 -102 306.5 -83 c 128,-1,7
 315 -64 315 -64 332.5 -53 c 128,-1,8
 350 -42 350 -42 373 -46 c 0,9,10
 385 -47 385 -47 394 -48 c 128,-1,11
 403 -49 403 -49 415 -49 c 0,12,13
 457 -49 457 -49 482.5 -19.5 c 128,-1,14
 508 10 508 10 508 63 c 2,15,-1
 508 140 l 2,16,17
 508 224 508 224 465.5 260 c 128,-1,18
 423 296 423 296 352 296 c 0,19,20
 326 296 326 296 298.5 291 c 128,-1,21
 271 286 271 286 248 276 c 1,22,-1
 248 84 l 2,23,24
 248 40 248 40 225 15.5 c 128,-1,25
 202 -9 202 -9 156 -9 c 0,26,27
 112 -9 112 -9 88 15.5 c 128,-1,28
 64 40 64 40 64 84 c 2,29,-1
 64 610 l 2,30,31
 64 656 64 656 88.5 680.5 c 128,-1,32
 113 705 113 705 159 705 c 2,33,-1
 525 705 l 2,34,35
 562 705 562 705 581.5 686 c 128,-1,36
 601 667 601 667 601 630 c 0,37,38
 601 594 601 594 581.5 574.5 c 128,-1,39
 562 555 562 555 525 555 c 2,40,-1
 248 555 l 1,41,-1
 248 430 l 1,42,43
 269 438 269 438 304 444 c 128,-1,44
 339 450 339 450 375 450 c 0,45,46
 450 450 450 450 508.5 431.5 c 128,-1,47
 567 413 567 413 608 375.5 c 128,-1,48
 649 338 649 338 670 281 c 128,-1,49
 691 224 691 224 691 146 c 2,50,-1
 691 71 l 2,51,52
 691 -12 691 -12 659 -71 c 128,-1,53
 627 -130 627 -130 570 -160.5 c 128,-1,54
 513 -191 513 -191 439 -191 c 0,0,1
EndSplineSet
EndChar

StartChar: uni0414
Encoding: 1044 1044 540
Width: 824
GlyphClass: 1
Flags: W
AnchorPoint: "Anchor-0" 430 704 basechar 0
LayerCount: 2
Fore
SplineSet
91 -184 m 0,0,1
 52 -184 52 -184 31.5 -163 c 128,-1,2
 11 -142 11 -142 11 -103 c 2,3,-1
 11 61 l 2,4,5
 11 142 11 142 93 142 c 2,6,-1
 152 142 l 1,7,-1
 56 116 l 1,8,9
 112 163 112 163 139 263.5 c 128,-1,10
 166 364 166 364 166 518 c 2,11,-1
 166 610 l 2,12,13
 166 656 166 656 190.5 680.5 c 128,-1,14
 215 705 215 705 261 705 c 2,15,-1
 606 705 l 2,16,17
 653 705 653 705 677.5 680.5 c 128,-1,18
 702 656 702 656 702 610 c 2,19,-1
 702 76 l 1,20,-1
 635 142 l 1,21,-1
 720 142 l 2,22,23
 760 142 760 142 781 121.5 c 128,-1,24
 802 101 802 101 802 61 c 2,25,-1
 802 -103 l 2,26,27
 802 -184 802 -184 723 -184 c 0,28,29
 684 -184 684 -184 663.5 -163 c 128,-1,30
 643 -142 643 -142 643 -103 c 2,31,-1
 643 0 l 1,32,-1
 170 0 l 1,33,-1
 170 -103 l 2,34,35
 170 -184 170 -184 91 -184 c 0,0,1
264 142 m 1,36,-1
 518 142 l 1,37,-1
 518 563 l 1,38,-1
 335 563 l 1,39,-1
 335 498 l 2,40,41
 335 375 335 375 317 287.5 c 128,-1,42
 299 200 299 200 264 142 c 1,36,-1
EndSplineSet
EndChar

StartChar: uni0416
Encoding: 1046 1046 544
Width: 1069
GlyphClass: 2
Flags: W
AnchorPoint: "Anchor-0" 534 705 basechar 0
LayerCount: 2
Fore
SplineSet
535 -9 m 0,0,1
 493 -9 493 -9 470 15.5 c 128,-1,2
 447 40 447 40 447 84 c 2,3,-1
 447 273 l 1,4,-1
 404 273 l 2,5,6
 359 273 359 273 331.5 256 c 128,-1,7
 304 239 304 239 285 198 c 2,8,-1
 217 48 l 2,9,10
 202 16 202 16 176 2 c 128,-1,11
 150 -12 150 -12 121.5 -9 c 128,-1,12
 93 -6 93 -6 71.5 11 c 128,-1,13
 50 28 50 28 43.5 56 c 128,-1,14
 37 84 37 84 55 121 c 2,15,-1
 122 258 l 2,16,17
 156 329 156 329 203 366 c 128,-1,18
 250 403 250 403 320 416 c 1,19,-1
 246 367 l 1,20,-1
 109 583 l 2,21,22
 88 615 88 615 91.5 642.5 c 128,-1,23
 95 670 95 670 113 688.5 c 128,-1,24
 131 707 131 707 157 713 c 128,-1,25
 183 719 183 719 209 708.5 c 128,-1,26
 235 698 235 698 254 667 c 2,27,-1
 410 405 l 1,28,-1
 384 423 l 1,29,-1
 447 423 l 1,30,-1
 447 621 l 2,31,32
 447 667 447 667 470 690.5 c 128,-1,33
 493 714 493 714 535 714 c 0,34,35
 578 714 578 714 600.5 690.5 c 128,-1,36
 623 667 623 667 623 621 c 2,37,-1
 623 423 l 1,38,-1
 686 423 l 1,39,-1
 660 405 l 1,40,-1
 816 667 l 2,41,42
 835 698 835 698 861 708.5 c 128,-1,43
 887 719 887 719 912.5 713 c 128,-1,44
 938 707 938 707 956.5 688.5 c 128,-1,45
 975 670 975 670 978.5 642.5 c 128,-1,46
 982 615 982 615 961 583 c 2,47,-1
 824 367 l 1,48,-1
 750 416 l 1,49,50
 797 408 797 408 832.5 388.5 c 128,-1,51
 868 369 868 369 896.5 337.5 c 128,-1,52
 925 306 925 306 948 258 c 2,53,-1
 1015 121 l 2,54,55
 1033 84 1033 84 1026.5 56 c 128,-1,56
 1020 28 1020 28 998 11 c 128,-1,57
 976 -6 976 -6 948 -9 c 128,-1,58
 920 -12 920 -12 894 2 c 128,-1,59
 868 16 868 16 853 48 c 2,60,-1
 785 198 l 2,61,62
 766 239 766 239 738 256 c 128,-1,63
 710 273 710 273 666 273 c 2,64,-1
 623 273 l 1,65,-1
 623 84 l 2,66,67
 623 40 623 40 600.5 15.5 c 128,-1,68
 578 -9 578 -9 535 -9 c 0,0,1
EndSplineSet
EndChar

StartChar: uni0417
Encoding: 1047 1047 545
Width: 628
GlyphClass: 2
Flags: W
AnchorPoint: "Anchor-2" 310 0 basechar 0
AnchorPoint: "Anchor-0" 300 705 basechar 0
LayerCount: 2
Fore
SplineSet
294 -11 m 0,0,1
 229 -11 229 -11 173.5 1 c 128,-1,2
 118 13 118 13 72 36 c 0,3,4
 44 49 44 49 32.5 71 c 128,-1,5
 21 93 21 93 23 115 c 128,-1,6
 25 137 25 137 39 154 c 128,-1,7
 53 171 53 171 76 177 c 128,-1,8
 99 183 99 183 128 170 c 0,9,10
 150 160 150 160 174 153 c 128,-1,11
 198 146 198 146 224.5 143 c 128,-1,12
 251 140 251 140 277 140 c 0,13,14
 323 140 323 140 352 148.5 c 128,-1,15
 381 157 381 157 395 175 c 128,-1,16
 409 193 409 193 409 220 c 0,17,18
 409 254 409 254 385.5 270.5 c 128,-1,19
 362 287 362 287 311 287 c 2,20,-1
 206 287 l 2,21,22
 170 287 170 287 151 305 c 128,-1,23
 132 323 132 323 132 358 c 0,24,25
 132 392 132 392 151 410 c 128,-1,26
 170 428 170 428 206 428 c 2,27,-1
 292 428 l 2,28,29
 343 428 343 428 366 444 c 128,-1,30
 389 460 389 460 389 494 c 0,31,32
 389 515 389 515 378 531.5 c 128,-1,33
 367 548 367 548 343 556.5 c 128,-1,34
 319 565 319 565 280 565 c 0,35,36
 247 565 247 565 212 558.5 c 128,-1,37
 177 552 177 552 147 539 c 256,38,39
 117 526 117 526 94 531.5 c 128,-1,40
 71 537 71 537 57 554.5 c 128,-1,41
 43 572 43 572 40 594.5 c 128,-1,42
 37 617 37 617 48.5 638 c 128,-1,43
 60 659 60 659 87 671 c 0,44,45
 134 694 134 694 188.5 705 c 128,-1,46
 243 716 243 716 303 716 c 0,47,48
 392 716 392 716 451.5 691 c 128,-1,49
 511 666 511 666 540 622 c 128,-1,50
 569 578 569 578 569 523 c 0,51,52
 569 461 569 461 533.5 417 c 128,-1,53
 498 373 498 373 437 357 c 1,54,-1
 437 373 l 1,55,56
 509 360 509 360 548 315 c 128,-1,57
 587 270 587 270 587 200 c 0,58,59
 587 139 587 139 555.5 91 c 128,-1,60
 524 43 524 43 459 16 c 128,-1,61
 394 -11 394 -11 294 -11 c 0,0,1
EndSplineSet
EndChar

StartChar: uni0418
Encoding: 1048 1048 546
Width: 758
GlyphClass: 2
Flags: W
AnchorPoint: "Anchor-0" 379 705 basechar 0
LayerCount: 2
Fore
SplineSet
144 -9 m 0,0,1
 126 -9 126 -9 111 -3 c 128,-1,2
 96 3 96 3 85.5 14.5 c 128,-1,3
 75 26 75 26 69.5 43 c 128,-1,4
 64 60 64 60 64 82 c 2,5,-1
 64 628 l 2,6,7
 64 670 64 670 86 692 c 128,-1,8
 108 714 108 714 150 714 c 256,9,10
 192 714 192 714 213.5 692 c 128,-1,11
 235 670 235 670 235 628 c 2,12,-1
 235 266 l 1,13,-1
 207 266 l 1,14,-1
 524 662 l 2,15,16
 546 690 546 690 565.5 702 c 128,-1,17
 585 714 585 714 619 714 c 0,18,19
 642 714 642 714 658.5 704 c 128,-1,20
 675 694 675 694 684 675.5 c 128,-1,21
 693 657 693 657 693 632 c 2,22,-1
 693 78 l 2,23,24
 693 35 693 35 671.5 13 c 128,-1,25
 650 -9 650 -9 608 -9 c 256,26,27
 566 -9 566 -9 544.5 13 c 128,-1,28
 523 35 523 35 523 78 c 2,29,-1
 523 440 l 1,30,-1
 550 440 l 1,31,-1
 234 43 l 2,32,33
 212 16 212 16 193.5 3.5 c 128,-1,34
 175 -9 175 -9 144 -9 c 0,0,1
EndSplineSet
EndChar

StartChar: uni048A
Encoding: 1162 1162 549
Width: 793
GlyphClass: 1
Flags: W
LayerCount: 2
Fore
SplineSet
729 -131 m 2,0,1
 720 -158 720 -158 699.5 -171 c 128,-1,2
 679 -184 679 -184 655.5 -185.5 c 128,-1,3
 632 -187 632 -187 613 -176.5 c 128,-1,4
 594 -166 594 -166 585.5 -144.5 c 128,-1,5
 577 -123 577 -123 587 -91 c 2,6,-1
 624 20 l 1,7,-1
 648 0 l 1,8,-1
 612 0 l 2,9,10
 568 0 568 0 545.5 20 c 128,-1,11
 523 40 523 40 523 85 c 2,12,-1
 523 440 l 1,13,-1
 550 440 l 1,14,-1
 234 43 l 2,15,16
 212 16 212 16 193.5 3.5 c 128,-1,17
 175 -9 175 -9 144 -9 c 0,18,19
 126 -9 126 -9 111 -3 c 128,-1,20
 96 3 96 3 85.5 14.5 c 128,-1,21
 75 26 75 26 69.5 43 c 128,-1,22
 64 60 64 60 64 82 c 2,23,-1
 64 628 l 2,24,25
 64 670 64 670 86 692 c 128,-1,26
 108 714 108 714 150 714 c 256,27,28
 192 714 192 714 213.5 692 c 128,-1,29
 235 670 235 670 235 628 c 2,30,-1
 235 266 l 1,31,-1
 207 266 l 1,32,-1
 524 662 l 2,33,34
 546 690 546 690 565.5 702 c 128,-1,35
 585 714 585 714 619 714 c 0,36,37
 642 714 642 714 658.5 704 c 128,-1,38
 675 694 675 694 684 675.5 c 128,-1,39
 693 657 693 657 693 632 c 2,40,-1
 693 71 l 1,41,-1
 655 144 l 1,42,-1
 709 144 l 2,43,44
 760 144 760 144 781.5 116 c 128,-1,45
 803 88 803 88 786 40 c 2,46,-1
 729 -131 l 2,0,1
379 760 m 256,47,48
 299 760 299 760 249.5 790.5 c 128,-1,49
 200 821 200 821 179 869 c 0,50,51
 169 893 169 893 178 909.5 c 128,-1,52
 187 926 187 926 207 932 c 0,53,54
 228 939 228 939 241.5 930.5 c 128,-1,55
 255 922 255 922 271 901 c 0,56,57
 288 876 288 876 314.5 863.5 c 128,-1,58
 341 851 341 851 379 851 c 256,59,60
 417 851 417 851 444 863.5 c 128,-1,61
 471 876 471 876 488 901 c 0,62,63
 503 922 503 922 517 930.5 c 128,-1,64
 531 939 531 939 551 932 c 0,65,66
 571 926 571 926 580 909.5 c 128,-1,67
 589 893 589 893 579 869 c 0,68,69
 559 821 559 821 509 790.5 c 128,-1,70
 459 760 459 760 379 760 c 256,47,48
EndSplineSet
EndChar

StartChar: uni041A
Encoding: 1050 1050 550
Width: 716
GlyphClass: 2
Flags: W
AnchorPoint: "Anchor-5" 368 353 basechar 0
AnchorPoint: "Anchor-0" 354 705 basechar 0
LayerCount: 2
Fore
SplineSet
156 -9 m 0,0,1
 112 -9 112 -9 88 15.5 c 128,-1,2
 64 40 64 40 64 84 c 2,3,-1
 64 621 l 2,4,5
 64 667 64 667 88 690.5 c 128,-1,6
 112 714 112 714 156 714 c 0,7,8
 201 714 201 714 224.5 690.5 c 128,-1,9
 248 667 248 667 248 621 c 2,10,-1
 248 423 l 1,11,-1
 333 423 l 1,12,-1
 307 405 l 1,13,-1
 463 667 l 2,14,15
 482 698 482 698 508 708.5 c 128,-1,16
 534 719 534 719 559.5 713 c 128,-1,17
 585 707 585 707 603.5 688.5 c 128,-1,18
 622 670 622 670 625 642.5 c 128,-1,19
 628 615 628 615 608 583 c 2,20,-1
 471 367 l 1,21,-1
 397 416 l 1,22,23
 467 403 467 403 513.5 366 c 128,-1,24
 560 329 560 329 595 258 c 2,25,-1
 662 121 l 2,26,27
 680 84 680 84 673.5 56 c 128,-1,28
 667 28 667 28 645 11 c 128,-1,29
 623 -6 623 -6 595 -9 c 128,-1,30
 567 -12 567 -12 541 2 c 128,-1,31
 515 16 515 16 500 48 c 2,32,-1
 432 198 l 2,33,34
 413 239 413 239 385 256 c 128,-1,35
 357 273 357 273 313 273 c 2,36,-1
 248 273 l 1,37,-1
 248 84 l 2,38,39
 248 40 248 40 225 15.5 c 128,-1,40
 202 -9 202 -9 156 -9 c 0,0,1
EndSplineSet
EndChar

StartChar: uni041B
Encoding: 1051 1051 552
Width: 765
GlyphClass: 2
Flags: W
LayerCount: 2
Fore
SplineSet
609 -9 m 256,0,1
 565 -9 565 -9 541 15.5 c 128,-1,2
 517 40 517 40 517 85 c 2,3,-1
 517 555 l 1,4,-1
 333 555 l 1,5,-1
 333 440 l 2,6,7
 333 363 333 363 321 298 c 128,-1,8
 309 233 309 233 286 179 c 128,-1,9
 263 125 263 125 229 82 c 128,-1,10
 195 39 195 39 152 8 c 0,11,12
 122 -14 122 -14 90 -8.5 c 128,-1,13
 58 -3 58 -3 34 27 c 0,14,15
 11 58 11 58 18 89 c 128,-1,16
 25 120 25 120 55 144 c 256,17,18
 85 168 85 168 105.5 200.5 c 128,-1,19
 126 233 126 233 139.5 275.5 c 128,-1,20
 153 318 153 318 159 371 c 128,-1,21
 165 424 165 424 165 488 c 2,22,-1
 165 610 l 2,23,24
 165 656 165 656 189.5 680.5 c 128,-1,25
 214 705 214 705 260 705 c 2,26,-1
 605 705 l 2,27,28
 651 705 651 705 676 680.5 c 128,-1,29
 701 656 701 656 701 610 c 2,30,-1
 701 85 l 2,31,32
 701 40 701 40 677 15.5 c 128,-1,33
 653 -9 653 -9 609 -9 c 256,0,1
EndSplineSet
EndChar

StartChar: uni041F
Encoding: 1055 1055 556
Width: 779
GlyphClass: 2
Flags: W
LayerCount: 2
Fore
SplineSet
156 -9 m 0,0,1
 112 -9 112 -9 88 15.5 c 128,-1,2
 64 40 64 40 64 85 c 2,3,-1
 64 610 l 2,4,5
 64 656 64 656 88.5 680.5 c 128,-1,6
 113 705 113 705 160 705 c 2,7,-1
 619 705 l 2,8,9
 666 705 666 705 690.5 680.5 c 128,-1,10
 715 656 715 656 715 610 c 2,11,-1
 715 85 l 2,12,13
 715 40 715 40 691.5 15.5 c 128,-1,14
 668 -9 668 -9 623 -9 c 0,15,16
 579 -9 579 -9 555 15.5 c 128,-1,17
 531 40 531 40 531 85 c 2,18,-1
 531 555 l 1,19,-1
 248 555 l 1,20,-1
 248 85 l 2,21,22
 248 40 248 40 225 15.5 c 128,-1,23
 202 -9 202 -9 156 -9 c 0,0,1
EndSplineSet
EndChar

StartChar: uni0423
Encoding: 1059 1059 560
Width: 681
GlyphClass: 2
Flags: W
AnchorPoint: "Anchor-0" 345 705 basechar 0
LayerCount: 2
Fore
SplineSet
286 -9 m 0,0,1
 254 -9 254 -9 232 7 c 128,-1,2
 210 23 210 23 205 50.5 c 128,-1,3
 200 78 200 78 217 113 c 2,4,-1
 282 243 l 1,5,-1
 282 192 l 1,6,-1
 37 596 l 2,7,8
 19 626 19 626 23 653.5 c 128,-1,9
 27 681 27 681 49.5 697.5 c 128,-1,10
 72 714 72 714 107 714 c 0,11,12
 143 714 143 714 161.5 696.5 c 128,-1,13
 180 679 180 679 198 647 c 2,14,-1
 371 355 l 1,15,-1
 341 355 l 1,16,-1
 487 646 l 2,17,18
 500 672 500 672 519.5 693 c 128,-1,19
 539 714 539 714 579 714 c 0,20,21
 611 714 611 714 633.5 698.5 c 128,-1,22
 656 683 656 683 661.5 655.5 c 128,-1,23
 667 628 667 628 648 592 c 2,24,-1
 379 59 l 2,25,26
 367 34 367 34 346.5 12.5 c 128,-1,27
 326 -9 326 -9 286 -9 c 0,0,1
EndSplineSet
EndChar

StartChar: uni0424
Encoding: 1060 1060 562
Width: 932
GlyphClass: 1
Flags: W
LayerCount: 2
Fore
SplineSet
467 -37 m 256,0,1
 422 -37 422 -37 398 -13 c 128,-1,2
 374 11 374 11 374 56 c 2,3,-1
 374 100 l 1,4,-1
 418 54 l 1,5,-1
 390 54 l 2,6,7
 284 54 284 54 207 88.5 c 128,-1,8
 130 123 130 123 88 191 c 128,-1,9
 46 259 46 259 46 358 c 0,10,11
 46 433 46 433 69 490 c 128,-1,12
 92 547 92 547 136.5 585.5 c 128,-1,13
 181 624 181 624 245 643 c 128,-1,14
 309 662 309 662 390 662 c 2,15,-1
 418 662 l 1,16,-1
 374 616 l 1,17,-1
 374 654 l 2,18,19
 374 700 374 700 398 723.5 c 128,-1,20
 422 747 422 747 467 747 c 0,21,22
 511 747 511 747 534.5 723.5 c 128,-1,23
 558 700 558 700 558 654 c 2,24,-1
 558 616 l 1,25,-1
 515 662 l 1,26,-1
 542 662 l 2,27,28
 651 662 651 662 728 627.5 c 128,-1,29
 805 593 805 593 846 525.5 c 128,-1,30
 887 458 887 458 887 358 c 0,31,32
 887 283 887 283 863 226.5 c 128,-1,33
 839 170 839 170 794 131.5 c 128,-1,34
 749 93 749 93 685.5 73.5 c 128,-1,35
 622 54 622 54 542 54 c 2,36,-1
 515 54 l 1,37,-1
 558 100 l 1,38,-1
 558 56 l 2,39,40
 558 11 558 11 535 -13 c 128,-1,41
 512 -37 512 -37 467 -37 c 256,0,1
376 162 m 1,42,-1
 376 554 l 1,43,-1
 411 527 l 1,44,-1
 375 527 l 2,45,46
 345 527 345 527 319 517.5 c 128,-1,47
 293 508 293 508 273.5 487.5 c 128,-1,48
 254 467 254 467 243 435 c 128,-1,49
 232 403 232 403 232 358 c 0,50,51
 232 299 232 299 251.5 261.5 c 128,-1,52
 271 224 271 224 304 206.5 c 128,-1,53
 337 189 337 189 375 189 c 2,54,-1
 411 189 l 1,55,-1
 376 162 l 1,42,-1
557 162 m 1,56,-1
 521 189 l 1,57,-1
 557 189 l 2,58,59
 586 189 586 189 611.5 198.5 c 128,-1,60
 637 208 637 208 657.5 229 c 128,-1,61
 678 250 678 250 689.5 282 c 128,-1,62
 701 314 701 314 701 358 c 0,63,64
 701 418 701 418 682 455 c 128,-1,65
 663 492 663 492 630 509.5 c 128,-1,66
 597 527 597 527 557 527 c 2,67,-1
 521 527 l 1,68,-1
 557 554 l 1,69,-1
 557 162 l 1,56,-1
EndSplineSet
EndChar

StartChar: uni0427
Encoding: 1063 1063 564
Width: 721
GlyphClass: 2
Flags: W
AnchorPoint: "Anchor-5" 308 295 basechar 0
AnchorPoint: "Anchor-0" 347 705 basechar 0
LayerCount: 2
Fore
SplineSet
566 -9 m 256,0,1
 521 -9 521 -9 497 15.5 c 128,-1,2
 473 40 473 40 473 85 c 2,3,-1
 473 248 l 1,4,5
 452 239 452 239 415.5 233 c 128,-1,6
 379 227 379 227 344 227 c 0,7,8
 250 227 250 227 183 260 c 128,-1,9
 116 293 116 293 81.5 360.5 c 128,-1,10
 47 428 47 428 47 531 c 2,11,-1
 47 620 l 2,12,13
 47 666 47 666 70.5 690 c 128,-1,14
 94 714 94 714 139 714 c 0,15,16
 183 714 183 714 206.5 690 c 128,-1,17
 230 666 230 666 230 620 c 2,18,-1
 230 537 l 2,19,20
 230 454 230 454 264.5 417.5 c 128,-1,21
 299 381 299 381 367 381 c 0,22,23
 392 381 392 381 421 386 c 128,-1,24
 450 391 450 391 473 401 c 1,25,-1
 473 620 l 2,26,27
 473 666 473 666 497 690 c 128,-1,28
 521 714 521 714 566 714 c 0,29,30
 610 714 610 714 633.5 690 c 128,-1,31
 657 666 657 666 657 620 c 2,32,-1
 657 85 l 2,33,34
 657 40 657 40 634 15.5 c 128,-1,35
 611 -9 611 -9 566 -9 c 256,0,1
EndSplineSet
EndChar

StartChar: uni0426
Encoding: 1062 1062 565
Width: 837
GlyphClass: 1
Flags: W
LayerCount: 2
Fore
SplineSet
736 -185 m 0,0,1
 697 -185 697 -185 676.5 -164 c 128,-1,2
 656 -143 656 -143 656 -104 c 2,3,-1
 656 0 l 1,4,-1
 160 0 l 2,5,6
 113 0 113 0 88.5 24.5 c 128,-1,7
 64 49 64 49 64 95 c 2,8,-1
 64 614 l 2,9,10
 64 659 64 659 88 683.5 c 128,-1,11
 112 708 112 708 156 708 c 0,12,13
 201 708 201 708 224.5 683.5 c 128,-1,14
 248 659 248 659 248 614 c 2,15,-1
 248 150 l 1,16,-1
 531 150 l 1,17,-1
 531 614 l 2,18,19
 531 659 531 659 555 683.5 c 128,-1,20
 579 708 579 708 623 708 c 0,21,22
 668 708 668 708 691.5 683.5 c 128,-1,23
 715 659 715 659 715 614 c 2,24,-1
 715 67 l 1,25,-1
 632 150 l 1,26,-1
 733 150 l 2,27,28
 773 150 773 150 794 129 c 128,-1,29
 815 108 815 108 815 68 c 2,30,-1
 815 -104 l 2,31,32
 815 -185 815 -185 736 -185 c 0,0,1
EndSplineSet
EndChar

StartChar: uni0428
Encoding: 1064 1064 566
Width: 1090
GlyphClass: 1
Flags: W
LayerCount: 2
Fore
SplineSet
160 0 m 2,0,1
 113 0 113 0 88.5 24.5 c 128,-1,2
 64 49 64 49 64 95 c 2,3,-1
 64 620 l 2,4,5
 64 666 64 666 87.5 690 c 128,-1,6
 111 714 111 714 155 714 c 0,7,8
 198 714 198 714 221.5 690 c 128,-1,9
 245 666 245 666 245 620 c 2,10,-1
 245 150 l 1,11,-1
 455 150 l 1,12,-1
 455 620 l 2,13,14
 455 666 455 666 478.5 690 c 128,-1,15
 502 714 502 714 545 714 c 0,16,17
 589 714 589 714 612 690 c 128,-1,18
 635 666 635 666 635 620 c 2,19,-1
 635 150 l 1,20,-1
 845 150 l 1,21,-1
 845 620 l 2,22,23
 845 666 845 666 868.5 690 c 128,-1,24
 892 714 892 714 936 714 c 256,25,26
 980 714 980 714 1003 690 c 128,-1,27
 1026 666 1026 666 1026 620 c 2,28,-1
 1026 95 l 2,29,30
 1026 49 1026 49 1001.5 24.5 c 128,-1,31
 977 0 977 0 930 0 c 2,32,-1
 160 0 l 2,0,1
EndSplineSet
EndChar

StartChar: uni0429
Encoding: 1065 1065 567
Width: 1148
GlyphClass: 1
Flags: W
LayerCount: 2
Fore
SplineSet
1047 -184 m 0,0,1
 1008 -184 1008 -184 987.5 -163 c 128,-1,2
 967 -142 967 -142 967 -103 c 2,3,-1
 967 0 l 1,4,-1
 160 0 l 2,5,6
 113 0 113 0 88.5 24.5 c 128,-1,7
 64 49 64 49 64 95 c 2,8,-1
 64 620 l 2,9,10
 64 666 64 666 87.5 690 c 128,-1,11
 111 714 111 714 155 714 c 0,12,13
 198 714 198 714 221.5 690 c 128,-1,14
 245 666 245 666 245 620 c 2,15,-1
 245 150 l 1,16,-1
 455 150 l 1,17,-1
 455 620 l 2,18,19
 455 666 455 666 478.5 690 c 128,-1,20
 502 714 502 714 545 714 c 0,21,22
 589 714 589 714 612 690 c 128,-1,23
 635 666 635 666 635 620 c 2,24,-1
 635 150 l 1,25,-1
 845 150 l 1,26,-1
 845 620 l 2,27,28
 845 666 845 666 868.5 690 c 128,-1,29
 892 714 892 714 936 714 c 256,30,31
 980 714 980 714 1003 690 c 128,-1,32
 1026 666 1026 666 1026 620 c 2,33,-1
 1026 67 l 1,34,-1
 943 150 l 1,35,-1
 1044 150 l 2,36,37
 1084 150 1084 150 1105 129 c 128,-1,38
 1126 108 1126 108 1126 68 c 2,39,-1
 1126 -103 l 2,40,41
 1126 -142 1126 -142 1105.5 -163 c 128,-1,42
 1085 -184 1085 -184 1047 -184 c 0,0,1
EndSplineSet
EndChar

StartChar: uni040F
Encoding: 1039 1039 568
Width: 779
GlyphClass: 1
Flags: W
LayerCount: 2
Fore
SplineSet
390 -184 m 0,0,1
 352 -184 352 -184 331 -163 c 128,-1,2
 310 -142 310 -142 310 -103 c 2,3,-1
 310 0 l 1,4,-1
 160 0 l 2,5,6
 113 0 113 0 88.5 24.5 c 128,-1,7
 64 49 64 49 64 95 c 2,8,-1
 64 620 l 2,9,10
 64 666 64 666 88 690 c 128,-1,11
 112 714 112 714 156 714 c 0,12,13
 201 714 201 714 224.5 690 c 128,-1,14
 248 666 248 666 248 620 c 2,15,-1
 248 150 l 1,16,-1
 531 150 l 1,17,-1
 531 620 l 2,18,19
 531 666 531 666 555 690 c 128,-1,20
 579 714 579 714 623 714 c 0,21,22
 668 714 668 714 691.5 690 c 128,-1,23
 715 666 715 666 715 620 c 2,24,-1
 715 95 l 2,25,26
 715 49 715 49 690.5 24.5 c 128,-1,27
 666 0 666 0 619 0 c 2,28,-1
 469 0 l 1,29,-1
 469 -103 l 2,30,31
 469 -142 469 -142 449 -163 c 128,-1,32
 429 -184 429 -184 390 -184 c 0,0,1
EndSplineSet
EndChar

StartChar: uni042C
Encoding: 1068 1068 569
Width: 688
GlyphClass: 1
Flags: W
LayerCount: 2
Fore
SplineSet
160 0 m 2,0,1
 113 0 113 0 88.5 24.5 c 128,-1,2
 64 49 64 49 64 95 c 2,3,-1
 64 620 l 2,4,5
 64 666 64 666 88 690 c 128,-1,6
 112 714 112 714 156 714 c 0,7,8
 201 714 201 714 224.5 690 c 128,-1,9
 248 666 248 666 248 620 c 2,10,-1
 248 431 l 1,11,-1
 414 431 l 2,12,13
 491 431 491 431 546.5 406 c 128,-1,14
 602 381 602 381 632 333 c 128,-1,15
 662 285 662 285 662 216 c 0,16,17
 662 112 662 112 595.5 56 c 128,-1,18
 529 0 529 0 414 0 c 2,19,-1
 160 0 l 2,0,1
248 139 m 1,20,-1
 389 139 l 2,21,22
 440 139 440 139 463.5 158 c 128,-1,23
 487 177 487 177 487 216 c 256,24,25
 487 255 487 255 463.5 273.5 c 128,-1,26
 440 292 440 292 389 292 c 2,27,-1
 248 292 l 1,28,-1
 248 139 l 1,20,-1
EndSplineSet
EndChar

StartChar: uni042B
Encoding: 1067 1067 570
Width: 957
GlyphClass: 2
Flags: W
AnchorPoint: "Anchor-0" 478 705 basechar 0
LayerCount: 2
Fore
SplineSet
160 0 m 2,0,1
 113 0 113 0 88.5 24.5 c 128,-1,2
 64 49 64 49 64 95 c 2,3,-1
 64 620 l 2,4,5
 64 666 64 666 88 690 c 128,-1,6
 112 714 112 714 156 714 c 0,7,8
 201 714 201 714 224.5 690 c 128,-1,9
 248 666 248 666 248 620 c 2,10,-1
 248 431 l 1,11,-1
 384 431 l 2,12,13
 461 431 461 431 516.5 406 c 128,-1,14
 572 381 572 381 602 333 c 128,-1,15
 632 285 632 285 632 216 c 0,16,17
 632 112 632 112 565.5 56 c 128,-1,18
 499 0 499 0 384 0 c 2,19,-1
 160 0 l 2,0,1
248 139 m 1,20,-1
 359 139 l 2,21,22
 410 139 410 139 433.5 158 c 128,-1,23
 457 177 457 177 457 216 c 256,24,25
 457 255 457 255 433.5 273.5 c 128,-1,26
 410 292 410 292 359 292 c 2,27,-1
 248 292 l 1,28,-1
 248 139 l 1,20,-1
801 -9 m 256,29,30
 756 -9 756 -9 732.5 15.5 c 128,-1,31
 709 40 709 40 709 85 c 2,32,-1
 709 620 l 2,33,34
 709 666 709 666 732.5 690 c 128,-1,35
 756 714 756 714 801 714 c 0,36,37
 845 714 845 714 868.5 690 c 128,-1,38
 892 666 892 666 892 620 c 2,39,-1
 892 85 l 2,40,41
 892 40 892 40 869 15.5 c 128,-1,42
 846 -9 846 -9 801 -9 c 256,29,30
EndSplineSet
EndChar

StartChar: uni042A
Encoding: 1066 1066 571
Width: 826
GlyphClass: 1
Flags: W
LayerCount: 2
Fore
SplineSet
297 0 m 2,0,1
 251 0 251 0 226.5 24.5 c 128,-1,2
 202 49 202 49 202 95 c 2,3,-1
 202 555 l 1,4,-1
 75 555 l 2,5,6
 37 555 37 555 17 574.5 c 128,-1,7
 -3 594 -3 594 -3 630 c 0,8,9
 -3 667 -3 667 17 686 c 128,-1,10
 37 705 37 705 75 705 c 2,11,-1
 290 705 l 2,12,13
 337 705 337 705 361.5 680.5 c 128,-1,14
 386 656 386 656 386 610 c 2,15,-1
 386 431 l 1,16,-1
 551 431 l 2,17,18
 629 431 629 431 684 406 c 128,-1,19
 739 381 739 381 769 333 c 128,-1,20
 799 285 799 285 799 216 c 0,21,22
 799 112 799 112 732.5 56 c 128,-1,23
 666 0 666 0 551 0 c 2,24,-1
 297 0 l 2,0,1
386 139 m 1,25,-1
 527 139 l 2,26,27
 578 139 578 139 601.5 158 c 128,-1,28
 625 177 625 177 625 216 c 256,29,30
 625 255 625 255 601.5 273.5 c 128,-1,31
 578 292 578 292 527 292 c 2,32,-1
 386 292 l 1,33,-1
 386 139 l 1,25,-1
EndSplineSet
EndChar

StartChar: uni0409
Encoding: 1033 1033 572
Width: 1137
GlyphClass: 1
Flags: W
LayerCount: 2
Fore
SplineSet
609 0 m 2,0,1
 562 0 562 0 537.5 24.5 c 128,-1,2
 513 49 513 49 513 95 c 2,3,-1
 513 555 l 1,4,-1
 333 555 l 1,5,-1
 333 440 l 2,6,7
 333 364 333 364 321.5 298.5 c 128,-1,8
 310 233 310 233 287 178.5 c 128,-1,9
 264 124 264 124 230 81.5 c 128,-1,10
 196 39 196 39 151 8 c 0,11,12
 131 -5 131 -5 110 -8 c 128,-1,13
 89 -11 89 -11 69.5 -2 c 128,-1,14
 50 7 50 7 34 27 c 0,15,16
 11 58 11 58 18.5 88.5 c 128,-1,17
 26 119 26 119 55 144 c 0,18,19
 85 168 85 168 105.5 200.5 c 128,-1,20
 126 233 126 233 139.5 275.5 c 128,-1,21
 153 318 153 318 159 371 c 128,-1,22
 165 424 165 424 165 488 c 2,23,-1
 165 610 l 2,24,25
 165 656 165 656 189.5 680.5 c 128,-1,26
 214 705 214 705 260 705 c 2,27,-1
 601 705 l 2,28,29
 648 705 648 705 672.5 680.5 c 128,-1,30
 697 656 697 656 697 610 c 2,31,-1
 697 431 l 1,32,-1
 863 431 l 2,33,34
 940 431 940 431 995.5 406 c 128,-1,35
 1051 381 1051 381 1081 333 c 128,-1,36
 1111 285 1111 285 1111 216 c 0,37,38
 1111 112 1111 112 1044.5 56 c 128,-1,39
 978 0 978 0 863 0 c 2,40,-1
 609 0 l 2,0,1
697 139 m 1,41,-1
 838 139 l 2,42,43
 889 139 889 139 912.5 158 c 128,-1,44
 936 177 936 177 936 216 c 256,45,46
 936 255 936 255 912.5 273.5 c 128,-1,47
 889 292 889 292 838 292 c 2,48,-1
 697 292 l 1,49,-1
 697 139 l 1,41,-1
EndSplineSet
EndChar

StartChar: uni040A
Encoding: 1034 1034 573
Width: 1163
GlyphClass: 1
Flags: W
LayerCount: 2
Fore
SplineSet
156 -9 m 0,0,1
 112 -9 112 -9 88 15.5 c 128,-1,2
 64 40 64 40 64 85 c 2,3,-1
 64 620 l 2,4,5
 64 666 64 666 88 690 c 128,-1,6
 112 714 112 714 156 714 c 0,7,8
 201 714 201 714 224.5 690 c 128,-1,9
 248 666 248 666 248 620 c 2,10,-1
 248 433 l 1,11,-1
 539 433 l 1,12,-1
 539 620 l 2,13,14
 539 666 539 666 562.5 690 c 128,-1,15
 586 714 586 714 631 714 c 0,16,17
 675 714 675 714 698.5 690 c 128,-1,18
 722 666 722 666 722 620 c 2,19,-1
 722 431 l 1,20,-1
 888 431 l 2,21,22
 965 431 965 431 1020.5 406 c 128,-1,23
 1076 381 1076 381 1106 333 c 128,-1,24
 1136 285 1136 285 1136 216 c 0,25,26
 1136 112 1136 112 1069.5 56 c 128,-1,27
 1003 0 1003 0 888 0 c 2,28,-1
 634 0 l 2,29,30
 588 0 588 0 563.5 24.5 c 128,-1,31
 539 49 539 49 539 95 c 2,32,-1
 539 282 l 1,33,-1
 248 282 l 1,34,-1
 248 85 l 2,35,36
 248 40 248 40 225 15.5 c 128,-1,37
 202 -9 202 -9 156 -9 c 0,0,1
722 139 m 1,38,-1
 863 139 l 2,39,40
 915 139 915 139 938 158 c 128,-1,41
 961 177 961 177 961 216 c 256,42,43
 961 255 961 255 938 273.5 c 128,-1,44
 915 292 915 292 863 292 c 2,45,-1
 722 292 l 1,46,-1
 722 139 l 1,38,-1
EndSplineSet
EndChar

StartChar: uni0404
Encoding: 1028 1028 575
Width: 688
GlyphClass: 2
Flags: W
AnchorPoint: "Anchor-2" 398 0 basechar 0
AnchorPoint: "Anchor-0" 398 705 basechar 0
LayerCount: 2
Fore
SplineSet
420 -11 m 0,0,1
 303 -11 303 -11 219 34 c 128,-1,2
 135 79 135 79 90.5 161 c 128,-1,3
 46 243 46 243 46 353 c 0,4,5
 46 435 46 435 71.5 502 c 128,-1,6
 97 569 97 569 145.5 617 c 128,-1,7
 194 665 194 665 263.5 690.5 c 128,-1,8
 333 716 333 716 420 716 c 0,9,10
 468 716 468 716 516 705.5 c 128,-1,11
 564 695 564 695 606 673 c 0,12,13
 635 658 635 658 646.5 635.5 c 128,-1,14
 658 613 658 613 655 589.5 c 128,-1,15
 652 566 652 566 637 547.5 c 128,-1,16
 622 529 622 529 597.5 522.5 c 128,-1,17
 573 516 573 516 543 529 c 0,18,19
 515 542 515 542 485.5 549 c 128,-1,20
 456 556 456 556 427 556 c 0,21,22
 372 556 372 556 332 536.5 c 128,-1,23
 292 517 292 517 267.5 479.5 c 128,-1,24
 243 442 243 442 238 387 c 1,25,-1
 189 430 l 1,26,-1
 454 430 l 2,27,28
 489 430 489 430 508.5 411.5 c 128,-1,29
 528 393 528 393 528 359 c 0,30,31
 528 324 528 324 509 306 c 128,-1,32
 490 288 490 288 454 288 c 2,33,-1
 186 288 l 1,34,-1
 237 332 l 1,35,36
 242 269 242 269 266.5 228.5 c 128,-1,37
 291 188 291 188 331.5 168.5 c 128,-1,38
 372 149 372 149 427 149 c 0,39,40
 457 149 457 149 488.5 156.5 c 128,-1,41
 520 164 520 164 548 178 c 0,42,43
 579 194 579 194 602.5 188 c 128,-1,44
 626 182 626 182 640 163 c 128,-1,45
 654 144 654 144 657 119 c 128,-1,46
 660 94 660 94 649 71 c 128,-1,47
 638 48 638 48 611 35 c 0,48,49
 569 12 569 12 520 0.5 c 128,-1,50
 471 -11 471 -11 420 -11 c 0,0,1
EndSplineSet
EndChar

StartChar: uni042D
Encoding: 1069 1069 576
Width: 688
GlyphClass: 2
Flags: W
AnchorPoint: "Anchor-2" 313 0 basechar 0
AnchorPoint: "Anchor-0" 313 705 basechar 0
LayerCount: 2
Fore
SplineSet
267 -11 m 0,0,1
 219 -11 219 -11 171.5 0 c 128,-1,2
 124 11 124 11 83 32 c 0,3,4
 55 46 55 46 43 68.5 c 128,-1,5
 31 91 31 91 33 115.5 c 128,-1,6
 35 140 35 140 49.5 159 c 128,-1,7
 64 178 64 178 88 184 c 128,-1,8
 112 190 112 190 143 177 c 0,9,10
 172 163 172 163 202 156 c 128,-1,11
 232 149 232 149 261 149 c 0,12,13
 316 149 316 149 356.5 168.5 c 128,-1,14
 397 188 397 188 421 226.5 c 128,-1,15
 445 265 445 265 450 322 c 1,16,-1
 499 288 l 1,17,-1
 234 288 l 2,18,19
 198 288 198 288 178.5 302 c 128,-1,20
 159 316 159 316 159 351 c 0,21,22
 159 385 159 385 178.5 407.5 c 128,-1,23
 198 430 198 430 234 430 c 2,24,-1
 501 430 l 1,25,-1
 451 377 l 1,26,27
 445 438 445 438 421.5 477.5 c 128,-1,28
 398 517 398 517 357.5 536.5 c 128,-1,29
 317 556 317 556 263 556 c 0,30,31
 233 556 233 556 202 548.5 c 128,-1,32
 171 541 171 541 144 527 c 0,33,34
 112 512 112 512 88 517.5 c 128,-1,35
 64 523 64 523 49.5 542 c 128,-1,36
 35 561 35 561 32 585 c 128,-1,37
 29 609 29 609 40 632 c 128,-1,38
 51 655 51 655 79 669 c 0,39,40
 122 691 122 691 173 703.5 c 128,-1,41
 224 716 224 716 273 716 c 0,42,43
 390 716 390 716 472 671 c 128,-1,44
 554 626 554 626 598 544 c 128,-1,45
 642 462 642 462 642 352 c 0,46,47
 642 270 642 270 616.5 203 c 128,-1,48
 591 136 591 136 542.5 88 c 128,-1,49
 494 40 494 40 424.5 14.5 c 128,-1,50
 355 -11 355 -11 267 -11 c 0,0,1
EndSplineSet
EndChar

StartChar: uni040B
Encoding: 1035 1035 580
Width: 887
GlyphClass: 1
Flags: W
LayerCount: 2
Fore
SplineSet
322 -9 m 0,0,1
 278 -9 278 -9 254 15.5 c 128,-1,2
 230 40 230 40 230 84 c 2,3,-1
 230 555 l 1,4,-1
 73 555 l 2,5,6
 36 555 36 555 16.5 574.5 c 128,-1,7
 -3 594 -3 594 -3 630 c 0,8,9
 -3 667 -3 667 16.5 686 c 128,-1,10
 36 705 36 705 73 705 c 2,11,-1
 571 705 l 2,12,13
 608 705 608 705 627.5 686 c 128,-1,14
 647 667 647 667 647 630 c 0,15,16
 647 594 647 594 627.5 574.5 c 128,-1,17
 608 555 608 555 571 555 c 2,18,-1
 414 555 l 1,19,-1
 414 430 l 1,20,21
 436 438 436 438 472 444 c 128,-1,22
 508 450 508 450 543 450 c 0,23,24
 639 450 639 450 705 417 c 128,-1,25
 771 384 771 384 806 316.5 c 128,-1,26
 841 249 841 249 841 146 c 2,27,-1
 841 85 l 2,28,29
 841 40 841 40 817 15.5 c 128,-1,30
 793 -9 793 -9 748 -9 c 0,31,32
 704 -9 704 -9 680.5 15.5 c 128,-1,33
 657 40 657 40 657 85 c 2,34,-1
 657 140 l 2,35,36
 657 224 657 224 622.5 260 c 128,-1,37
 588 296 588 296 520 296 c 0,38,39
 494 296 494 296 466 291.5 c 128,-1,40
 438 287 438 287 414 276 c 1,41,-1
 414 84 l 2,42,43
 414 40 414 40 391 15.5 c 128,-1,44
 368 -9 368 -9 322 -9 c 0,0,1
EndSplineSet
EndChar

StartChar: uni042E
Encoding: 1070 1070 581
Width: 1087
GlyphClass: 1
Flags: W
AnchorPoint: "Anchor-0" 573 678 basechar 0
LayerCount: 2
Fore
SplineSet
692 -11 m 0,0,1
 600 -11 600 -11 528.5 25 c 128,-1,2
 457 61 457 61 411.5 127 c 128,-1,3
 366 193 366 193 351 282 c 1,4,-1
 248 282 l 1,5,-1
 248 85 l 2,6,7
 248 40 248 40 225 15.5 c 128,-1,8
 202 -9 202 -9 156 -9 c 0,9,10
 112 -9 112 -9 88 15.5 c 128,-1,11
 64 40 64 40 64 85 c 2,12,-1
 64 620 l 2,13,14
 64 666 64 666 88 690 c 128,-1,15
 112 714 112 714 156 714 c 0,16,17
 201 714 201 714 224.5 690 c 128,-1,18
 248 666 248 666 248 620 c 2,19,-1
 248 433 l 1,20,-1
 352 433 l 1,21,22
 368 520 368 520 413.5 583.5 c 128,-1,23
 459 647 459 647 530 681.5 c 128,-1,24
 601 716 601 716 692 716 c 0,25,26
 798 716 798 716 876.5 671 c 128,-1,27
 955 626 955 626 998.5 544.5 c 128,-1,28
 1042 463 1042 463 1042 353 c 0,29,30
 1042 271 1042 271 1016.5 204 c 128,-1,31
 991 137 991 137 945.5 88.5 c 128,-1,32
 900 40 900 40 835.5 14.5 c 128,-1,33
 771 -11 771 -11 692 -11 c 0,0,1
693 143 m 0,34,35
 743 143 743 143 778 168 c 128,-1,36
 813 193 813 193 832 240 c 128,-1,37
 851 287 851 287 851 353 c 0,38,39
 851 452 851 452 809.5 507 c 128,-1,40
 768 562 768 562 693 562 c 0,41,42
 643 562 643 562 607.5 537.5 c 128,-1,43
 572 513 572 513 553.5 466.5 c 128,-1,44
 535 420 535 420 535 353 c 0,45,46
 535 254 535 254 577 198.5 c 128,-1,47
 619 143 619 143 693 143 c 0,34,35
EndSplineSet
EndChar

StartChar: uni042F
Encoding: 1071 1071 582
Width: 710
GlyphClass: 1
Flags: W
AnchorPoint: "Anchor-0" 371 689 basechar 0
LayerCount: 2
Fore
SplineSet
554 -9 m 0,0,1
 510 -9 510 -9 486 15.5 c 128,-1,2
 462 40 462 40 462 85 c 2,3,-1
 462 263 l 1,4,-1
 417 263 l 2,5,6
 401 263 401 263 387.5 259 c 128,-1,7
 374 255 374 255 363 247 c 128,-1,8
 352 239 352 239 344 224 c 2,9,-1
 246 45 l 2,10,11
 228 11 228 11 201 -1 c 128,-1,12
 174 -13 174 -13 146.5 -7.5 c 128,-1,13
 119 -2 119 -2 99.5 16 c 128,-1,14
 80 34 80 34 75 62 c 128,-1,15
 70 90 70 90 88 124 c 2,16,-1
 129 200 l 2,17,18
 150 239 150 239 184 261 c 128,-1,19
 218 283 218 283 260 283 c 2,20,-1
 303 283 l 1,21,-1
 306 265 l 1,22,23
 187 265 187 265 121.5 324 c 128,-1,24
 56 383 56 383 56 484 c 0,25,26
 56 553 56 553 85.5 602.5 c 128,-1,27
 115 652 115 652 171 678.5 c 128,-1,28
 227 705 227 705 306 705 c 2,29,-1
 550 705 l 2,30,31
 597 705 597 705 621.5 680.5 c 128,-1,32
 646 656 646 656 646 610 c 2,33,-1
 646 85 l 2,34,35
 646 40 646 40 622.5 15.5 c 128,-1,36
 599 -9 599 -9 554 -9 c 0,0,1
340 393 m 2,37,-1
 462 393 l 1,38,-1
 462 564 l 1,39,-1
 340 564 l 2,40,41
 287 564 287 564 259 542.5 c 128,-1,42
 231 521 231 521 231 479 c 0,43,44
 231 435 231 435 259 414 c 128,-1,45
 287 393 287 393 340 393 c 2,37,-1
EndSplineSet
EndChar

StartChar: uni0402
Encoding: 1026 1026 583
Width: 904
GlyphClass: 1
Flags: W
LayerCount: 2
Fore
SplineSet
604 -191 m 0,0,1
 590 -191 590 -191 565.5 -189.5 c 128,-1,2
 541 -188 541 -188 524 -184 c 0,3,4
 495 -178 495 -178 481.5 -161 c 128,-1,5
 468 -144 468 -144 466 -123 c 128,-1,6
 464 -102 464 -102 472.5 -83 c 128,-1,7
 481 -64 481 -64 498.5 -53 c 128,-1,8
 516 -42 516 -42 539 -46 c 0,9,10
 551 -47 551 -47 560 -48 c 128,-1,11
 569 -49 569 -49 581 -49 c 0,12,13
 623 -49 623 -49 648.5 -19.5 c 128,-1,14
 674 10 674 10 674 63 c 2,15,-1
 674 140 l 2,16,17
 674 224 674 224 632 260 c 128,-1,18
 590 296 590 296 518 296 c 0,19,20
 492 296 492 296 464.5 291 c 128,-1,21
 437 286 437 286 414 276 c 1,22,-1
 414 84 l 2,23,24
 414 40 414 40 391 15.5 c 128,-1,25
 368 -9 368 -9 322 -9 c 0,26,27
 278 -9 278 -9 254 15.5 c 128,-1,28
 230 40 230 40 230 84 c 2,29,-1
 230 555 l 1,30,-1
 73 555 l 2,31,32
 36 555 36 555 16.5 574.5 c 128,-1,33
 -3 594 -3 594 -3 630 c 0,34,35
 -3 667 -3 667 16.5 686 c 128,-1,36
 36 705 36 705 73 705 c 2,37,-1
 571 705 l 2,38,39
 608 705 608 705 627.5 686 c 128,-1,40
 647 667 647 667 647 630 c 0,41,42
 647 594 647 594 627.5 574.5 c 128,-1,43
 608 555 608 555 571 555 c 2,44,-1
 414 555 l 1,45,-1
 414 430 l 1,46,47
 435 438 435 438 470.5 444 c 128,-1,48
 506 450 506 450 541 450 c 0,49,50
 616 450 616 450 674.5 431.5 c 128,-1,51
 733 413 733 413 774 375.5 c 128,-1,52
 815 338 815 338 836.5 281 c 128,-1,53
 858 224 858 224 858 146 c 2,54,-1
 858 71 l 2,55,56
 858 -12 858 -12 825.5 -71 c 128,-1,57
 793 -130 793 -130 736 -160.5 c 128,-1,58
 679 -191 679 -191 604 -191 c 0,0,1
EndSplineSet
EndChar

StartChar: uni0462
Encoding: 1122 1122 584
Width: 767
GlyphClass: 1
Flags: W
LayerCount: 2
Fore
SplineSet
246 0 m 2,0,1
 200 0 200 0 175.5 24.5 c 128,-1,2
 151 49 151 49 151 95 c 2,3,-1
 151 506 l 1,4,-1
 37 506 l 2,5,6
 5 506 5 506 -12 523 c 128,-1,7
 -29 540 -29 540 -29 571 c 0,8,9
 -29 635 -29 635 37 635 c 2,10,-1
 199 635 l 1,11,-1
 151 552 l 1,12,-1
 151 620 l 2,13,14
 151 666 151 666 174 690 c 128,-1,15
 197 714 197 714 239 714 c 0,16,17
 282 714 282 714 304 690 c 128,-1,18
 326 666 326 666 326 620 c 2,19,-1
 326 552 l 1,20,-1
 278 635 l 1,21,-1
 504 635 l 2,22,23
 536 635 536 635 553 618.5 c 128,-1,24
 570 602 570 602 570 571 c 0,25,26
 570 506 570 506 504 506 c 2,27,-1
 326 506 l 1,28,-1
 326 431 l 1,29,-1
 492 431 l 2,30,31
 607 431 607 431 673.5 375.5 c 128,-1,32
 740 320 740 320 740 216 c 256,33,34
 740 112 740 112 673.5 56 c 128,-1,35
 607 0 607 0 492 0 c 2,36,-1
 246 0 l 2,0,1
326 139 m 1,37,-1
 468 139 l 2,38,39
 519 139 519 139 542.5 158 c 128,-1,40
 566 177 566 177 566 216 c 256,41,42
 566 255 566 255 542.5 273.5 c 128,-1,43
 519 292 519 292 468 292 c 2,44,-1
 326 292 l 1,45,-1
 326 139 l 1,37,-1
EndSplineSet
EndChar

StartChar: uni046A
Encoding: 1130 1130 585
Width: 1073
GlyphClass: 1
Flags: W
LayerCount: 2
Fore
SplineSet
537 -9 m 0,0,1
 493 -9 493 -9 469 15.5 c 128,-1,2
 445 40 445 40 445 85 c 2,3,-1
 445 273 l 1,4,-1
 403 273 l 2,5,6
 352 273 352 273 327.5 253.5 c 128,-1,7
 303 234 303 234 285 198 c 2,8,-1
 217 48 l 2,9,10
 202 16 202 16 176 2 c 128,-1,11
 150 -12 150 -12 121.5 -9 c 128,-1,12
 93 -6 93 -6 71.5 11 c 128,-1,13
 50 28 50 28 43.5 56 c 128,-1,14
 37 84 37 84 55 121 c 2,15,-1
 125 265 l 2,16,17
 150 315 150 315 187.5 350 c 128,-1,18
 225 385 225 385 274 403 c 128,-1,19
 323 421 323 421 382 421 c 2,20,-1
 405 421 l 1,21,-1
 404 380 l 1,22,-1
 206 603 l 2,23,24
 186 627 186 627 184.5 650.5 c 128,-1,25
 183 674 183 674 201.5 689.5 c 128,-1,26
 220 705 220 705 259 705 c 2,27,-1
 815 705 l 2,28,29
 854 705 854 705 872.5 689.5 c 128,-1,30
 891 674 891 674 889.5 650.5 c 128,-1,31
 888 627 888 627 867 603 c 2,32,-1
 669 380 l 1,33,-1
 668 421 l 1,34,-1
 691 421 l 2,35,36
 750 421 750 421 799.5 403 c 128,-1,37
 849 385 849 385 886.5 350 c 128,-1,38
 924 315 924 315 948 265 c 2,39,-1
 1018 121 l 2,40,41
 1036 84 1036 84 1030 56 c 128,-1,42
 1024 28 1024 28 1002 11 c 128,-1,43
 980 -6 980 -6 952 -9 c 128,-1,44
 924 -12 924 -12 897.5 2 c 128,-1,45
 871 16 871 16 856 48 c 2,46,-1
 788 198 l 2,47,48
 771 234 771 234 746 253.5 c 128,-1,49
 721 273 721 273 670 273 c 2,50,-1
 629 273 l 1,51,-1
 629 85 l 2,52,53
 629 40 629 40 606 15.5 c 128,-1,54
 583 -9 583 -9 537 -9 c 0,0,1
536 417 m 1,55,-1
 538 417 l 1,56,-1
 711 622 l 1,57,-1
 711 585 l 1,58,-1
 362 585 l 1,59,-1
 362 622 l 1,60,-1
 536 417 l 1,55,-1
EndSplineSet
EndChar

StartChar: uni0474
Encoding: 1140 1140 587
Width: 802
GlyphClass: 1
Flags: W
LayerCount: 2
Fore
SplineSet
372 -9 m 256,0,1
 334 -9 334 -9 310.5 7 c 128,-1,2
 287 23 287 23 271 58 c 2,3,-1
 29 592 l 2,4,5
 13 627 13 627 19 655 c 128,-1,6
 25 683 25 683 47 698.5 c 128,-1,7
 69 714 69 714 102 714 c 0,8,9
 143 714 143 714 163.5 696 c 128,-1,10
 184 678 184 678 199 643 c 2,11,-1
 402 171 l 1,12,-1
 347 171 l 1,13,-1
 482 500 l 2,14,15
 510 569 510 569 542 613.5 c 128,-1,16
 574 658 574 658 617.5 682 c 128,-1,17
 661 706 661 706 721 712 c 0,18,19
 755 715 755 715 776.5 702.5 c 128,-1,20
 798 690 798 690 806.5 669 c 128,-1,21
 815 648 815 648 811 625 c 128,-1,22
 807 602 807 602 790.5 584 c 128,-1,23
 774 566 774 566 745 559 c 0,24,25
 720 555 720 555 700.5 538.5 c 128,-1,26
 681 522 681 522 664.5 493.5 c 128,-1,27
 648 465 648 465 628 420 c 2,28,-1
 471 58 l 2,29,30
 457 25 457 25 433.5 8 c 128,-1,31
 410 -9 410 -9 372 -9 c 256,0,1
EndSplineSet
EndChar

StartChar: uni0496
Encoding: 1174 1174 588
Width: 1095
GlyphClass: 1
Flags: W
LayerCount: 2
Fore
SplineSet
1035 -184 m 0,0,1
 996 -184 996 -184 975.5 -163 c 128,-1,2
 955 -142 955 -142 955 -102 c 2,3,-1
 955 31 l 1,4,-1
 987 0 l 1,5,-1
 939 0 l 2,6,7
 915 0 915 0 890.5 10 c 128,-1,8
 866 20 866 20 852 50 c 2,9,-1
 785 198 l 2,10,11
 766 239 766 239 738 256 c 128,-1,12
 710 273 710 273 666 273 c 2,13,-1
 623 273 l 1,14,-1
 623 84 l 2,15,16
 623 40 623 40 600.5 15.5 c 128,-1,17
 578 -9 578 -9 535 -9 c 0,18,19
 493 -9 493 -9 470 15.5 c 128,-1,20
 447 40 447 40 447 84 c 2,21,-1
 447 273 l 1,22,-1
 404 273 l 2,23,24
 359 273 359 273 331.5 256 c 128,-1,25
 304 239 304 239 285 198 c 2,26,-1
 217 48 l 2,27,28
 202 16 202 16 176 2 c 128,-1,29
 150 -12 150 -12 121.5 -9 c 128,-1,30
 93 -6 93 -6 71.5 11 c 128,-1,31
 50 28 50 28 43.5 56 c 128,-1,32
 37 84 37 84 55 121 c 2,33,-1
 122 258 l 2,34,35
 156 329 156 329 203 366 c 128,-1,36
 250 403 250 403 320 416 c 1,37,-1
 246 367 l 1,38,-1
 109 583 l 2,39,40
 88 615 88 615 91.5 642.5 c 128,-1,41
 95 670 95 670 113 688.5 c 128,-1,42
 131 707 131 707 157 713 c 128,-1,43
 183 719 183 719 209 708.5 c 128,-1,44
 235 698 235 698 254 667 c 2,45,-1
 410 405 l 1,46,-1
 384 423 l 1,47,-1
 447 423 l 1,48,-1
 447 621 l 2,49,50
 447 667 447 667 470 690.5 c 128,-1,51
 493 714 493 714 535 714 c 0,52,53
 578 714 578 714 600.5 690.5 c 128,-1,54
 623 667 623 667 623 621 c 2,55,-1
 623 423 l 1,56,-1
 686 423 l 1,57,-1
 660 405 l 1,58,-1
 816 667 l 2,59,60
 835 698 835 698 861 708.5 c 128,-1,61
 887 719 887 719 912.5 713 c 128,-1,62
 938 707 938 707 956.5 688.5 c 128,-1,63
 975 670 975 670 978.5 642.5 c 128,-1,64
 982 615 982 615 961 583 c 2,65,-1
 824 367 l 1,66,-1
 750 416 l 1,67,68
 797 408 797 408 832.5 388.5 c 128,-1,69
 868 369 868 369 896.5 337.5 c 128,-1,70
 925 306 925 306 948 258 c 2,71,-1
 1039 70 l 1,72,-1
 984 144 l 1,73,-1
 1031 144 l 2,74,75
 1071 144 1071 144 1092.5 122.5 c 128,-1,76
 1114 101 1114 101 1114 62 c 2,77,-1
 1114 -102 l 2,78,79
 1114 -142 1114 -142 1093.5 -163 c 128,-1,80
 1073 -184 1073 -184 1035 -184 c 0,0,1
EndSplineSet
EndChar

StartChar: uni0498
Encoding: 1176 1176 589
Width: 628
GlyphClass: 2
Flags: W
AnchorPoint: "Anchor-2" 310 0 basechar 0
AnchorPoint: "Anchor-0" 300 705 basechar 0
LayerCount: 2
Fore
SplineSet
309 -184 m 256,0,1
 272 -184 272 -184 252.5 -163 c 128,-1,2
 233 -142 233 -142 233 -104 c 2,3,-1
 233 91 l 1,4,-1
 385 91 l 1,5,-1
 385 -104 l 2,6,7
 385 -142 385 -142 365.5 -163 c 128,-1,8
 346 -184 346 -184 309 -184 c 256,0,1
294 -11 m 0,9,10
 229 -11 229 -11 173.5 1 c 128,-1,11
 118 13 118 13 72 36 c 0,12,13
 44 49 44 49 32.5 71 c 128,-1,14
 21 93 21 93 23 115 c 128,-1,15
 25 137 25 137 39 154 c 128,-1,16
 53 171 53 171 76 177 c 128,-1,17
 99 183 99 183 128 170 c 0,18,19
 150 160 150 160 174 153 c 128,-1,20
 198 146 198 146 224.5 143 c 128,-1,21
 251 140 251 140 277 140 c 0,22,23
 323 140 323 140 352 148.5 c 128,-1,24
 381 157 381 157 395 175 c 128,-1,25
 409 193 409 193 409 220 c 0,26,27
 409 254 409 254 385.5 270.5 c 128,-1,28
 362 287 362 287 311 287 c 2,29,-1
 206 287 l 2,30,31
 170 287 170 287 151 305 c 128,-1,32
 132 323 132 323 132 358 c 0,33,34
 132 392 132 392 151 410 c 128,-1,35
 170 428 170 428 206 428 c 2,36,-1
 292 428 l 2,37,38
 343 428 343 428 366 444 c 128,-1,39
 389 460 389 460 389 494 c 0,40,41
 389 515 389 515 378 531.5 c 128,-1,42
 367 548 367 548 343 556.5 c 128,-1,43
 319 565 319 565 280 565 c 0,44,45
 247 565 247 565 212 558.5 c 128,-1,46
 177 552 177 552 147 539 c 256,47,48
 117 526 117 526 94 531.5 c 128,-1,49
 71 537 71 537 57 554.5 c 128,-1,50
 43 572 43 572 40 594.5 c 128,-1,51
 37 617 37 617 48.5 638 c 128,-1,52
 60 659 60 659 87 671 c 0,53,54
 134 694 134 694 188.5 705 c 128,-1,55
 243 716 243 716 303 716 c 0,56,57
 392 716 392 716 451.5 691 c 128,-1,58
 511 666 511 666 540 622 c 128,-1,59
 569 578 569 578 569 523 c 0,60,61
 569 461 569 461 533.5 417 c 128,-1,62
 498 373 498 373 437 357 c 1,63,-1
 437 373 l 1,64,65
 509 360 509 360 548 315 c 128,-1,66
 587 270 587 270 587 200 c 0,67,68
 587 139 587 139 555.5 91 c 128,-1,69
 524 43 524 43 459 16 c 128,-1,70
 394 -11 394 -11 294 -11 c 0,9,10
EndSplineSet
Substitution2: "'locl' Localized Forms in Cyrillic lookup 17 subtable" uni0498.loclCHU
Substitution2: "'locl' Localized Forms in Cyrillic lookup 16 subtable" uni0498.loclBSH
AlternateSubs2: "'aalt' Access All Alternates lookup 1 subtable" uni0498.loclBSH uni0498.loclCHU
EndChar

StartChar: uni049A
Encoding: 1178 1178 590
Width: 742
GlyphClass: 1
Flags: W
LayerCount: 2
Fore
SplineSet
682 -184 m 0,0,1
 643 -184 643 -184 622.5 -163 c 128,-1,2
 602 -142 602 -142 602 -102 c 2,3,-1
 602 26 l 1,4,-1
 625 0 l 1,5,-1
 586 0 l 2,6,7
 562 0 562 0 537.5 10 c 128,-1,8
 513 20 513 20 499 50 c 2,9,-1
 432 198 l 2,10,11
 413 239 413 239 385 256 c 128,-1,12
 357 273 357 273 313 273 c 2,13,-1
 248 273 l 1,14,-1
 248 84 l 2,15,16
 248 40 248 40 225 15.5 c 128,-1,17
 202 -9 202 -9 156 -9 c 0,18,19
 112 -9 112 -9 88 15.5 c 128,-1,20
 64 40 64 40 64 84 c 2,21,-1
 64 621 l 2,22,23
 64 667 64 667 88 690.5 c 128,-1,24
 112 714 112 714 156 714 c 0,25,26
 201 714 201 714 224.5 690.5 c 128,-1,27
 248 667 248 667 248 621 c 2,28,-1
 248 423 l 1,29,-1
 333 423 l 1,30,-1
 307 405 l 1,31,-1
 463 667 l 2,32,33
 482 698 482 698 508 708.5 c 128,-1,34
 534 719 534 719 559.5 713 c 128,-1,35
 585 707 585 707 603.5 688.5 c 128,-1,36
 622 670 622 670 625 642.5 c 128,-1,37
 628 615 628 615 608 583 c 2,38,-1
 471 367 l 1,39,-1
 397 416 l 1,40,41
 467 403 467 403 513.5 366 c 128,-1,42
 560 329 560 329 595 258 c 2,43,-1
 686 70 l 1,44,-1
 622 144 l 1,45,-1
 678 144 l 2,46,47
 718 144 718 144 739.5 122.5 c 128,-1,48
 761 101 761 101 761 62 c 2,49,-1
 761 -102 l 2,50,51
 761 -142 761 -142 740.5 -163 c 128,-1,52
 720 -184 720 -184 682 -184 c 0,0,1
EndSplineSet
EndChar

StartChar: uni049C
Encoding: 1180 1180 591
Width: 796
GlyphClass: 1
Flags: W
LayerCount: 2
Fore
SplineSet
156 -9 m 0,0,1
 112 -9 112 -9 88 15.5 c 128,-1,2
 64 40 64 40 64 84 c 2,3,-1
 64 621 l 2,4,5
 64 667 64 667 88 690.5 c 128,-1,6
 112 714 112 714 156 714 c 0,7,8
 201 714 201 714 224.5 690.5 c 128,-1,9
 248 667 248 667 248 621 c 2,10,-1
 248 422 l 1,11,-1
 292 422 l 1,12,-1
 292 532 l 2,13,14
 292 589 292 589 345 589 c 0,15,16
 371 589 371 589 384 574.5 c 128,-1,17
 397 560 397 560 397 532 c 2,18,-1
 397 422 l 1,19,-1
 399 422 l 1,20,-1
 394 420 l 1,21,-1
 543 667 l 2,22,23
 561 698 561 698 587 708.5 c 128,-1,24
 613 719 613 719 639.5 713 c 128,-1,25
 666 707 666 707 683.5 688.5 c 128,-1,26
 701 670 701 670 704.5 642.5 c 128,-1,27
 708 615 708 615 688 583 c 2,28,-1
 550 367 l 1,29,-1
 476 416 l 1,30,31
 523 408 523 408 559 389 c 128,-1,32
 595 370 595 370 623.5 338.5 c 128,-1,33
 652 307 652 307 675 258 c 2,34,-1
 741 121 l 2,35,36
 760 84 760 84 753.5 56 c 128,-1,37
 747 28 747 28 725 11 c 128,-1,38
 703 -6 703 -6 675 -9 c 128,-1,39
 647 -12 647 -12 620.5 2 c 128,-1,40
 594 16 594 16 580 48 c 2,41,-1
 511 198 l 2,42,43
 492 239 492 239 464.5 257.5 c 128,-1,44
 437 276 437 276 392 276 c 2,45,-1
 374 276 l 1,46,-1
 397 288 l 1,47,-1
 397 172 l 2,48,49
 397 115 397 115 345 115 c 0,50,51
 292 115 292 115 292 172 c 2,52,-1
 292 276 l 1,53,-1
 248 276 l 1,54,-1
 248 84 l 2,55,56
 248 40 248 40 225 15.5 c 128,-1,57
 202 -9 202 -9 156 -9 c 0,0,1
EndSplineSet
EndChar

StartChar: uni049E
Encoding: 1182 1182 592
Width: 793
GlyphClass: 1
Flags: W
LayerCount: 2
Fore
SplineSet
222 -9 m 256,0,1
 177 -9 177 -9 153.5 15.5 c 128,-1,2
 130 40 130 40 130 84 c 2,3,-1
 130 513 l 1,4,-1
 44 513 l 2,5,6
 14 513 14 513 -3 529 c 128,-1,7
 -20 545 -20 545 -20 574 c 256,8,9
 -20 603 -20 603 -3 619 c 128,-1,10
 14 635 14 635 44 635 c 2,11,-1
 147 635 l 1,12,-1
 130 578 l 1,13,-1
 130 621 l 2,14,15
 130 667 130 667 153.5 690.5 c 128,-1,16
 177 714 177 714 222 714 c 0,17,18
 266 714 266 714 289.5 690.5 c 128,-1,19
 313 667 313 667 313 621 c 2,20,-1
 313 578 l 1,21,-1
 295 635 l 1,22,-1
 373 635 l 2,23,24
 404 635 404 635 420.5 619 c 128,-1,25
 437 603 437 603 437 574 c 256,26,27
 437 545 437 545 420.5 529 c 128,-1,28
 404 513 404 513 373 513 c 2,29,-1
 313 513 l 1,30,-1
 313 423 l 1,31,-1
 429 423 l 1,32,-1
 392 389 l 1,33,-1
 567 667 l 2,34,35
 586 698 586 698 612.5 708.5 c 128,-1,36
 639 719 639 719 664.5 712.5 c 128,-1,37
 690 706 690 706 707.5 687.5 c 128,-1,38
 725 669 725 669 727.5 641.5 c 128,-1,39
 730 614 730 614 710 583 c 2,40,-1
 556 351 l 1,41,-1
 461 416 l 1,42,43
 508 408 508 408 543.5 389 c 128,-1,44
 579 370 579 370 607 338.5 c 128,-1,45
 635 307 635 307 659 258 c 2,46,-1
 725 121 l 2,47,48
 743 84 743 84 737 56 c 128,-1,49
 731 28 731 28 709 11 c 128,-1,50
 687 -6 687 -6 659 -9 c 128,-1,51
 631 -12 631 -12 604.5 2 c 128,-1,52
 578 16 578 16 563 48 c 2,53,-1
 495 198 l 2,54,55
 476 239 476 239 448.5 256 c 128,-1,56
 421 273 421 273 377 273 c 2,57,-1
 313 273 l 1,58,-1
 313 84 l 2,59,60
 313 40 313 40 290 15.5 c 128,-1,61
 267 -9 267 -9 222 -9 c 256,0,1
EndSplineSet
EndChar

StartChar: uni04A0
Encoding: 1184 1184 593
Width: 854
GlyphClass: 1
Flags: W
LayerCount: 2
Fore
SplineSet
294 -9 m 0,0,1
 250 -9 250 -9 226 15.5 c 128,-1,2
 202 40 202 40 202 84 c 2,3,-1
 202 556 l 1,4,-1
 75 556 l 2,5,6
 37 556 37 556 17 575 c 128,-1,7
 -3 594 -3 594 -3 630 c 0,8,9
 -3 667 -3 667 17 686 c 128,-1,10
 37 705 37 705 75 705 c 2,11,-1
 294 705 l 2,12,13
 339 705 339 705 362.5 681 c 128,-1,14
 386 657 386 657 386 612 c 2,15,-1
 386 423 l 1,16,-1
 471 423 l 1,17,-1
 445 405 l 1,18,-1
 601 667 l 2,19,20
 620 698 620 698 646 708.5 c 128,-1,21
 672 719 672 719 697.5 713 c 128,-1,22
 723 707 723 707 741.5 688.5 c 128,-1,23
 760 670 760 670 763 642.5 c 128,-1,24
 766 615 766 615 746 583 c 2,25,-1
 609 367 l 1,26,-1
 535 416 l 1,27,28
 605 403 605 403 651.5 366 c 128,-1,29
 698 329 698 329 733 258 c 2,30,-1
 799 121 l 2,31,32
 818 84 818 84 811.5 56 c 128,-1,33
 805 28 805 28 783 11 c 128,-1,34
 761 -6 761 -6 733 -9 c 128,-1,35
 705 -12 705 -12 678.5 2 c 128,-1,36
 652 16 652 16 638 48 c 2,37,-1
 569 198 l 2,38,39
 551 239 551 239 523 256 c 128,-1,40
 495 273 495 273 451 273 c 2,41,-1
 386 273 l 1,42,-1
 386 84 l 2,43,44
 386 40 386 40 363 15.5 c 128,-1,45
 340 -9 340 -9 294 -9 c 0,0,1
EndSplineSet
EndChar

StartChar: uni04A2
Encoding: 1186 1186 594
Width: 838
GlyphClass: 1
Flags: W
LayerCount: 2
Fore
SplineSet
743 -184 m 256,0,1
 704 -184 704 -184 683.5 -163 c 128,-1,2
 663 -142 663 -142 663 -102 c 2,3,-1
 663 0 l 1,4,-1
 631 0 l 2,5,6
 586 0 586 0 562.5 24.5 c 128,-1,7
 539 49 539 49 539 94 c 2,8,-1
 539 282 l 1,9,-1
 248 282 l 1,10,-1
 248 85 l 2,11,12
 248 40 248 40 225 15.5 c 128,-1,13
 202 -9 202 -9 156 -9 c 0,14,15
 112 -9 112 -9 88 15.5 c 128,-1,16
 64 40 64 40 64 85 c 2,17,-1
 64 620 l 2,18,19
 64 666 64 666 88 690 c 128,-1,20
 112 714 112 714 156 714 c 0,21,22
 201 714 201 714 224.5 690 c 128,-1,23
 248 666 248 666 248 620 c 2,24,-1
 248 433 l 1,25,-1
 539 433 l 1,26,-1
 539 620 l 2,27,28
 539 666 539 666 562.5 690 c 128,-1,29
 586 714 586 714 631 714 c 0,30,31
 675 714 675 714 698.5 690 c 128,-1,32
 722 666 722 666 722 620 c 2,33,-1
 722 74 l 1,34,-1
 658 144 l 1,35,-1
 742 144 l 2,36,37
 779 144 779 144 800.5 122.5 c 128,-1,38
 822 101 822 101 822 68 c 2,39,-1
 822 -102 l 2,40,41
 822 -142 822 -142 802 -163 c 128,-1,42
 782 -184 782 -184 743 -184 c 256,0,1
EndSplineSet
EndChar

StartChar: uni04A4
Encoding: 1188 1188 595
Width: 953
GlyphClass: 1
Flags: W
LayerCount: 2
Fore
SplineSet
156 -9 m 0,0,1
 112 -9 112 -9 88 15.5 c 128,-1,2
 64 40 64 40 64 85 c 2,3,-1
 64 620 l 2,4,5
 64 666 64 666 88 690 c 128,-1,6
 112 714 112 714 156 714 c 0,7,8
 201 714 201 714 224.5 690 c 128,-1,9
 248 666 248 666 248 620 c 2,10,-1
 248 433 l 1,11,-1
 539 433 l 1,12,-1
 539 610 l 2,13,14
 539 656 539 656 563 680.5 c 128,-1,15
 587 705 587 705 633 705 c 2,16,-1
 880 705 l 2,17,18
 916 705 916 705 936 686 c 128,-1,19
 956 667 956 667 956 630 c 0,20,21
 956 594 956 594 936 574.5 c 128,-1,22
 916 555 916 555 880 555 c 2,23,-1
 722 555 l 1,24,-1
 722 85 l 2,25,26
 722 40 722 40 698.5 15.5 c 128,-1,27
 675 -9 675 -9 631 -9 c 0,28,29
 586 -9 586 -9 562.5 15.5 c 128,-1,30
 539 40 539 40 539 85 c 2,31,-1
 539 282 l 1,32,-1
 248 282 l 1,33,-1
 248 85 l 2,34,35
 248 40 248 40 225 15.5 c 128,-1,36
 202 -9 202 -9 156 -9 c 0,0,1
EndSplineSet
EndChar

StartChar: uni0524
Encoding: 1316 1316 596
Width: 831
GlyphClass: 1
Flags: W
LayerCount: 2
Fore
SplineSet
736 -184 m 0,0,1
 697 -184 697 -184 676.5 -163 c 128,-1,2
 656 -142 656 -142 656 -102 c 2,3,-1
 656 0 l 1,4,-1
 623 0 l 2,5,6
 579 0 579 0 555 24.5 c 128,-1,7
 531 49 531 49 531 94 c 2,8,-1
 531 555 l 1,9,-1
 248 555 l 1,10,-1
 248 85 l 2,11,12
 248 40 248 40 225 15.5 c 128,-1,13
 202 -9 202 -9 156 -9 c 0,14,15
 112 -9 112 -9 88 15.5 c 128,-1,16
 64 40 64 40 64 85 c 2,17,-1
 64 610 l 2,18,19
 64 656 64 656 88.5 680.5 c 128,-1,20
 113 705 113 705 160 705 c 2,21,-1
 619 705 l 2,22,23
 666 705 666 705 690.5 680.5 c 128,-1,24
 715 656 715 656 715 610 c 2,25,-1
 715 74 l 1,26,-1
 660 144 l 1,27,-1
 734 144 l 2,28,29
 772 144 772 144 793.5 122.5 c 128,-1,30
 815 101 815 101 815 68 c 2,31,-1
 815 -102 l 2,32,33
 815 -142 815 -142 794.5 -163 c 128,-1,34
 774 -184 774 -184 736 -184 c 0,0,1
EndSplineSet
EndChar

StartChar: uni04A8
Encoding: 1192 1192 597
Width: 883
GlyphClass: 1
Flags: W
LayerCount: 2
Fore
SplineSet
401 -11 m 0,0,1
 291 -11 291 -11 211 33 c 128,-1,2
 131 77 131 77 88.5 157 c 128,-1,3
 46 237 46 237 46 345 c 0,4,5
 46 434 46 434 71 502.5 c 128,-1,6
 96 571 96 571 143 619 c 128,-1,7
 190 667 190 667 255 691.5 c 128,-1,8
 320 716 320 716 400 716 c 0,9,10
 403 716 403 716 406.5 716 c 128,-1,11
 410 716 410 716 417 716 c 0,12,13
 447 715 447 715 464.5 696.5 c 128,-1,14
 482 678 482 678 482 646 c 0,15,16
 482 621 482 621 470.5 605 c 128,-1,17
 459 589 459 589 442.5 582 c 128,-1,18
 426 575 426 575 412 574 c 0,19,20
 403 573 403 573 394.5 572.5 c 128,-1,21
 386 572 386 572 379 570 c 0,22,23
 332 563 332 563 299.5 536.5 c 128,-1,24
 267 510 267 510 250.5 464 c 128,-1,25
 234 418 234 418 234 353 c 0,26,27
 234 276 234 276 254.5 224.5 c 128,-1,28
 275 173 275 173 316.5 147 c 128,-1,29
 358 121 358 121 420 121 c 0,30,31
 477 121 477 121 517 131.5 c 128,-1,32
 557 142 557 142 581.5 165 c 128,-1,33
 606 188 606 188 617.5 224 c 128,-1,34
 629 260 629 260 629 311 c 0,35,36
 629 360 629 360 613.5 385.5 c 128,-1,37
 598 411 598 411 570 411 c 0,38,39
 552 411 552 411 538.5 399.5 c 128,-1,40
 525 388 525 388 518 366 c 128,-1,41
 511 344 511 344 511 311 c 0,42,43
 511 242 511 242 531 200 c 128,-1,44
 551 158 551 158 597 139.5 c 128,-1,45
 643 121 643 121 720 121 c 0,46,47
 740 121 740 121 765 124.5 c 128,-1,48
 790 128 790 128 812 136 c 0,49,50
 839 145 839 145 858.5 137 c 128,-1,51
 878 129 878 129 889 111.5 c 128,-1,52
 900 94 900 94 900 73 c 128,-1,53
 900 52 900 52 888 34.5 c 128,-1,54
 876 17 876 17 852 8 c 0,55,56
 823 -2 823 -2 788 -6.5 c 128,-1,57
 753 -11 753 -11 715 -11 c 0,58,59
 641 -11 641 -11 574 14 c 128,-1,60
 507 39 507 39 456 83.5 c 128,-1,61
 405 128 405 128 375.5 187.5 c 128,-1,62
 346 247 346 247 346 316 c 0,63,64
 346 384 346 384 373 436 c 128,-1,65
 400 488 400 488 450.5 517 c 128,-1,66
 501 546 501 546 570 546 c 256,67,68
 639 546 639 546 689 517 c 128,-1,69
 739 488 739 488 766.5 436 c 128,-1,70
 794 384 794 384 794 316 c 0,71,72
 794 245 794 245 764 185.5 c 128,-1,73
 734 126 734 126 680 82 c 128,-1,74
 626 38 626 38 554.5 13.5 c 128,-1,75
 483 -11 483 -11 401 -11 c 0,0,1
EndSplineSet
EndChar

StartChar: uni04AA
Encoding: 1194 1194 598
Width: 688
GlyphClass: 2
Flags: W
AnchorPoint: "Anchor-2" 407 0 basechar 0
AnchorPoint: "Anchor-0" 398 705 basechar 0
LayerCount: 2
Fore
SplineSet
404 -184 m 256,0,1
 367 -184 367 -184 347.5 -163 c 128,-1,2
 328 -142 328 -142 328 -104 c 2,3,-1
 328 91 l 1,4,-1
 479 91 l 1,5,-1
 479 -104 l 2,6,7
 479 -142 479 -142 460 -163 c 128,-1,8
 441 -184 441 -184 404 -184 c 256,0,1
420 -11 m 0,9,10
 303 -11 303 -11 219 34 c 128,-1,11
 135 79 135 79 90.5 161 c 128,-1,12
 46 243 46 243 46 353 c 0,13,14
 46 435 46 435 71.5 502 c 128,-1,15
 97 569 97 569 145.5 617 c 128,-1,16
 194 665 194 665 263.5 690.5 c 128,-1,17
 333 716 333 716 420 716 c 0,18,19
 466 716 466 716 515.5 705.5 c 128,-1,20
 565 695 565 695 603 674 c 0,21,22
 631 659 631 659 642 636 c 128,-1,23
 653 613 653 613 649.5 589 c 128,-1,24
 646 565 646 565 632 546 c 128,-1,25
 618 527 618 527 596 520.5 c 128,-1,26
 574 514 574 514 548 527 c 0,27,28
 518 541 518 541 488.5 548.5 c 128,-1,29
 459 556 459 556 427 556 c 0,30,31
 365 556 365 556 323.5 532.5 c 128,-1,32
 282 509 282 509 261 464 c 128,-1,33
 240 419 240 419 240 353 c 256,34,35
 240 287 240 287 261 241.5 c 128,-1,36
 282 196 282 196 323.5 172.5 c 128,-1,37
 365 149 365 149 427 149 c 0,38,39
 453 149 453 149 483 155.5 c 128,-1,40
 513 162 513 162 542 176 c 0,41,42
 572 189 572 189 595.5 183 c 128,-1,43
 619 177 619 177 633.5 159 c 128,-1,44
 648 141 648 141 652 117.5 c 128,-1,45
 656 94 656 94 645.5 71 c 128,-1,46
 635 48 635 48 609 34 c 0,47,48
 574 13 574 13 522.5 1 c 128,-1,49
 471 -11 471 -11 420 -11 c 0,9,10
EndSplineSet
Substitution2: "'locl' Localized Forms in Cyrillic lookup 17 subtable" uni04AA.loclCHU
Substitution2: "'locl' Localized Forms in Cyrillic lookup 16 subtable" uni04AA.loclBSH
AlternateSubs2: "'aalt' Access All Alternates lookup 1 subtable" uni04AA.loclBSH uni04AA.loclCHU
EndChar

StartChar: uni04AC
Encoding: 1196 1196 599
Width: 619
GlyphClass: 1
Flags: W
LayerCount: 2
Fore
SplineSet
422 -184 m 0,0,1
 383 -184 383 -184 362.5 -163 c 128,-1,2
 342 -142 342 -142 342 -103 c 2,3,-1
 342 0 l 1,4,-1
 313 0 l 2,5,6
 267 0 267 0 242.5 24.5 c 128,-1,7
 218 49 218 49 218 95 c 2,8,-1
 218 555 l 1,9,-1
 63 555 l 2,10,11
 25 555 25 555 5.5 574.5 c 128,-1,12
 -14 594 -14 594 -14 630 c 0,13,14
 -14 667 -14 667 5.5 686 c 128,-1,15
 25 705 25 705 63 705 c 2,16,-1
 559 705 l 2,17,18
 596 705 596 705 615.5 686 c 128,-1,19
 635 667 635 667 635 630 c 0,20,21
 635 594 635 594 615.5 574.5 c 128,-1,22
 596 555 596 555 559 555 c 2,23,-1
 401 555 l 1,24,-1
 401 67 l 1,25,-1
 319 148 l 1,26,-1
 420 148 l 2,27,28
 460 148 460 148 480.5 128 c 128,-1,29
 501 108 501 108 501 68 c 2,30,-1
 501 -103 l 2,31,32
 501 -184 501 -184 422 -184 c 0,0,1
EndSplineSet
EndChar

StartChar: uni04B2
Encoding: 1202 1202 602
Width: 724
GlyphClass: 1
Flags: W
LayerCount: 2
Fore
SplineSet
665 -184 m 0,0,1
 626 -184 626 -184 605.5 -163 c 128,-1,2
 585 -142 585 -142 585 -102 c 2,3,-1
 585 22 l 1,4,-1
 613 0 l 1,5,-1
 569 0 l 2,6,7
 541 0 541 0 519 9.5 c 128,-1,8
 497 19 497 19 474 50 c 2,9,-1
 320 263 l 1,10,-1
 378 263 l 1,11,-1
 225 50 l 2,12,13
 202 19 202 19 180 5 c 128,-1,14
 158 -9 158 -9 129 -9 c 0,15,16
 94 -9 94 -9 71 10 c 128,-1,17
 48 29 48 29 44.5 58 c 128,-1,18
 41 87 41 87 64 117 c 2,19,-1
 276 397 l 1,20,-1
 276 314 l 1,21,-1
 70 587 l 2,22,23
 47 618 47 618 50.5 647 c 128,-1,24
 54 676 54 676 77 695 c 128,-1,25
 100 714 100 714 135 714 c 0,26,27
 164 714 164 714 186 700 c 128,-1,28
 208 686 208 686 230 655 c 2,29,-1
 379 448 l 1,30,-1
 319 448 l 1,31,-1
 469 655 l 2,32,33
 491 687 491 687 513 700.5 c 128,-1,34
 535 714 535 714 564 714 c 0,35,36
 600 714 600 714 623 695.5 c 128,-1,37
 646 677 646 677 649.5 648 c 128,-1,38
 653 619 653 619 629 587 c 2,39,-1
 422 314 l 1,40,-1
 422 397 l 1,41,-1
 665 78 l 1,42,-1
 569 144 l 1,43,-1
 662 144 l 2,44,45
 701 144 701 144 722.5 122.5 c 128,-1,46
 744 101 744 101 744 62 c 2,47,-1
 744 -102 l 2,48,49
 744 -142 744 -142 723.5 -163 c 128,-1,50
 703 -184 703 -184 665 -184 c 0,0,1
EndSplineSet
EndChar

StartChar: uni04B4
Encoding: 1204 1204 603
Width: 975
GlyphClass: 1
Flags: W
LayerCount: 2
Fore
SplineSet
874 -177 m 0,0,1
 835 -177 835 -177 814 -156.5 c 128,-1,2
 793 -136 793 -136 793 -96 c 2,3,-1
 793 0 l 1,4,-1
 297 0 l 2,5,6
 251 0 251 0 226.5 24.5 c 128,-1,7
 202 49 202 49 202 95 c 2,8,-1
 202 555 l 1,9,-1
 73 555 l 2,10,11
 35 555 35 555 15.5 574.5 c 128,-1,12
 -4 594 -4 594 -4 630 c 0,13,14
 -4 667 -4 667 15.5 686 c 128,-1,15
 35 705 35 705 73 705 c 2,16,-1
 488 705 l 2,17,18
 526 705 526 705 545 686 c 128,-1,19
 564 667 564 667 564 630 c 0,20,21
 564 594 564 594 545 574.5 c 128,-1,22
 526 555 526 555 488 555 c 2,23,-1
 385 555 l 1,24,-1
 385 150 l 1,25,-1
 669 150 l 1,26,-1
 669 612 l 2,27,28
 669 658 669 658 693 682 c 128,-1,29
 717 706 717 706 761 706 c 0,30,31
 806 706 806 706 829.5 682 c 128,-1,32
 853 658 853 658 853 612 c 2,33,-1
 853 67 l 1,34,-1
 770 150 l 1,35,-1
 871 150 l 2,36,37
 911 150 911 150 932 129 c 128,-1,38
 953 108 953 108 953 68 c 2,39,-1
 953 -96 l 2,40,41
 953 -177 953 -177 874 -177 c 0,0,1
EndSplineSet
EndChar

StartChar: uni04B6
Encoding: 1206 1206 604
Width: 773
GlyphClass: 1
Flags: W
LayerCount: 2
Fore
SplineSet
473 248 m 1,0,1
 452 239 452 239 415.5 233 c 128,-1,2
 379 227 379 227 344 227 c 0,3,4
 250 227 250 227 183 260 c 128,-1,5
 116 293 116 293 81.5 360.5 c 128,-1,6
 47 428 47 428 47 531 c 2,7,-1
 47 620 l 2,8,9
 47 666 47 666 70.5 690 c 128,-1,10
 94 714 94 714 139 714 c 0,11,12
 183 714 183 714 206.5 690 c 128,-1,13
 230 666 230 666 230 620 c 2,14,-1
 230 537 l 2,15,16
 230 454 230 454 264.5 417.5 c 128,-1,17
 299 381 299 381 367 381 c 0,18,19
 392 381 392 381 421 386 c 128,-1,20
 450 391 450 391 473 401 c 1,21,-1
 473 620 l 2,22,23
 473 666 473 666 497 690 c 128,-1,24
 521 714 521 714 566 714 c 0,25,26
 610 714 610 714 633.5 690 c 128,-1,27
 657 666 657 666 657 620 c 2,28,-1
 657 74 l 1,29,-1
 602 144 l 1,30,-1
 677 144 l 2,31,32
 714 144 714 144 735.5 122.5 c 128,-1,33
 757 101 757 101 757 68 c 2,34,-1
 757 -102 l 2,35,36
 757 -142 757 -142 737 -163 c 128,-1,37
 717 -184 717 -184 678 -184 c 256,38,39
 639 -184 639 -184 618.5 -163 c 128,-1,40
 598 -142 598 -142 598 -102 c 2,41,-1
 598 0 l 1,42,-1
 566 0 l 2,43,44
 521 0 521 0 497 24.5 c 128,-1,45
 473 49 473 49 473 94 c 2,46,-1
 473 248 l 1,0,1
EndSplineSet
EndChar

StartChar: uni04B8
Encoding: 1208 1208 605
Width: 721
GlyphClass: 1
Flags: W
LayerCount: 2
Fore
SplineSet
566 -9 m 256,0,1
 521 -9 521 -9 497 15.5 c 128,-1,2
 473 40 473 40 473 85 c 2,3,-1
 473 248 l 1,4,5
 453 240 453 240 427 234.5 c 128,-1,6
 401 229 401 229 379 228 c 1,7,-1
 408 250 l 1,8,-1
 408 147 l 2,9,10
 408 90 408 90 356 90 c 0,11,12
 330 90 330 90 316.5 104.5 c 128,-1,13
 303 119 303 119 303 147 c 2,14,-1
 303 250 l 1,15,-1
 324 227 l 1,16,17
 239 230 239 230 176.5 263 c 128,-1,18
 114 296 114 296 80.5 362 c 128,-1,19
 47 428 47 428 47 531 c 2,20,-1
 47 620 l 2,21,22
 47 666 47 666 70.5 690 c 128,-1,23
 94 714 94 714 139 714 c 0,24,25
 183 714 183 714 206.5 690 c 128,-1,26
 230 666 230 666 230 620 c 2,27,-1
 230 537 l 2,28,29
 230 468 230 468 256.5 428 c 128,-1,30
 283 388 283 388 340 383 c 1,31,-1
 303 371 l 1,32,-1
 303 490 l 2,33,34
 303 546 303 546 356 546 c 0,35,36
 382 546 382 546 395 531.5 c 128,-1,37
 408 517 408 517 408 490 c 2,38,-1
 408 371 l 1,39,-1
 367 381 l 1,40,41
 392 381 392 381 423 386.5 c 128,-1,42
 454 392 454 392 473 401 c 1,43,-1
 473 620 l 2,44,45
 473 666 473 666 497 690 c 128,-1,46
 521 714 521 714 566 714 c 0,47,48
 610 714 610 714 633.5 690 c 128,-1,49
 657 666 657 666 657 620 c 2,50,-1
 657 85 l 2,51,52
 657 40 657 40 634 15.5 c 128,-1,53
 611 -9 611 -9 566 -9 c 256,0,1
EndSplineSet
EndChar

StartChar: uni04BA
Encoding: 1210 1210 606
Width: 721
GlyphClass: 2
Flags: W
LayerCount: 2
Fore
SplineSet
156 -9 m 0,0,1
 111 -9 111 -9 87.5 15.5 c 128,-1,2
 64 40 64 40 64 85 c 2,3,-1
 64 620 l 2,4,5
 64 666 64 666 87.5 690 c 128,-1,6
 111 714 111 714 156 714 c 0,7,8
 200 714 200 714 224 690 c 128,-1,9
 248 666 248 666 248 620 c 2,10,-1
 248 457 l 1,11,12
 270 466 270 466 306 472 c 128,-1,13
 342 478 342 478 377 478 c 0,14,15
 472 478 472 478 538.5 445 c 128,-1,16
 605 412 605 412 640 344.5 c 128,-1,17
 675 277 675 277 675 174 c 2,18,-1
 675 85 l 2,19,20
 675 40 675 40 651 15.5 c 128,-1,21
 627 -9 627 -9 582 -9 c 0,22,23
 538 -9 538 -9 514.5 15.5 c 128,-1,24
 491 40 491 40 491 85 c 2,25,-1
 491 168 l 2,26,27
 491 252 491 252 457 288 c 128,-1,28
 423 324 423 324 354 324 c 0,29,30
 328 324 328 324 300 319.5 c 128,-1,31
 272 315 272 315 248 304 c 1,32,-1
 248 85 l 2,33,34
 248 40 248 40 224 15.5 c 128,-1,35
 200 -9 200 -9 156 -9 c 0,0,1
EndSplineSet
EndChar

StartChar: uni0526
Encoding: 1318 1318 607
Width: 773
GlyphClass: 1
Flags: W
LayerCount: 2
Fore
SplineSet
491 168 m 2,0,1
 491 252 491 252 457 288 c 128,-1,2
 423 324 423 324 354 324 c 0,3,4
 328 324 328 324 300 319.5 c 128,-1,5
 272 315 272 315 248 304 c 1,6,-1
 248 85 l 2,7,8
 248 40 248 40 224 15.5 c 128,-1,9
 200 -9 200 -9 156 -9 c 0,10,11
 111 -9 111 -9 87.5 15.5 c 128,-1,12
 64 40 64 40 64 85 c 2,13,-1
 64 620 l 2,14,15
 64 666 64 666 87.5 690 c 128,-1,16
 111 714 111 714 156 714 c 0,17,18
 200 714 200 714 224 690 c 128,-1,19
 248 666 248 666 248 620 c 2,20,-1
 248 457 l 1,21,22
 270 466 270 466 306 472 c 128,-1,23
 342 478 342 478 377 478 c 0,24,25
 472 478 472 478 538.5 445 c 128,-1,26
 605 412 605 412 640 344.5 c 128,-1,27
 675 277 675 277 675 174 c 2,28,-1
 675 74 l 1,29,-1
 620 144 l 1,30,-1
 694 144 l 2,31,32
 732 144 732 144 753.5 122.5 c 128,-1,33
 775 101 775 101 775 68 c 2,34,-1
 775 -102 l 2,35,36
 775 -142 775 -142 754.5 -163 c 128,-1,37
 734 -184 734 -184 696 -184 c 0,38,39
 657 -184 657 -184 636 -163 c 128,-1,40
 615 -142 615 -142 615 -102 c 2,41,-1
 615 0 l 1,42,-1
 583 0 l 2,43,44
 539 0 539 0 515 24.5 c 128,-1,45
 491 49 491 49 491 94 c 2,46,-1
 491 168 l 2,0,1
EndSplineSet
EndChar

StartChar: uni04BC
Encoding: 1212 1212 608
Width: 1010
GlyphClass: 2
Flags: W
AnchorPoint: "Anchor-3" 722 0 basechar 0
LayerCount: 2
Fore
SplineSet
654 -11 m 0,0,1
 532 -11 532 -11 442 31.5 c 128,-1,2
 352 74 352 74 301.5 152.5 c 128,-1,3
 251 231 251 231 248 340 c 1,4,-1
 272 282 l 1,5,-1
 217 282 l 2,6,7
 146 282 146 282 100 308 c 128,-1,8
 54 334 54 334 31.5 375 c 128,-1,9
 9 416 9 416 8 462 c 2,10,-1
 8 473 l 2,11,12
 8 558 8 558 100 558 c 0,13,14
 153 558 153 558 170.5 537.5 c 128,-1,15
 188 517 188 517 188 489 c 0,16,17
 188 480 188 480 189.5 471.5 c 128,-1,18
 191 463 191 463 192 458 c 0,19,20
 199 436 199 436 212.5 429.5 c 128,-1,21
 226 423 226 423 244 423 c 2,22,-1
 272 423 l 1,23,-1
 248 364 l 1,24,25
 251 443 251 443 278 507.5 c 128,-1,26
 305 572 305 572 353.5 618.5 c 128,-1,27
 402 665 402 665 467.5 690.5 c 128,-1,28
 533 716 533 716 614 716 c 0,29,30
 689 716 689 716 746.5 695 c 128,-1,31
 804 674 804 674 845.5 638 c 128,-1,32
 887 602 887 602 913.5 556.5 c 128,-1,33
 940 511 940 511 952.5 462 c 128,-1,34
 965 413 965 413 965 366 c 0,35,36
 965 332 965 332 954.5 314 c 128,-1,37
 944 296 944 296 923 289 c 128,-1,38
 902 282 902 282 869 282 c 2,39,-1
 429 282 l 1,40,-1
 440 341 l 1,41,42
 443 276 443 276 468 231.5 c 128,-1,43
 493 187 493 187 541.5 165 c 128,-1,44
 590 143 590 143 662 143 c 0,45,46
 701 143 701 143 743 150.5 c 128,-1,47
 785 158 785 158 821 174 c 0,48,49
 854 187 854 187 878 181 c 128,-1,50
 902 175 902 175 915 156.5 c 128,-1,51
 928 138 928 138 929 114 c 128,-1,52
 930 90 930 90 917 68 c 128,-1,53
 904 46 904 46 874 33 c 0,54,55
 827 11 827 11 771 0 c 128,-1,56
 715 -11 715 -11 654 -11 c 0,0,1
618 570 m 0,57,58
 562 570 562 570 521.5 545.5 c 128,-1,59
 481 521 481 521 459.5 472.5 c 128,-1,60
 438 424 438 424 439 351 c 1,61,-1
 426 423 l 1,62,-1
 826 423 l 1,63,-1
 786 352 l 1,64,65
 786 427 786 427 767 475 c 128,-1,66
 748 523 748 523 710.5 546.5 c 128,-1,67
 673 570 673 570 618 570 c 0,57,58
EndSplineSet
EndChar

StartChar: uni04C3
Encoding: 1219 1219 612
Width: 738
GlyphClass: 1
Flags: W
LayerCount: 2
Fore
SplineSet
439 -191 m 0,0,1
 425 -191 425 -191 400.5 -189.5 c 128,-1,2
 376 -188 376 -188 358 -184 c 0,3,4
 329 -179 329 -179 315.5 -162 c 128,-1,5
 302 -145 302 -145 300 -123.5 c 128,-1,6
 298 -102 298 -102 306.5 -83 c 128,-1,7
 315 -64 315 -64 332.5 -53 c 128,-1,8
 350 -42 350 -42 373 -46 c 0,9,10
 384 -47 384 -47 393.5 -48 c 128,-1,11
 403 -49 403 -49 415 -49 c 0,12,13
 457 -49 457 -49 482.5 -19.5 c 128,-1,14
 508 10 508 10 508 63 c 2,15,-1
 508 121 l 2,16,17
 508 177 508 177 488.5 212.5 c 128,-1,18
 469 248 469 248 433.5 265.5 c 128,-1,19
 398 283 398 283 349 283 c 2,20,-1
 248 283 l 1,21,-1
 248 84 l 2,22,23
 248 40 248 40 225 15.5 c 128,-1,24
 202 -9 202 -9 156 -9 c 0,25,26
 112 -9 112 -9 88 15.5 c 128,-1,27
 64 40 64 40 64 84 c 2,28,-1
 64 621 l 2,29,30
 64 667 64 667 88 690.5 c 128,-1,31
 112 714 112 714 156 714 c 0,32,33
 201 714 201 714 224.5 690.5 c 128,-1,34
 248 667 248 667 248 621 c 2,35,-1
 248 433 l 1,36,-1
 357 433 l 1,37,-1
 319 405 l 1,38,-1
 475 667 l 2,39,40
 494 698 494 698 520 708.5 c 128,-1,41
 546 719 546 719 572 713 c 128,-1,42
 598 707 598 707 616 688.5 c 128,-1,43
 634 670 634 670 637.5 642.5 c 128,-1,44
 641 615 641 615 620 583 c 2,45,-1
 483 367 l 1,46,-1
 450 426 l 1,47,48
 528 414 528 414 581.5 377.5 c 128,-1,49
 635 341 635 341 663 278.5 c 128,-1,50
 691 216 691 216 691 127 c 2,51,-1
 691 71 l 2,52,53
 691 -12 691 -12 659 -71 c 128,-1,54
 627 -130 627 -130 570.5 -160.5 c 128,-1,55
 514 -191 514 -191 439 -191 c 0,0,1
EndSplineSet
EndChar

StartChar: uni04C5
Encoding: 1221 1221 613
Width: 800
GlyphClass: 1
Flags: W
LayerCount: 2
Fore
SplineSet
736 -131 m 2,0,1
 727 -158 727 -158 706.5 -171 c 128,-1,2
 686 -184 686 -184 662.5 -185.5 c 128,-1,3
 639 -187 639 -187 620 -176.5 c 128,-1,4
 601 -166 601 -166 592.5 -144.5 c 128,-1,5
 584 -123 584 -123 594 -91 c 2,6,-1
 631 21 l 1,7,-1
 643 0 l 1,8,-1
 607 0 l 2,9,10
 563 0 563 0 540 20 c 128,-1,11
 517 40 517 40 517 85 c 2,12,-1
 517 555 l 1,13,-1
 333 555 l 1,14,-1
 333 440 l 2,15,16
 333 363 333 363 321 298 c 128,-1,17
 309 233 309 233 286 179 c 128,-1,18
 263 125 263 125 229 82 c 128,-1,19
 195 39 195 39 152 8 c 0,20,21
 122 -14 122 -14 90 -8.5 c 128,-1,22
 58 -3 58 -3 34 27 c 0,23,24
 11 58 11 58 18 89 c 128,-1,25
 25 120 25 120 55 144 c 256,26,27
 85 168 85 168 105.5 200.5 c 128,-1,28
 126 233 126 233 139.5 275.5 c 128,-1,29
 153 318 153 318 159 371 c 128,-1,30
 165 424 165 424 165 488 c 2,31,-1
 165 610 l 2,32,33
 165 656 165 656 189.5 680.5 c 128,-1,34
 214 705 214 705 260 705 c 2,35,-1
 605 705 l 2,36,37
 651 705 651 705 676 680.5 c 128,-1,38
 701 656 701 656 701 610 c 2,39,-1
 701 70 l 1,40,-1
 662 144 l 1,41,-1
 717 144 l 2,42,43
 768 144 768 144 789 116 c 128,-1,44
 810 88 810 88 794 40 c 2,45,-1
 736 -131 l 2,0,1
EndSplineSet
EndChar

StartChar: uni04C7
Encoding: 1223 1223 614
Width: 786
GlyphClass: 1
Flags: W
LayerCount: 2
Fore
SplineSet
503 -187 m 0,0,1
 464 -188 464 -188 445 -170.5 c 128,-1,2
 426 -153 426 -153 424.5 -128.5 c 128,-1,3
 423 -104 423 -104 436.5 -84.5 c 128,-1,4
 450 -65 450 -65 476 -62 c 0,5,6
 508 -58 508 -58 523.5 -43.5 c 128,-1,7
 539 -29 539 -29 539 3 c 2,8,-1
 539 282 l 1,9,-1
 248 282 l 1,10,-1
 248 85 l 2,11,12
 248 40 248 40 225 15.5 c 128,-1,13
 202 -9 202 -9 156 -9 c 0,14,15
 112 -9 112 -9 88 15.5 c 128,-1,16
 64 40 64 40 64 85 c 2,17,-1
 64 620 l 2,18,19
 64 666 64 666 88 690 c 128,-1,20
 112 714 112 714 156 714 c 0,21,22
 201 714 201 714 224.5 690 c 128,-1,23
 248 666 248 666 248 620 c 2,24,-1
 248 433 l 1,25,-1
 539 433 l 1,26,-1
 539 620 l 2,27,28
 539 666 539 666 562.5 690 c 128,-1,29
 586 714 586 714 631 714 c 0,30,31
 675 714 675 714 698.5 690 c 128,-1,32
 722 666 722 666 722 620 c 2,33,-1
 722 15 l 2,34,35
 722 -53 722 -53 698 -97.5 c 128,-1,36
 674 -142 674 -142 625 -164 c 128,-1,37
 576 -186 576 -186 503 -187 c 0,0,1
EndSplineSet
EndChar

StartChar: uni04C9
Encoding: 1225 1225 615
Width: 822
GlyphClass: 1
Flags: W
LayerCount: 2
Fore
SplineSet
758 -131 m 2,0,1
 749 -158 749 -158 728.5 -171 c 128,-1,2
 708 -184 708 -184 684.5 -185.5 c 128,-1,3
 661 -187 661 -187 641.5 -176.5 c 128,-1,4
 622 -166 622 -166 613.5 -144.5 c 128,-1,5
 605 -123 605 -123 616 -91 c 2,6,-1
 653 21 l 1,7,-1
 665 0 l 1,8,-1
 628 0 l 2,9,10
 584 0 584 0 561.5 20 c 128,-1,11
 539 40 539 40 539 85 c 2,12,-1
 539 282 l 1,13,-1
 248 282 l 1,14,-1
 248 85 l 2,15,16
 248 40 248 40 225 15.5 c 128,-1,17
 202 -9 202 -9 156 -9 c 0,18,19
 112 -9 112 -9 88 15.5 c 128,-1,20
 64 40 64 40 64 85 c 2,21,-1
 64 620 l 2,22,23
 64 666 64 666 88 690 c 128,-1,24
 112 714 112 714 156 714 c 0,25,26
 201 714 201 714 224.5 690 c 128,-1,27
 248 666 248 666 248 620 c 2,28,-1
 248 433 l 1,29,-1
 539 433 l 1,30,-1
 539 620 l 2,31,32
 539 666 539 666 562.5 690 c 128,-1,33
 586 714 586 714 631 714 c 0,34,35
 675 714 675 714 698.5 690 c 128,-1,36
 722 666 722 666 722 620 c 2,37,-1
 722 59 l 1,38,-1
 673 144 l 1,39,-1
 738 144 l 2,40,41
 789 144 789 144 810 116 c 128,-1,42
 831 88 831 88 815 40 c 2,43,-1
 758 -131 l 2,0,1
EndSplineSet
EndChar

StartChar: uni04CB
Encoding: 1227 1227 616
Width: 747
GlyphClass: 1
Flags: W
LayerCount: 2
Fore
SplineSet
452 -184 m 0,0,1
 414 -184 414 -184 393.5 -163 c 128,-1,2
 373 -142 373 -142 373 -102 c 2,3,-1
 373 68 l 2,4,5
 373 101 373 101 395 122.5 c 128,-1,6
 417 144 417 144 454 144 c 2,7,-1
 528 144 l 1,8,-1
 473 74 l 1,9,-1
 473 248 l 1,10,11
 452 239 452 239 415.5 233 c 128,-1,12
 379 227 379 227 344 227 c 0,13,14
 250 227 250 227 183 260 c 128,-1,15
 116 293 116 293 81.5 360.5 c 128,-1,16
 47 428 47 428 47 531 c 2,17,-1
 47 620 l 2,18,19
 47 666 47 666 70.5 690 c 128,-1,20
 94 714 94 714 139 714 c 0,21,22
 183 714 183 714 206.5 690 c 128,-1,23
 230 666 230 666 230 620 c 2,24,-1
 230 537 l 2,25,26
 230 454 230 454 264.5 417.5 c 128,-1,27
 299 381 299 381 367 381 c 0,28,29
 392 381 392 381 421 386 c 128,-1,30
 450 391 450 391 473 401 c 1,31,-1
 473 620 l 2,32,33
 473 666 473 666 497 690 c 128,-1,34
 521 714 521 714 566 714 c 0,35,36
 610 714 610 714 633.5 690 c 128,-1,37
 657 666 657 666 657 620 c 2,38,-1
 657 94 l 2,39,40
 657 49 657 49 633.5 24.5 c 128,-1,41
 610 0 610 0 565 0 c 2,42,-1
 533 0 l 1,43,-1
 533 -102 l 2,44,45
 533 -142 533 -142 512 -163 c 128,-1,46
 491 -184 491 -184 452 -184 c 0,0,1
EndSplineSet
EndChar

StartChar: uni04CD
Encoding: 1229 1229 617
Width: 920
GlyphClass: 1
Flags: W
LayerCount: 2
Fore
SplineSet
854 -131 m 2,0,1
 845 -158 845 -158 824.5 -171 c 128,-1,2
 804 -184 804 -184 780.5 -185.5 c 128,-1,3
 757 -187 757 -187 737.5 -176.5 c 128,-1,4
 718 -166 718 -166 709.5 -144.5 c 128,-1,5
 701 -123 701 -123 711 -91 c 2,6,-1
 749 21 l 1,7,-1
 774 0 l 1,8,-1
 742 0 l 2,9,10
 698 0 698 0 675 20 c 128,-1,11
 652 40 652 40 652 85 c 2,12,-1
 652 419 l 1,13,-1
 673 419 l 1,14,-1
 512 139 l 2,15,16
 498 117 498 117 482.5 106 c 128,-1,17
 467 95 467 95 441 95 c 0,18,19
 416 95 416 95 400 106 c 128,-1,20
 384 117 384 117 371 139 c 2,21,-1
 209 420 l 1,22,-1
 232 420 l 1,23,-1
 232 75 l 2,24,25
 232 35 232 35 211 13 c 128,-1,26
 190 -9 190 -9 149 -9 c 0,27,28
 109 -9 109 -9 87.5 13 c 128,-1,29
 66 35 66 35 66 75 c 2,30,-1
 66 630 l 2,31,32
 66 671 66 671 89 692.5 c 128,-1,33
 112 714 112 714 154 714 c 0,34,35
 189 714 189 714 209.5 700.5 c 128,-1,36
 230 687 230 687 247 656 c 2,37,-1
 462 270 l 1,38,-1
 427 270 l 1,39,-1
 641 656 l 2,40,41
 659 687 659 687 679.5 700.5 c 128,-1,42
 700 714 700 714 735 714 c 0,43,44
 775 714 775 714 796.5 692.5 c 128,-1,45
 818 671 818 671 818 630 c 2,46,-1
 818 70 l 1,47,-1
 780 144 l 1,48,-1
 834 144 l 2,49,50
 885 144 885 144 906 116 c 128,-1,51
 927 88 927 88 911 40 c 2,52,-1
 854 -131 l 2,0,1
EndSplineSet
EndChar

StartChar: uni04E0
Encoding: 1248 1248 626
Width: 628
GlyphClass: 1
Flags: W
LayerCount: 2
Fore
SplineSet
294 -11 m 0,0,1
 229 -11 229 -11 173.5 1 c 128,-1,2
 118 13 118 13 74 35 c 0,3,4
 46 49 46 49 34 70.5 c 128,-1,5
 22 92 22 92 24 114 c 128,-1,6
 26 136 26 136 40 154 c 128,-1,7
 54 172 54 172 76.5 177.5 c 128,-1,8
 99 183 99 183 128 170 c 0,9,10
 162 155 162 155 200 147.5 c 128,-1,11
 238 140 238 140 277 140 c 0,12,13
 323 140 323 140 352 148 c 128,-1,14
 381 156 381 156 395 173 c 128,-1,15
 409 190 409 190 409 216 c 0,16,17
 409 241 409 241 398 256.5 c 128,-1,18
 387 272 387 272 361 279.5 c 128,-1,19
 335 287 335 287 291 287 c 2,20,-1
 213 287 l 2,21,22
 188 287 188 287 172.5 299.5 c 128,-1,23
 157 312 157 312 152 331 c 128,-1,24
 147 350 147 350 153.5 371 c 128,-1,25
 160 392 160 392 180 410 c 2,26,-1
 379 594 l 1,27,-1
 379 556 l 1,28,-1
 103 556 l 2,29,30
 66 556 66 556 45.5 575 c 128,-1,31
 25 594 25 594 25 630 c 0,32,33
 25 667 25 667 45.5 686 c 128,-1,34
 66 705 66 705 103 705 c 2,35,-1
 495 705 l 2,36,37
 523 705 523 705 541 690.5 c 128,-1,38
 559 676 559 676 564.5 653.5 c 128,-1,39
 570 631 570 631 562 605.5 c 128,-1,40
 554 580 554 580 530 558 c 2,41,-1
 338 382 l 1,42,-1
 295 425 l 1,43,-1
 351 425 l 2,44,45
 427 425 427 425 479.5 398.5 c 128,-1,46
 532 372 532 372 559.5 326.5 c 128,-1,47
 587 281 587 281 587 220 c 0,48,49
 587 149 587 149 555.5 97 c 128,-1,50
 524 45 524 45 459 17 c 128,-1,51
 394 -11 394 -11 294 -11 c 0,0,1
EndSplineSet
EndChar

StartChar: uni04E8
Encoding: 1256 1256 630
Width: 808
GlyphClass: 2
Flags: W
AnchorPoint: "Anchor-5" 403 353 basechar 0
AnchorPoint: "Anchor-3" 465 0 basechar 0
AnchorPoint: "Anchor-2" 403 0 basechar 0
AnchorPoint: "Anchor-1" 469 705 basechar 0
AnchorPoint: "Anchor-0" 399 705 basechar 0
LayerCount: 2
Fore
SplineSet
151 291 m 1,0,-1
 151 425 l 1,1,-1
 653 425 l 1,2,-1
 653 291 l 1,3,-1
 151 291 l 1,0,-1
404 -11 m 0,4,5
 297 -11 297 -11 216 34.5 c 128,-1,6
 135 80 135 80 90.5 162 c 128,-1,7
 46 244 46 244 46 353 c 0,8,9
 46 435 46 435 71.5 502 c 128,-1,10
 97 569 97 569 144.5 617 c 128,-1,11
 192 665 192 665 258 690.5 c 128,-1,12
 324 716 324 716 404 716 c 0,13,14
 511 716 511 716 591.5 671 c 128,-1,15
 672 626 672 626 717 544.5 c 128,-1,16
 762 463 762 463 762 353 c 0,17,18
 762 271 762 271 736.5 204 c 128,-1,19
 711 137 711 137 663.5 88.5 c 128,-1,20
 616 40 616 40 550 14.5 c 128,-1,21
 484 -11 484 -11 404 -11 c 0,4,5
404 143 m 0,22,23
 457 143 457 143 494 168 c 128,-1,24
 531 193 531 193 551 240 c 128,-1,25
 571 287 571 287 571 353 c 0,26,27
 571 452 571 452 527 507 c 128,-1,28
 483 562 483 562 404 562 c 0,29,30
 352 562 352 562 314.5 537.5 c 128,-1,31
 277 513 277 513 257 466.5 c 128,-1,32
 237 420 237 420 237 353 c 0,33,34
 237 254 237 254 281 198.5 c 128,-1,35
 325 143 325 143 404 143 c 0,22,23
EndSplineSet
EndChar

StartChar: uni04FA
Encoding: 1274 1274 638
Width: 628
GlyphClass: 1
Flags: W
LayerCount: 2
Fore
SplineSet
140 -184 m 2,0,1
 110 -186 110 -186 92 -172.5 c 128,-1,2
 74 -159 74 -159 71 -130 c 0,3,4
 69 -103 69 -103 82 -85.5 c 128,-1,5
 95 -68 95 -68 126 -66 c 2,6,-1
 137 -65 l 2,7,8
 184 -60 184 -60 206.5 -43 c 128,-1,9
 229 -26 229 -26 229 0 c 1,10,-1
 195 0 l 2,11,12
 155 0 155 0 134 21 c 128,-1,13
 113 42 113 42 113 82 c 2,14,-1
 113 277 l 1,15,-1
 89 277 l 2,16,17
 57 277 57 277 39 294 c 128,-1,18
 21 311 21 311 21 342 c 256,19,20
 21 373 21 373 39 389 c 128,-1,21
 57 405 57 405 89 405 c 2,22,-1
 113 405 l 1,23,-1
 113 610 l 2,24,25
 113 656 113 656 137.5 680.5 c 128,-1,26
 162 705 162 705 208 705 c 2,27,-1
 544 705 l 2,28,29
 581 705 581 705 600.5 686 c 128,-1,30
 620 667 620 667 620 630 c 0,31,32
 620 594 620 594 600.5 574.5 c 128,-1,33
 581 555 581 555 544 555 c 2,34,-1
 297 555 l 1,35,-1
 297 405 l 1,36,-1
 403 405 l 2,37,38
 435 405 435 405 452.5 389 c 128,-1,39
 470 373 470 373 470 342 c 256,40,41
 470 311 470 311 452.5 294 c 128,-1,42
 435 277 435 277 403 277 c 2,43,-1
 297 277 l 1,44,-1
 297 61 l 1,45,-1
 214 144 l 1,46,-1
 315 144 l 2,47,48
 355 144 355 144 376 123 c 128,-1,49
 397 102 397 102 397 63 c 2,50,-1
 397 38 l 2,51,52
 397 -32 397 -32 372.5 -79.5 c 128,-1,53
 348 -127 348 -127 297.5 -152 c 128,-1,54
 247 -177 247 -177 168 -182 c 2,55,-1
 140 -184 l 2,0,1
EndSplineSet
EndChar

StartChar: uni04FC
Encoding: 1276 1276 639
Width: 698
GlyphClass: 1
Flags: W
LayerCount: 2
Fore
SplineSet
490 -178 m 0,0,1
 451 -186 451 -186 422.5 -170 c 128,-1,2
 394 -154 394 -154 387 -118 c 0,3,4
 379 -82 379 -82 392.5 -63.5 c 128,-1,5
 406 -45 406 -45 431 -37 c 0,6,7
 458 -28 458 -28 467.5 -14 c 128,-1,8
 477 0 477 0 477 20 c 0,9,10
 477 33 477 33 469 50.5 c 128,-1,11
 461 68 461 68 441 94 c 2,12,-1
 320 263 l 1,13,-1
 378 263 l 1,14,-1
 225 50 l 2,15,16
 202 18 202 18 180 4.5 c 128,-1,17
 158 -9 158 -9 129 -9 c 0,18,19
 94 -9 94 -9 71 10 c 128,-1,20
 48 29 48 29 44.5 58 c 128,-1,21
 41 87 41 87 64 117 c 2,22,-1
 276 397 l 1,23,-1
 276 314 l 1,24,-1
 70 587 l 2,25,26
 47 618 47 618 50.5 647 c 128,-1,27
 54 676 54 676 77 695 c 128,-1,28
 100 714 100 714 135 714 c 0,29,30
 164 714 164 714 186 700 c 128,-1,31
 208 686 208 686 230 655 c 2,32,-1
 379 448 l 1,33,-1
 319 448 l 1,34,-1
 469 655 l 2,35,36
 491 687 491 687 513 700.5 c 128,-1,37
 535 714 535 714 564 714 c 0,38,39
 600 714 600 714 623 695.5 c 128,-1,40
 646 677 646 677 649.5 648 c 128,-1,41
 653 619 653 619 629 587 c 2,42,-1
 422 314 l 1,43,-1
 422 397 l 1,44,-1
 595 169 l 2,45,46
 636 115 636 115 651.5 73 c 128,-1,47
 667 31 667 31 667 -4 c 0,48,49
 667 -68 667 -68 625 -113 c 128,-1,50
 583 -158 583 -158 490 -178 c 0,0,1
EndSplineSet
EndChar

